<?xml version="1.0" encoding="utf-8"?>
<!-- Generator: Adobe Illustrator 21.0.0, SVG Export Plug-In . SVG Version: 6.00 Build 0)  -->
<svg version="1.1" id="Layer_1" xmlns="http://www.w3.org/2000/svg" xmlns:xlink="http://www.w3.org/1999/xlink" x="0px" y="0px"
	 viewBox="0 0 40 40" style="enable-background:new 0 0 40 40;" xml:space="preserve">
<g>
	<path d="M21,1.2c0.2,0,0.3,0,0.5,0c1.5,0.1,3,0.4,4.4,0.9c2.3,0.7,4.4,1.9,6.3,3.4c2,1.6,3.6,3.6,4.8,5.9c0.8,1.6,1.5,3.3,1.8,5
		c0.2,0.8,0.3,1.5,0.3,2.3c0,0.6,0.1,1.2,0.1,1.8c0,1.1-0.1,2.1-0.3,3.2c-0.3,1.6-0.8,3.2-1.5,4.7c-0.9,1.8-2,3.5-3.4,5
		c-1.5,1.6-3.3,2.9-5.3,3.9c-1.6,0.8-3.3,1.4-5.1,1.7c-0.9,0.2-1.9,0.3-2.9,0.3c-0.6,0-1.1,0-1.7,0c-1.1,0-2.2-0.2-3.3-0.5
		c-2.2-0.6-4.2-1.4-6.1-2.7c-2.1-1.4-3.9-3.3-5.3-5.4c-1.2-1.9-2.1-4-2.6-6.2c-0.2-0.7-0.3-1.5-0.4-2.3c0-0.3-0.1-0.7-0.1-1
		c0,0,0,0,0-0.1v-1.6c0,0,0-0.1,0-0.1c0-0.8,0.1-1.6,0.3-2.5c0.3-1.7,0.9-3.4,1.6-5c1-2.1,2.4-4,4.1-5.6c2.1-2,4.6-3.4,7.4-4.3
		c1.4-0.4,2.8-0.7,4.2-0.8c0.2,0,0.4,0,0.5,0H21z M1.9,20.1C2,20.1,2,20.1,1.9,20.1c0,0.4,0,0.8,0.1,1.2c0,0.8,0.1,1.5,0.2,2.3
		c0.3,1.8,0.9,3.4,1.7,5c1.9,3.5,4.6,6.2,8.2,8c2.7,1.3,5.6,2,8.6,1.9c0.9,0,1.8-0.1,2.7-0.3c1.7-0.3,3.3-0.8,4.8-1.6
		c1.6-0.8,3.1-1.9,4.5-3.1c1.7-1.6,3.1-3.5,4-5.6c1.1-2.4,1.7-4.9,1.7-7.5c0-0.4,0-0.9,0-1.3c0-0.8-0.1-1.6-0.3-2.3
		c-0.3-1.7-0.9-3.3-1.7-4.8c-1.1-2-2.4-3.8-4.1-5.3c-1.9-1.7-4.2-3-6.6-3.8c-1.5-0.5-3-0.8-4.5-0.8c-0.6,0-1.3,0-1.9,0
		c-0.5,0-1,0.1-1.6,0.1c-1.2,0.2-2.3,0.4-3.4,0.8c-3.1,1.1-5.7,2.9-7.8,5.3c-1.8,2.1-3.1,4.5-3.8,7.2c-0.2,0.8-0.4,1.7-0.5,2.6
		C2,18.8,2,19.4,1.9,20.1"/>
	<path d="M6.2,31.4c-0.5-0.9-1.1-1.7-1.6-2.6c-0.4-0.6-0.7-1.3-1-1.9c0,0,0,0,0-0.1c-0.1-0.2-0.1-0.2,0.1-0.3c0.5-0.3,1-0.6,1.5-0.9
		c0.1-0.1,0.2-0.1,0.3-0.2c0.1,0,0.1-0.1,0.1-0.1c-0.2-0.7-0.4-1.5-0.6-2.2c0-0.1,0-0.1-0.1-0.1c-0.7,0-1.4,0-2.1,0
		c-0.2,0-0.2,0-0.2-0.2c0-0.4-0.1-0.8-0.1-1.2c0-0.7,0-1.3,0-2c0-0.6,0-1.3,0-1.9c0-0.1,0-0.3,0.1-0.4c0,0,0.1,0,0.1,0
		c0.3,0,0.6,0,0.9,0c0.4,0,0.9,0,1.3,0c0,0,0,0,0.1,0c0.1-0.4,0.2-0.8,0.3-1.2c0.1-0.4,0.2-0.7,0.3-1.1c0-0.1,0-0.1-0.1-0.2
		c-0.5-0.3-1.1-0.6-1.6-0.9c-0.1-0.1-0.2-0.1-0.3-0.2c-0.1-0.1-0.1-0.1-0.1-0.2c0.1-0.3,0.2-0.5,0.3-0.8c0.6-1.2,1.3-2.4,2-3.5
		C5.8,9.2,5.9,9.1,6,8.9c0.7,0.4,1.4,0.8,2.1,1.2c0.2-0.2,0.4-0.4,0.6-0.6C9,9.1,9.4,8.8,9.7,8.4c0.1-0.1,0.1-0.1,0-0.2
		C9.4,7.6,9.1,7,8.7,6.4c-0.1-0.1,0-0.2,0-0.2c0.3-0.2,0.7-0.5,1-0.7c1-0.6,2-1.3,3.1-1.8c0.1-0.1,0.2-0.1,0.3-0.1
		c0.1,0,0.2,0,0.2,0.1c0.2,0.2,0.3,0.4,0.5,0.7c0.3,0.4,0.5,0.8,0.7,1.2c0.8-0.2,1.6-0.4,2.4-0.7c0-0.3,0-0.6,0-0.8
		c0-0.5,0-0.9,0-1.4c0-0.1,0-0.2,0.1-0.2c0.4,0,0.8-0.1,1.1-0.1c1.1,0,2.1,0,3.2,0c0.4,0,0.8,0,1.2,0.1v2.3C23.4,5,24.2,5.2,25,5.4
		c0.2-0.3,0.3-0.5,0.5-0.8c0.2-0.4,0.4-0.7,0.7-1.1c0.1-0.2,0.1-0.2,0.3-0.1c0.5,0.2,1,0.5,1.5,0.7c0.9,0.5,1.9,1,2.8,1.6
		c0.1,0.1,0.2,0.1,0.3,0.2C31,6,31,6.1,31,6.2c-0.4,0.6-0.7,1.2-1,1.8c0,0,0,0.1,0,0.1c0.6,0.6,1.2,1.2,1.8,1.7
		c0.7-0.4,1.4-0.8,2-1.2c0.2,0.3,0.4,0.6,0.6,0.8c0.8,1.1,1.5,2.3,2,3.5c0,0.1,0.1,0.2,0.1,0.2c0.1,0.1,0,0.2-0.1,0.3
		c-0.3,0.2-0.5,0.3-0.7,0.5c-0.3,0.2-0.7,0.4-1,0.6c-0.1,0-0.1,0.1-0.1,0.2c0.2,0.7,0.4,1.4,0.6,2.2c0,0.1,0.1,0.1,0.1,0.1
		c0.7,0,1.4,0,2.1,0c0.1,0,0.1,0,0.2,0.1c0.1,0.4,0.1,0.8,0.1,1.2c0,1,0,2,0,3c0,0.4,0,0.8-0.1,1.3h-2.3c-0.1,0.2-0.1,0.4-0.2,0.6
		c-0.1,0.6-0.3,1.1-0.4,1.7c0,0.1,0,0.1,0.1,0.2c0.5,0.3,1,0.6,1.5,0.8c0.1,0.1,0.2,0.2,0.3,0.2c0.1,0.1,0.1,0.1,0.1,0.2
		c-0.1,0.3-0.2,0.5-0.3,0.8c-0.6,1.3-1.4,2.5-2.2,3.7c0,0-0.1,0.1-0.1,0.2c-0.4-0.2-0.8-0.4-1.2-0.7c-0.3-0.1-0.5-0.3-0.8-0.4
		c0,0-0.1-0.1-0.1,0c-0.6,0.6-1.1,1.1-1.7,1.7c0,0,0,0,0,0c0.3,0.6,0.7,1.2,1,1.7c0,0,0,0.1,0.1,0.1c0.1,0.2,0.1,0.2-0.1,0.3
		c-0.4,0.3-0.8,0.5-1.1,0.8c-0.9,0.6-1.9,1.2-2.9,1.7c-0.1,0.1-0.2,0.1-0.3,0.1c-0.1,0.1-0.2,0-0.3-0.1c-0.2-0.3-0.4-0.6-0.6-0.9
		c-0.2-0.3-0.3-0.6-0.5-0.9c0,0,0-0.1-0.1-0.1c-0.8,0.2-1.5,0.4-2.3,0.6c0,0.4,0,0.8,0,1.2c0,0.3,0,0.7,0,1c0,0.2-0.1,0.2-0.2,0.2
		c-0.2,0-0.5,0-0.7,0.1c-1.1,0-2.1,0.1-3.2,0.1c-0.5,0-0.9-0.1-1.4-0.1c-0.1,0-0.1-0.1-0.1-0.1c0-0.2,0-0.4,0-0.6c0-0.5,0-1,0-1.5
		c0,0,0-0.1,0-0.1c-0.3-0.1-0.7-0.2-1-0.2c-0.4-0.1-0.9-0.2-1.3-0.3c-0.1,0-0.1,0-0.2,0.1c-0.3,0.5-0.6,1-0.9,1.5
		c-0.1,0.1-0.2,0.2-0.2,0.3c-0.1,0.1-0.1,0.1-0.2,0.1c-0.3-0.1-0.7-0.3-1-0.4c-1.1-0.5-2.1-1.1-3.1-1.8c-0.2-0.1-0.3-0.2-0.5-0.4
		c-0.1-0.1-0.1-0.1,0-0.2c0.3-0.6,0.7-1.2,1-1.8c0,0,0-0.1,0.1-0.1c-0.2-0.2-0.3-0.4-0.5-0.5c-0.4-0.4-0.8-0.8-1.2-1.2
		c-0.1-0.1-0.1-0.1-0.2,0c-0.6,0.4-1.2,0.7-1.9,1.1C6.3,31.3,6.3,31.4,6.2,31.4 M12.7,5.7c-0.6,0.3-1.1,0.7-1.6,1
		C11,6.7,11,6.7,11,6.8c0,0.1,0,0.1,0.1,0.2c0.1,0.3,0.3,0.5,0.4,0.8c0.2,0.3,0.3,0.6,0.4,0.9c0,0.1,0,0.2-0.1,0.2
		c-0.1,0.1-0.2,0.1-0.3,0.2c-0.6,0.5-1.2,1-1.7,1.6c-0.4,0.5-0.9,1-1.3,1.5c-0.1,0.1-0.1,0.1-0.2,0.1c-0.1,0-0.2-0.1-0.2-0.1
		c-0.5-0.2-0.9-0.5-1.4-0.7c-0.1-0.1-0.2-0.1-0.3-0.2c-0.3,0.6-0.7,1.2-1,1.8c0,0,0.1,0,0.1,0c0.6,0.3,1.2,0.7,1.8,1
		c0.1,0.1,0.1,0.1,0.1,0.2c-0.3,0.8-0.6,1.5-0.8,2.3c-0.1,0.6-0.3,1.3-0.4,1.9c0,0.2,0,0.3-0.1,0.5c-0.1,0-0.2,0-0.3,0
		c-0.6,0-1.3,0-1.9,0c-0.1,0-0.1,0-0.1,0.1c-0.1,0.6-0.1,1.3,0,1.9c0,0.1,0.1,0.1,0.1,0.1c0.7,0,1.3,0,2,0c0.1,0,0.2,0,0.2,0.1
		c0,0.3,0.1,0.7,0.2,1C6.7,23.6,7,24.8,7.6,26c0,0.1,0,0.1-0.1,0.2c-0.4,0.2-0.7,0.4-1.1,0.7c-0.3,0.2-0.5,0.3-0.8,0.5c0,0,0,0,0,0
		c0.3,0.6,0.7,1.1,1,1.7c0,0.1,0.1,0.1,0.2,0c0.4-0.2,0.7-0.4,1.1-0.6c0.2-0.1,0.5-0.2,0.7-0.4c0.1,0,0.1,0,0.2,0
		c0.1,0.2,0.3,0.4,0.5,0.5c0.7,0.9,1.5,1.7,2.5,2.4c0.2,0.1,0.4,0.3,0.6,0.4c-0.2,0.4-0.4,0.7-0.6,1.1c-0.1,0.3-0.3,0.5-0.4,0.8
		c-0.1,0.1,0,0.2,0.1,0.2c0.5,0.3,1,0.6,1.6,0.9c0,0,0,0,0.1,0c0,0,0-0.1,0.1-0.1c0.3-0.6,0.7-1.2,1-1.8c0.1-0.1,0.1-0.1,0.2-0.1
		c0.6,0.2,1.1,0.4,1.7,0.6c0.9,0.3,1.8,0.5,2.7,0.6c0.1,0,0.3,0,0.5,0.1V36c0.7,0.1,1.4,0.1,2.1,0c0,0,0.1,0,0.1-0.1
		c0-0.4,0-0.8,0-1.2c0-0.3,0-0.6,0-1c0.2,0,0.4,0,0.5-0.1c1.1-0.2,2.1-0.5,3.2-0.8c0.3-0.1,0.7-0.2,1-0.4c0.1,0,0.2,0,0.2,0.1
		c0.3,0.4,0.5,0.9,0.8,1.3c0.1,0.2,0.2,0.4,0.3,0.5c0,0,0.1,0,0.1-0.1c0.5-0.3,0.9-0.6,1.4-0.8c0.3-0.2,0.3-0.2,0.1-0.5
		c-0.3-0.5-0.6-1-0.8-1.5c0-0.1-0.1-0.2-0.2-0.3c1.4-1,2.5-2.2,3.5-3.6c0.7,0.4,1.3,0.7,2,1.1c0.4-0.6,0.7-1.2,1-1.8
		c-0.1,0-0.2-0.1-0.2-0.1c-0.6-0.3-1.1-0.7-1.7-1c-0.1,0-0.1-0.1-0.1-0.2c0.1-0.2,0.2-0.4,0.3-0.6c0.2-0.7,0.4-1.4,0.6-2.1
		c0.1-0.5,0.3-1,0.3-1.5c0-0.4,0.1-0.5,0.5-0.5c0.5,0,0.9,0,1.4,0c0.1,0,0.3,0,0.4,0c0.1-0.7,0.1-1.4,0-2.1c-0.3,0-0.6,0-0.9,0
		c-0.4,0-0.7,0-1.1,0c-0.3,0-0.4-0.1-0.4-0.4c0-0.3,0-0.6-0.1-0.8c-0.3-1.2-0.6-2.3-1.1-3.4c0-0.1,0-0.2,0.1-0.2
		c0.5-0.3,1-0.6,1.5-0.9c0.1-0.1,0.3-0.2,0.4-0.3c-0.4-0.6-0.7-1.1-1-1.7c0-0.1-0.1-0.1-0.1,0c-0.3,0.2-0.7,0.4-1,0.6
		c-0.3,0.1-0.5,0.3-0.8,0.4c-0.1,0-0.1,0-0.2,0c-0.1-0.1-0.2-0.3-0.4-0.4c-0.6-0.7-1.2-1.4-1.9-2c-0.4-0.3-0.8-0.6-1.2-0.9
		c-0.1-0.1-0.1-0.1,0-0.2c0.2-0.4,0.4-0.8,0.6-1.2c0.1-0.2,0.2-0.4,0.3-0.7c0-0.1,0-0.2-0.1-0.2c-0.5-0.3-1-0.6-1.6-0.9
		c0,0,0,0-0.1,0c0,0-0.1,0.1-0.1,0.1c-0.3,0.6-0.7,1.2-1,1.8c0,0.1-0.1,0.1-0.2,0.1c-0.2-0.1-0.5-0.2-0.7-0.3
		c-1-0.4-2.1-0.6-3.2-0.8c-0.3-0.1-0.6-0.1-0.9-0.1V4c-0.8-0.1-1.7-0.1-2.1,0v2.3c-1.7,0.2-3.3,0.7-4.9,1.3
		C13.5,7,13.1,6.3,12.7,5.7"/>
	<path d="M22.3,20.2c0-0.9,0-1.9,0-2.8c0-1.1,0.4-2,1.3-2.7c0.5-0.4,1-0.6,1.6-0.7c0.4,0,0.8,0,1.1,0.1c0.3,0.1,0.3,0.2,0.1,0.4
		c-0.3,0.3-0.4,0.6-0.4,0.9c0,1.6,0,3.2,0,4.7c0,0.2-0.1,0.3-0.2,0.4c-0.1,0-0.2,0.1-0.4,0.2c-0.3,0.1-0.5,0.2-0.7,0.4
		c-0.1,0.1-0.2,0.2-0.4,0.2c-0.1,0-0.1,0-0.1-0.1c0-0.7,0-1.3,0-2c0-0.3,0-0.6,0-0.9c0-0.2-0.1-0.3-0.2-0.4c-0.2-0.1-0.5,0-0.5,0.2
		c0,0,0,0.1,0,0.1c0,1.2,0,2.3,0,3.4c0,0,0,0.1,0,0.1c0,0.2,0,0.4-0.2,0.6c-0.3,0.3-0.5,0.6-0.7,0.9c0,0.1-0.1,0.1-0.1,0.2
		c-0.1,0.1-0.2,0-0.2-0.1c0,0,0-0.1,0-0.2V20.2z"/>
	<path d="M17.8,21.1v2.4c0,0.1,0,0.1-0.1,0.2c-0.1,0-0.1,0-0.2-0.1c-0.2-0.3-0.4-0.6-0.6-0.9c0,0-0.1-0.1-0.1-0.1
		c-0.2-0.1-0.3-0.3-0.3-0.5c0-1.2,0-2.5,0-3.7c0-0.1,0-0.2-0.1-0.3c-0.1-0.1-0.2-0.2-0.4-0.2c-0.1,0-0.3,0.2-0.3,0.3
		c0,0.3,0,0.6,0,0.9c0,0.4,0,0.7,0,1.1c0,0.3,0,0.6,0,1c0,0,0,0.1,0,0.1c0,0.2-0.2,0.2-0.3,0.1c-0.3-0.2-0.6-0.4-1-0.5
		c-0.1-0.1-0.2-0.1-0.3-0.1C14,20.7,14,20.7,14,20.5c0-1.4,0-2.8,0-4.2c0-0.3,0-0.7-0.1-1c0-0.2-0.2-0.5-0.3-0.6
		c-0.1-0.1-0.1-0.1-0.1-0.2c0-0.1,0.1-0.1,0.2-0.2c0.3-0.1,0.6-0.1,0.9-0.1c0.4,0,0.7,0.1,1.1,0.2c0.5,0.1,0.8,0.4,1.1,0.7
		c0.4,0.4,0.7,0.9,0.8,1.4c0.1,0.3,0.1,0.7,0.1,1c0,0.6,0.1,1.2,0.1,1.9C17.8,19.9,17.8,20.5,17.8,21.1"/>
	<path d="M15.4,26.5c-0.2,0-0.3,0-0.5,0c-0.1,0-0.2-0.1-0.3-0.2c-0.4-0.8-1-1.4-1.6-1.9c-0.8-0.6-1.6-1-2.6-1.1c-0.4,0-0.7,0-1.1,0
		c-0.1,0-0.2,0-0.2-0.1c-0.1-0.1,0-0.2,0.1-0.3c0.3-0.3,0.6-0.6,0.9-0.8c0.6-0.5,1.3-0.7,2.1-0.9c0.6-0.1,1.2,0,1.7,0.2
		c0.3,0.1,0.7,0.3,1,0.5c0.1,0.1,0.2,0.2,0.3,0.2c0.3,0.2,0.5,0.4,0.7,0.6c0.6,0.6,1.1,1.3,1.5,2.1c0.1,0.3,0.3,0.6,0.4,0.9
		c0,0.1,0.1,0.2,0.1,0.3c0.1,0.2,0,0.4-0.3,0.5c-0.2,0-0.4,0-0.6,0c-0.2,0-0.2-0.1-0.3-0.2c-0.1-0.2-0.1-0.3-0.2-0.5
		c-0.2-0.5-0.5-1-0.9-1.5c-0.4-0.5-0.8-0.9-1.3-1.3c-0.2-0.2-0.5-0.3-0.8-0.4c-0.1-0.1-0.3,0-0.4,0.1c-0.2,0.1-0.2,0.3,0,0.5
		c0.1,0.1,0.2,0.1,0.2,0.1c0.8,0.5,1.5,1.1,2,1.9c0.2,0.3,0.4,0.6,0.5,0.9c0,0.1,0,0.2,0.1,0.2c0,0.1,0,0.2-0.1,0.2
		C15.7,26.5,15.6,26.5,15.4,26.5"/>
	<path d="M24.8,26.4c-0.1,0-0.2,0-0.4,0c-0.2,0-0.3-0.1-0.2-0.3c0.1-0.2,0.1-0.3,0.2-0.5c0.3-0.6,0.7-1.2,1.2-1.7
		c0.3-0.3,0.6-0.7,1.1-0.9c0.1-0.1,0.2-0.1,0.2-0.2c0-0.1,0.1-0.1,0.1-0.2c0-0.2-0.1-0.3-0.3-0.3c-0.2,0-0.4,0.1-0.6,0.2
		c-0.9,0.5-1.6,1.3-2.1,2.2c-0.2,0.4-0.4,0.8-0.5,1.2c0,0,0,0.1-0.1,0.1c-0.1,0.2-0.2,0.3-0.5,0.3c-0.2,0-0.3,0-0.5,0
		c-0.3,0-0.4-0.2-0.3-0.4c0.1-0.2,0.1-0.4,0.2-0.6c0.1-0.4,0.4-0.8,0.6-1.2c0.4-0.7,0.9-1.4,1.5-1.9c0.3-0.2,0.6-0.5,0.9-0.7
		c0.1-0.1,0.3-0.1,0.5-0.2c0.1,0,0.1-0.1,0.2-0.1c0.5-0.2,1-0.3,1.5-0.3c0.6,0,1.1,0.1,1.7,0.4c0.6,0.3,1.2,0.7,1.7,1.2
		c0,0,0,0,0.1,0.1c0,0.1,0,0.2,0,0.2c0,0-0.1,0.1-0.2,0.1c-0.1,0-0.2,0-0.3,0c-0.2,0-0.3,0-0.5,0c-0.7,0-1.3,0.2-1.9,0.5
		c-0.4,0.2-0.7,0.5-1.1,0.7c-0.7,0.5-1.1,1.1-1.5,1.8c0,0.1-0.1,0.1-0.1,0.2c-0.1,0.2-0.3,0.2-0.5,0.2C25,26.4,24.9,26.4,24.8,26.4
		L24.8,26.4z"/>
	<path d="M24.4,31.3h-2.6c-0.3,0-0.3,0-0.3-0.3c0-0.5,0-1.1,0-1.6c0-0.2,0.1-0.3,0.3-0.3c1.1,0,2.3,0,3.4,0c0.1,0,0.2,0,0.2-0.1
		c0-0.1,0-0.2-0.1-0.2c-0.3-0.3-0.7-0.5-1.1-0.5c-0.8,0-1.6,0-2.4,0c-0.1,0-0.1,0-0.2,0c-0.1,0-0.2-0.1-0.2-0.2c0-0.3,0-0.6,0-0.9
		c0-0.1,0-0.1,0.1-0.1c0,0,0.1,0,0.1,0c0.7,0,1.4,0,2,0c0.4,0,0.8,0,1.2,0.1c0.2,0.1,0.4,0.1,0.6,0.2c0.6,0.3,1.1,0.8,1.4,1.4
		c0.2,0.4,0.4,0.8,0.4,1.2c0,0.2,0.1,0.5,0.1,0.7c0,0.4-0.1,0.5-0.5,0.5H24.4z"/>
	<path d="M15.9,31.4h-2.6c0,0-0.1,0-0.1,0c-0.2,0-0.3-0.1-0.3-0.3c0-0.3,0-0.5,0.1-0.8c0.1-0.8,0.4-1.5,1-2.1
		c0.2-0.2,0.5-0.4,0.8-0.6c0,0,0.1,0,0.1,0c0.5-0.3,1.1-0.4,1.6-0.4c0.7,0,1.5,0,2.2,0c0.1,0,0.2,0,0.2,0.2c0,0.3,0,0.5,0,0.8
		c0,0.2-0.1,0.2-0.2,0.2c-0.6,0-1.2,0-1.8,0c-0.3,0-0.7,0-1,0.1c-0.3,0-0.6,0.2-0.8,0.5c0,0,0,0.1-0.1,0.2c0.1,0,0.1,0,0.2,0
		c1.1,0,2.3,0,3.4,0c0,0,0.1,0,0.1,0c0.2,0,0.3,0,0.3,0.2c0,0.5,0,1.1,0,1.6c0,0.2-0.1,0.2-0.2,0.3c0,0-0.1,0-0.1,0H15.9z"/>
	<path d="M20.5,20.9c0-1.4,0-2.8,0-4.2c0-0.4,0-0.8,0-1.1c0-0.4,0.1-0.7,0.2-1.1c0.1-0.2,0.1-0.4,0.2-0.6c0.1-0.4,0.4-0.8,0.7-1.1
		c0.4-0.5,0.9-0.9,1.5-1.2c0.1,0,0.2-0.1,0.3-0.1c0.2,0,0.2,0,0.1,0.2c-0.1,0.2-0.2,0.4-0.3,0.6c-0.4,0.6-0.7,1.2-0.9,1.9
		c-0.1,0.3-0.2,0.7-0.3,1.1c-0.1,0.4-0.2,0.9-0.3,1.3c-0.1,0.6-0.1,1.2-0.1,1.8c0,1.2,0,2.4,0,3.6c0,0.8,0,1.6,0,2.5
		c0,0.6,0,1.1,0,1.7c0,0.2-0.1,0.3-0.3,0.3c-0.2,0-0.4,0-0.7,0c-0.1,0-0.2,0-0.2-0.2c0,0,0-0.1,0-0.1V20.9z"/>
	<path d="M18.5,22.1c0-1.3,0-2.5,0-3.8c0-0.8-0.1-1.5-0.2-2.3c-0.1-0.6-0.3-1.1-0.4-1.7c-0.1-0.5-0.4-0.9-0.6-1.4
		c-0.1-0.3-0.3-0.5-0.5-0.8c-0.1-0.2-0.2-0.4-0.4-0.5c-0.1-0.1,0-0.2,0.1-0.2c0.1,0,0.1,0,0.2,0c0.9,0.4,1.6,1.1,2.1,2
		c0.1,0.2,0.2,0.4,0.3,0.6c0.2,0.4,0.3,0.9,0.4,1.4c0,0.1,0,0.2,0,0.2c0,1.4,0,2.8,0,4.3c0,1.9,0,3.9,0,5.8c0,0.2,0,0.3,0,0.5
		c0,0.1-0.1,0.2-0.2,0.2c-0.2,0-0.4,0-0.7,0c-0.2,0-0.3-0.1-0.3-0.3C18.5,24.8,18.5,23.5,18.5,22.1"/>
	<path d="M30.9,23.5c0.2,0,0.3,0,0.5,0c0.3,0,0.5,0.2,0.6,0.4c0,0.1,0.1,0.2,0.2,0.3c0,0.1,0.1,0.1,0.1,0.2c0,0.1,0,0.2,0,0.3
		c0,0-0.1,0-0.2,0c-0.1,0-0.3,0-0.4-0.1c-1-0.1-1.9,0.2-2.7,0.7c-0.4,0.3-0.8,0.6-1.1,1c-0.2,0.3-0.5,0.6-0.7,0.9
		c-0.1,0.2-0.2,0.2-0.4,0.1c-0.2-0.1-0.4-0.3-0.5-0.5c-0.1-0.1-0.2-0.3-0.1-0.4c0.2-0.3,0.4-0.5,0.6-0.8c0.2-0.3,0.5-0.5,0.7-0.8
		c0.2-0.3,0.5-0.5,0.8-0.7c0.3-0.3,0.8-0.4,1.2-0.5C29.9,23.6,30.4,23.5,30.9,23.5"/>
	<path d="M8.9,24.9c-0.2,0-0.4,0.1-0.7,0.1c-0.1,0-0.1,0-0.2,0c-0.1,0-0.2-0.1-0.1-0.2c0.1-0.2,0.2-0.4,0.3-0.6
		c0.1-0.2,0.3-0.4,0.6-0.4c0.7,0,1.4,0,2.1,0.3c0.9,0.3,1.6,0.8,2.3,1.5c0.1,0.1,0.3,0.3,0.4,0.4c0.1,0.1,0.1,0.2,0.2,0.2
		c0.1,0.1,0.2,0.3,0.3,0.4c0.1,0.2,0.1,0.3,0,0.4c-0.2,0.2-0.4,0.4-0.6,0.6c-0.1,0.1-0.2,0.1-0.3-0.1c-0.2-0.4-0.4-0.7-0.7-1.1
		c-0.4-0.5-0.9-0.8-1.3-1.1c-0.5-0.3-1.1-0.4-1.6-0.5C9.3,25,9.1,25,8.9,24.9"/>
	<path d="M15.5,9.7c0-0.2,0.1-0.4,0.1-0.6c0-0.1,0-0.1,0.1-0.1c0.1,0,0.1,0.1,0,0.2c-0.1,0.1,0,0.6,0,0.7c0.1,0.2,0.3,0.2,0.5,0.2
		c0.3-0.1,0.6-0.2,0.9-0.4c0,0,0-0.1,0-0.1c0,0,0,0-0.1,0c0,0-0.1,0-0.1,0c-0.4,0-0.5-0.3-0.4-0.6c0.1-0.2,0.3-0.4,0.5-0.5
		c0.1-0.1,0.2-0.1,0.3-0.1c0.3-0.1,0.4,0,0.5,0.2c0,0.1,0.1,0.2,0.2,0.2c0.1,0,0.2,0.1,0.3,0.1c0.1,0,0.2,0,0.3,0c0,0,0.1,0,0.1-0.1
		c0,0,0-0.1,0-0.1c-0.1,0-0.1-0.1-0.2-0.1c-0.1,0-0.1-0.1,0-0.2c0.1-0.1,0.2-0.3,0.4-0.2c0.1,0,0.1,0,0.2,0c0.1,0,0.3,0,0.4,0.1
		c0.1,0.1,0,0.3-0.1,0.4c-0.1,0.1-0.1,0.2,0.1,0.2c0.1,0,0.3,0,0.4-0.1c0.1-0.1,0.1-0.1,0.3,0c0.1,0.1,0.2,0.2,0.4,0.1
		c0.1,0,0.1,0,0.2-0.1c0,0,0.1-0.1,0.1-0.1c0,0,0.1,0.1,0.1,0.1c0,0,0,0,0,0C21.2,9,21.3,9,21.5,8.8c0.2-0.2,0.4-0.4,0.7-0.4
		c0.3-0.1,0.5,0,0.8,0.2c0.1,0.1,0.2,0.4,0.1,0.6c0,0,0,0.1-0.1,0.1c-0.1,0.3-0.3,0.4-0.6,0.4c-0.4-0.1-0.9-0.1-1.3-0.2
		c-0.1,0-0.2-0.1-0.2-0.1c-0.1-0.1-0.1-0.1-0.2,0c-0.2,0.1-0.4,0.1-0.6,0c-0.1-0.1-0.2-0.1-0.3,0c-0.2,0.1-0.4,0.1-0.6-0.1
		c-0.1-0.1-0.1,0-0.2,0c-0.2,0.1-0.4,0.2-0.6,0.2c-0.3,0-0.4,0-0.5-0.3c-0.1-0.4-0.4-0.4-0.7-0.2c0,0-0.1,0.1-0.1,0.1
		c-0.1,0.1-0.1,0.1,0,0.1c0.1,0,0.2,0,0.3,0c0.2,0,0.4,0.1,0.3,0.4c0,0.2-0.1,0.4-0.2,0.5c-0.3,0.3-0.7,0.5-1.1,0.6
		c-0.3,0.1-0.5-0.1-0.6-0.3C15.6,10.2,15.5,10,15.5,9.7L15.5,9.7z M22.7,9.1c-0.1-0.1-0.1-0.2-0.3-0.3c-0.2,0-0.4,0-0.6,0.1
		c0,0-0.1,0.1-0.1,0.1c0,0,0,0.1,0.1,0.1c0.3,0,0.5,0.1,0.8,0.1C22.6,9.1,22.6,9.1,22.7,9.1"/>
	<path d="M20,14.8c0-0.1-0.1-0.1-0.1-0.2c-0.3-1-0.7-1.8-1.5-2.5c-0.2-0.2-0.4-0.4-0.6-0.5c-0.1-0.1-0.1-0.2,0-0.3
		c0.2-0.1,0.4-0.1,0.6,0c0.2,0.1,0.4,0.2,0.5,0.3c0.3,0.3,0.6,0.5,0.9,0.8c0.2,0.2,0.2,0.2,0.3,0c0.2-0.3,0.5-0.6,0.8-0.8
		c0.3-0.3,0.7-0.4,1.1-0.3c0.1,0,0.2,0,0.2,0.1c0,0.1,0,0.1-0.1,0.2c-0.4,0.3-0.8,0.6-1.1,1c-0.4,0.5-0.7,1-0.8,1.6
		C20.2,14.4,20.1,14.6,20,14.8"/>
	<path d="M26.9,18.5c0-0.5,0-1,0-1.4c0-0.2,0.1-0.5,0.2-0.7c0.1-0.3,0.5-0.5,0.8-0.4c0.1,0,0.2,0.1,0.2,0.3c0,0.2,0,0.5,0,0.7
		c0,0.5,0,1,0,1.4c0,0.5,0,1.1,0,1.7c0,0.2,0,0.2-0.2,0.3c-0.2,0-0.5,0-0.7,0c-0.1,0-0.2-0.1-0.2-0.2c0-0.1,0-0.1,0-0.2
		C26.9,19.5,26.9,19,26.9,18.5L26.9,18.5z"/>
	<path d="M13.2,19c0,0.4,0,0.8,0,1.2c0,0.1,0,0.1,0,0.2c0,0.1-0.1,0.1-0.1,0.1c-0.3,0-0.5,0-0.8,0c-0.1,0-0.2-0.1-0.2-0.2
		c0-0.1,0-0.1,0-0.2c0-0.9,0-1.8,0-2.8c0-0.2,0-0.4-0.1-0.6c0-0.1,0-0.1,0-0.2c0-0.2,0.2-0.3,0.3-0.2c0.3,0.1,0.5,0.2,0.6,0.5
		c0.2,0.3,0.3,0.7,0.3,1C13.2,18.2,13.2,18.6,13.2,19"/>
	<path d="M27.1,9.9c-0.3,0-0.6,0-1,0c-0.1,0-0.1,0-0.1,0.2c0.1,0.2,0.1,0.4,0.1,0.7c0,0,0,0.1,0,0.1c0,0.3,0.2,0.5,0.5,0.5
		c0.2,0,0.2,0,0.2,0.2c0,0.1,0.1,0.2,0.3,0.2c0.2,0,0.2,0,0.2,0.2c0,0.2,0.1,0.3,0.3,0.2c0.1,0,0.2,0,0.2,0.2c0,0.1,0.1,0.2,0.2,0.3
		c0.1,0.1,0.2,0.1,0.2,0.2c0.1,0.1,0.2,0,0.2-0.1c0-0.1,0-0.2,0-0.3c0-0.2,0.1-0.3,0.3-0.4c0.1,0,0.2,0,0.2,0.1c0,0.1,0,0.1,0,0.2
		c0,0.3-0.4,0.8-0.7,0.9c-0.1,0-0.2,0-0.3-0.1c-0.1-0.1-0.2-0.2-0.4-0.3c0,0,0,0-0.1-0.1c0-0.1-0.1-0.2-0.2-0.2
		c-0.1-0.1-0.2-0.1-0.3-0.2c0,0-0.1,0-0.1-0.1c-0.3-0.3-0.7-0.5-1-0.8c-0.1-0.1-0.1-0.1-0.1-0.2c0,0,0-0.1,0-0.1c0,0-0.1,0-0.1,0.1
		c-0.1,0-0.2,0.1-0.2,0c-0.2-0.1-0.4-0.1-0.5-0.2c-0.1,0-0.1-0.2-0.2-0.2c0-0.2,0-0.3,0.1-0.5c0.2-0.5,0.4-0.9,0.7-1.4
		c0.1-0.1,0.2-0.2,0.3-0.3c0,0,0.1,0,0.1,0c0,0,0,0.1,0,0.1c-0.2,0.5-0.5,1-0.7,1.4c-0.1,0.2,0,0.4,0.2,0.6c0.1,0,0.2,0.1,0.3,0.1
		c0,0,0.1,0,0.1,0c0,0,0.1-0.1,0-0.1c-0.1-0.2-0.1-0.4-0.2-0.6c0,0,0,0,0-0.1c-0.1-0.1-0.1-0.3,0.1-0.4c0.1,0,0.1,0,0.2,0
		c0.3,0.1,0.6,0.1,0.9,0.1c0.3,0,0.6,0,0.9,0.1c0,0,0.1,0,0.1,0c0,0,0,0.1-0.1,0.1C27.5,9.9,27.3,9.9,27.1,9.9"/>
	<path d="M20.2,33.1C20.1,33.1,20.1,33,20,33c-0.1-0.2-0.2-0.4-0.4-0.5c-0.2-0.1-0.4-0.2-0.6-0.2c-0.2,0-0.3-0.1-0.2-0.3
		c0.2-0.3,0.4-0.6,0.6-0.9c0.2-0.2,0.3-0.5,0.5-0.7c0,0,0,0,0-0.1c0.2-0.2,0.2-0.1,0.3,0c0.3,0.4,0.5,0.7,0.8,1.1
		c0.2,0.2,0.4,0.4,0.5,0.7c0,0,0.1,0.1,0.1,0.2c0,0.1-0.1,0.1-0.2,0.1c-0.1,0-0.3,0-0.4,0.1c-0.3,0.1-0.5,0.2-0.6,0.4
		c-0.1,0.1-0.1,0.2-0.2,0.3C20.3,33,20.2,33.1,20.2,33.1"/>
	<path d="M19.1,28c0-0.5,0.5-1,1.1-1c0.5,0,1,0.5,1,1c0,0.6-0.5,1-1.1,1C19.5,29,19.1,28.6,19.1,28"/>
	<path d="M12,11.9c-0.2,0-0.4,0-0.5-0.2c-0.1-0.1,0-0.2,0.1-0.2c0.4,0,0.7,0.2,0.8,0.5c0.1,0.2,0.1,0.4,0,0.6
		c-0.2,0.3-0.4,0.6-0.7,0.8c-0.1,0.1-0.1,0.2-0.2,0.3c-0.3,0.6-0.6,1.2-1.1,1.7c-0.2,0.2-0.3,0.3-0.6,0.3c-0.2,0-0.4-0.1-0.5-0.3
		c0,0-0.1-0.1-0.1-0.1c0,0,0-0.1,0-0.1c0,0,0.1,0,0.1,0c0.3,0.1,0.4,0.1,0.6-0.1c0.3-0.3,0.6-0.6,0.8-0.9c0.1-0.2,0.3-0.4,0.4-0.6
		c0.1-0.1,0-0.2,0-0.2C11.1,13.1,11,13,11,12.9c-0.1-0.1-0.1-0.3-0.1-0.4c0-0.2,0.2-0.3,0.4-0.2c0.2,0.1,0.3,0.2,0.4,0.3
		c0.1,0.2,0.2,0.2,0.3,0c0.1-0.1,0.2-0.2,0.3-0.4c0-0.1,0.1-0.1,0-0.2C12.1,11.9,12,11.9,12,11.9 M11.3,12.9c0.1,0,0.2-0.1,0.2-0.2
		c0-0.1-0.1-0.1-0.2-0.1c-0.1,0-0.2,0.1-0.2,0.2C11.2,12.9,11.3,12.9,11.3,12.9"/>
	<path d="M14.4,10.1c0.1,0,0.1,0.1,0.2,0.1c0.1,0,0.1,0,0.2,0c0.1,0,0.1,0,0.1-0.2c-0.1-0.1-0.1-0.3-0.1-0.4c0-0.1,0.1-0.1,0.2,0
		c0.1,0,0.1,0.1,0.2,0.2c0,0.1,0.1,0.1,0.1,0.2c0.2,0.4,0,0.7-0.4,0.7c-0.1,0-0.2,0.1-0.3,0.2c-0.1,0.1-0.2,0.2-0.3,0.2
		c-0.1,0-0.2,0.1-0.3,0.1c-0.1,0.1-0.2,0.2-0.3,0.3c0,0,0,0.1,0,0.2c0.1,0.2,0.1,0.5,0.1,0.7c0,0.3-0.4,0.7-0.7,0.8c0,0-0.1,0-0.1,0
		c-0.1,0-0.1-0.1,0-0.1c0.3-0.3,0.5-0.7,0.6-1.1c0-0.2,0-0.3-0.2-0.3c-0.1,0-0.2,0-0.3,0c-0.2-0.1-0.3-0.2-0.2-0.4
		c0-0.1,0.1-0.1,0.2-0.1c0.3,0.1,0.5,0,0.6-0.2c0,0,0,0,0.1-0.1c0.1-0.1,0.1-0.1,0.1-0.2c0-0.2,0-0.2,0.2-0.1c0.1,0,0.2,0,0.3,0
		c0.1-0.1,0.1-0.1,0.1-0.2C14.4,10.2,14.4,10.2,14.4,10.1"/>
	<path d="M20,12c-0.1,0-0.1,0-0.1-0.1c-0.2-0.3-0.5-0.5-0.8-0.7c-0.1-0.1-0.1-0.1,0-0.2c0.1-0.2,0.3-0.4,0.5-0.5
		c0.4-0.2,0.8-0.2,1.2,0.1c0.1,0.1,0.2,0.2,0.3,0.3c0.1,0.1,0.1,0.2,0,0.3c-0.3,0.2-0.6,0.4-0.8,0.7C20.1,11.9,20,11.9,20,12"/>
	<path d="M29.9,14.3c0-0.2-0.1-0.3-0.2-0.5c-0.1-0.2,0-0.4,0.2-0.4c0.1,0,0.2,0,0.3,0.1c0.1,0.3,0.1,0.5,0,0.8
		c-0.1,0.3-0.3,0.5-0.6,0.6c-0.1,0-0.1,0-0.2,0c-0.3-0.1-0.5-0.3-0.6-0.5c-0.1-0.2-0.1-0.4,0.1-0.5c0.1,0,0.2,0,0.2,0.1
		c0.1,0.1,0.3,0.3,0.4,0.4c0,0,0.1,0.1,0.1,0.1c0.1,0.1,0.2,0,0.2-0.1C29.8,14.4,29.8,14.3,29.9,14.3C29.8,14.3,29.9,14.3,29.9,14.3
		"/>
	<path d="M24.3,9.6c0,0.3-0.2,0.5-0.4,0.8c0,0-0.1,0.1-0.2,0.1c-0.1,0-0.3-0.1-0.4-0.2c-0.1-0.1-0.1-0.2-0.1-0.3
		c0-0.1,0.1-0.2,0.2-0.4c0.1-0.1,0.2-0.2,0.2-0.3c0.1-0.1,0.2-0.2,0.3-0.1C24.3,9.2,24.3,9.3,24.3,9.6 M23.7,9.7
		c0,0.2,0.1,0.3,0.2,0.3c0,0,0.1-0.1,0.1-0.1C24,9.8,23.8,9.6,23.7,9.7C23.7,9.6,23.7,9.7,23.7,9.7"/>
	<path d="M29.9,12.5c0,0,0,0.1-0.1,0.1c-0.3,0.3-0.6,0.7-0.9,1c-0.1,0.1-0.2,0.2-0.3,0.3c0,0-0.1,0-0.1,0c0,0,0-0.1,0-0.1
		c0-0.1,0.1-0.1,0.1-0.2c0.1-0.1,0.2-0.3,0.4-0.4c0.1-0.2,0.3-0.3,0.4-0.5c0.1-0.1,0.2-0.2,0.4-0.3C29.9,12.3,29.9,12.4,29.9,12.5"
		/>
	<path d="M27.8,10.6c0.1-0.3,0.1-0.3,0.3-0.3c0.1,0,0.2,0.1,0.2,0.2c0,0.1,0,0.2-0.2,0.3c0.2,0,0.2,0.1,0.2,0.3
		c0,0.1-0.1,0.2-0.3,0.2c-0.1,0-0.2-0.1-0.2-0.2c0-0.1,0-0.1-0.2-0.1c-0.1,0-0.2,0.1-0.3,0c-0.1-0.1-0.1-0.2,0-0.3
		c0.1-0.1,0.2-0.1,0.3-0.1C27.7,10.6,27.8,10.6,27.8,10.6 M28,10.8c-0.1,0-0.1-0.1-0.2-0.1v0.2C27.9,10.9,27.9,10.8,28,10.8"/>
	<path d="M13.7,9.7c0,0.1,0,0.1,0,0.1c0,0,0,0.1,0,0.1c0,0.1-0.1,0.2-0.3,0.1c-0.1,0-0.1-0.1-0.1-0.2c0-0.1,0-0.3,0.2-0.2
		c0.1,0,0.1,0,0.2-0.1c-0.2,0.1-0.4,0.1-0.4,0c-0.1-0.1,0-0.3,0.1-0.3c0.2-0.1,0.3,0,0.4,0.2c0.1,0,0.2-0.1,0.3-0.1
		c0.1,0,0.1,0,0.1,0.1c0.1,0.2,0,0.3-0.2,0.3C13.8,9.7,13.7,9.7,13.7,9.7"/>
	<path d="M18.3,7.6c0,0.2-0.1,0.2-0.3,0.2c-0.1-0.1-0.2,0-0.3,0.1c-0.1,0.1-0.2,0.1-0.3,0c0,0-0.1-0.1-0.1-0.1
		c0-0.1,0.1-0.2,0.2-0.2c0,0,0.1,0,0.1,0c0.1,0,0.2,0,0.2-0.1c0.1-0.1,0.1-0.1,0.3,0C18.3,7.5,18.3,7.5,18.3,7.6"/>
	<path d="M12.5,13.8c0,0.1,0,0.1-0.1,0.2c-0.1,0-0.2,0.1-0.2,0.2c0,0.1-0.1,0.2-0.2,0.2c-0.1,0-0.2-0.1-0.2-0.2c0,0,0-0.1,0.1-0.1
		c0,0,0.1,0,0.1-0.1c0,0,0-0.1,0-0.1c0-0.1-0.1-0.1,0-0.2c0.1-0.1,0.2-0.1,0.2-0.1C12.4,13.6,12.5,13.6,12.5,13.8"/>
	<path d="M28.9,11.6c0-0.2,0.1-0.2,0.3-0.2c0.1,0,0.2,0.1,0.2,0.2c0,0.2-0.1,0.3-0.2,0.3C28.9,11.8,28.9,11.7,28.9,11.6"/>
	<path d="M9.9,13.9c-0.1,0-0.2,0-0.2-0.2c0-0.2,0.1-0.2,0.3-0.2c0.1,0,0.2,0.1,0.2,0.2C10.2,13.8,10.1,13.9,9.9,13.9"/>
	<path d="M20.1,7.6c0-0.1,0.1-0.2,0.2-0.2c0.1,0,0.2,0.1,0.2,0.2c0,0.1-0.1,0.2-0.2,0.2C20.2,7.8,20.1,7.8,20.1,7.6"/>
	<path d="M26.4,9.3c0.1-0.1,0.2-0.1,0.3-0.1c0.2,0,0.3,0,0.5,0c0,0,0.1,0.1,0.1,0.1c0,0-0.1,0-0.1,0c-0.2,0-0.4,0-0.7,0
		C26.5,9.3,26.4,9.3,26.4,9.3"/>
</g>
</svg>
