<?xml version="1.0" encoding="utf-8"?>
<!-- Generator: Adobe Illustrator 21.0.0, SVG Export Plug-In . SVG Version: 6.00 Build 0)  -->
<svg version="1.1" id="Layer_1" xmlns="http://www.w3.org/2000/svg" xmlns:xlink="http://www.w3.org/1999/xlink" x="0px" y="0px"
	 viewBox="0 0 500 260.7" style="fill:#f5f5f5;" xml:space="preserve">
<g>
	<g>
		<path d="M17.4,208.8c0,0.8-0.1,1.5-0.3,2.3c-0.2,0.7-0.5,1.4-1,2.1c-0.4,0.7-0.9,1.3-1.4,1.9c-0.6,0.6-1.2,1.2-1.8,1.7
			c-0.7,0.5-1.3,1-2.1,1.5c-0.7,0.5-1.5,0.9-2.2,1.2l-1.2-2.4c0.6-0.3,1.3-0.7,1.9-1.1c0.6-0.4,1.2-0.8,1.8-1.3
			c0.6-0.5,1.1-0.9,1.6-1.4c0.5-0.5,0.9-1,1.2-1.6c0.3-0.6,0.6-1.1,0.7-1.7c0.2-0.6,0.2-1.2,0.1-1.8v0c-0.1-0.5-0.2-1.1-0.3-1.6
			c-0.1-0.6-0.3-1.2-0.4-1.7c-0.2-0.6-0.3-1.1-0.5-1.6c-0.1-0.5-0.3-0.9-0.4-1.2l2.5-0.8c0.3,1,0.7,1.9,1,2.6c0.3,0.7,0.7,1.3,1,1.8
			c0.3,0.5,0.7,0.8,1.1,1c0.4,0.2,0.8,0.3,1.2,0.3h0.1c0.2,0,0.4,0,0.5,0.1c0.2,0.1,0.3,0.2,0.4,0.3c0.1,0.1,0.2,0.3,0.3,0.4
			c0.1,0.2,0.1,0.3,0.1,0.5c0,0.4-0.1,0.7-0.4,0.9c-0.3,0.2-0.6,0.4-0.9,0.4h0c-0.1,0-0.3,0-0.5,0c-0.2,0-0.4,0-0.7-0.1
			c-0.2-0.1-0.5-0.2-0.8-0.3C17.9,209.2,17.7,209,17.4,208.8L17.4,208.8z"/>
		<path d="M18.2,208.4c0-0.4,0.1-0.7,0.4-0.9c0.3-0.2,0.6-0.4,0.9-0.4H21c0.3,0,0.7,0,1,0c0.4,0,0.7,0,1.1-0.1
			c0.4,0,0.7-0.1,1.1-0.2c0.4-0.1,0.7-0.2,1-0.3c0.3-0.1,0.6-0.3,0.8-0.4c0.2-0.2,0.4-0.4,0.5-0.6c0.2-0.4,0.2-0.9,0.2-1.6
			c-0.1-0.7-0.3-1.5-0.5-2.5c-0.1-0.3-0.2-0.6-0.3-0.9c-0.1-0.3-0.3-0.6-0.4-0.9c-0.1-0.3-0.3-0.7-0.4-1l2.4-1.2c0,0,0,0.1,0.1,0.3
			c0.1,0.2,0.2,0.4,0.3,0.7c0.1,0.3,0.3,0.6,0.4,1c0.2,0.4,0.3,0.8,0.4,1.2c0.8,2.6,0.9,4.6,0.3,6c-0.6,1.4-1.8,2.4-3.4,2.8
			c-0.2,0.1-0.5,0.1-0.9,0.2c-0.4,0-0.8,0.1-1.2,0.1c-0.4,0-0.8,0-1.1,0c-0.4,0-0.6,0-0.8,0h-1.9h-0.1c-0.4,0-0.7-0.1-0.9-0.4
			C18.3,209.1,18.2,208.8,18.2,208.4z M25.1,193l-2.2,2.2l-2.2-2.2l2.2-2.2L25.1,193z M30.6,193l-2.2,2.2l-2.2-2.2l2.2-2.2L30.6,193
			z"/>
		<path d="M31.8,216.5c1.4-0.3,2.6-0.7,3.7-1.2c1.1-0.5,2-1,2.8-1.7c0.8-0.6,1.4-1.3,1.8-2c0.5-0.7,0.7-1.4,0.8-2
			c-0.4,0-0.8,0-1.3,0c-0.5,0-1,0-1.5-0.1c-1.9-0.1-3.4-0.8-4.3-1.9c-0.4-0.5-0.7-1.1-0.8-1.8c-0.1-0.7-0.1-1.4,0-2.1
			c0.1-0.7,0.3-1.4,0.6-2.1c0.3-0.7,0.6-1.2,1-1.7c0.4-0.6,0.9-1,1.5-1.3c0.5-0.3,1.1-0.4,1.7-0.4c1.3,0,2.4,0.6,3.5,1.7
			c0.4,0.4,0.7,0.9,1,1.4c0.3,0.5,0.6,1.1,0.8,1.7c0.2,0.6,0.4,1.2,0.5,1.9c0.1,0.7,0.2,1.3,0.2,2h1c0.2,0,0.4,0,0.5,0.1
			c0.2,0.1,0.3,0.2,0.4,0.3c0.1,0.1,0.2,0.3,0.3,0.4c0.1,0.2,0.1,0.3,0.1,0.5c0,0.2,0,0.3-0.1,0.5c-0.1,0.2-0.2,0.3-0.3,0.4
			c-0.1,0.1-0.3,0.2-0.4,0.3c-0.2,0.1-0.3,0.1-0.5,0.1h-1.2c-0.3,1.3-0.8,2.5-1.5,3.6c-0.7,1.1-1.5,2-2.5,2.8c-1,0.8-2.1,1.4-3.3,2
			c-1.2,0.5-2.5,0.9-3.8,1.1L31.8,216.5z M37.7,201c-0.3,0-0.5,0.1-0.7,0.3c-0.2,0.2-0.4,0.5-0.6,0.8c-0.2,0.3-0.3,0.7-0.5,1.1
			c-0.1,0.4-0.2,0.8-0.3,1.2c0,0.4,0,0.7,0,1.1c0,0.3,0.1,0.6,0.3,0.8c0.1,0.2,0.3,0.3,0.5,0.4c0.2,0.1,0.4,0.2,0.6,0.3
			c0.2,0.1,0.4,0.1,0.7,0.1c0.2,0,0.4,0,0.6,0.1c0.6,0,1.1,0,1.5,0c0.5,0,0.9,0,1.2-0.1c0-0.6-0.1-1.1-0.2-1.6
			c-0.1-0.5-0.2-1-0.4-1.4c-0.2-0.4-0.4-0.8-0.6-1.2c-0.2-0.4-0.4-0.7-0.7-0.9c-0.1-0.1-0.2-0.2-0.3-0.3c-0.1-0.1-0.2-0.2-0.4-0.3
			c-0.1-0.1-0.3-0.2-0.4-0.2C38,201,37.9,201,37.7,201z"/>
		<path d="M43.3,208.4c0-0.4,0.1-0.7,0.4-0.9c0.2-0.3,0.6-0.4,0.9-0.4h1c0.7,0,1.5,0,2.2-0.1c0.7-0.1,1.3-0.3,1.8-0.5
			c0.5-0.2,0.9-0.6,1.2-1c0.3-0.4,0.4-1,0.4-1.6c0-0.5-0.1-1-0.1-1.6c-0.1-0.5-0.2-1.2-0.4-1.8l2.5-0.7c0.1,0.3,0.2,0.6,0.2,1
			c0.1,0.3,0.1,0.7,0.2,1.1c0.1,0.4,0.1,0.7,0.1,1.1c0,0.4,0.1,0.7,0.1,1.1c0,0.3,0.1,0.7,0.1,1c0.1,0.4,0.2,0.7,0.3,1
			c0.2,0.3,0.4,0.6,0.7,0.8c0.3,0.2,0.6,0.3,1.1,0.3c0.4,0,0.7,0.1,1,0.4c0.3,0.2,0.4,0.6,0.4,0.9c0,0.2,0,0.4-0.1,0.5
			s-0.2,0.3-0.3,0.4c-0.1,0.1-0.3,0.2-0.4,0.3c-0.2,0.1-0.3,0.1-0.5,0.1c-0.9,0-1.6-0.2-2.2-0.5c-0.6-0.3-1.1-0.7-1.4-1.2
			c-0.3,0.3-0.7,0.6-1.2,0.8c-0.5,0.2-1.1,0.4-1.7,0.5c-0.6,0.1-1.3,0.2-1.9,0.3c-0.7,0.1-1.3,0.1-2,0.1h-1c-0.4,0-0.7-0.1-0.9-0.4
			C43.4,209.1,43.3,208.8,43.3,208.4z M48.9,214.8l-2.2,2.2l-2.2-2.2l2.2-2.2L48.9,214.8z M54.4,214.8l-2.2,2.2l-2.2-2.2l2.2-2.2
			L54.4,214.8z"/>
		<path d="M54.8,208.4c0-0.4,0.1-0.7,0.4-0.9c0.2-0.3,0.6-0.4,0.9-0.4h1c0.7,0,1.5,0,2.2-0.1c0.7-0.1,1.3-0.3,1.8-0.5
			c0.5-0.2,0.9-0.6,1.2-1c0.3-0.4,0.4-1,0.4-1.6c0-0.5-0.1-1-0.1-1.6c-0.1-0.5-0.2-1.2-0.4-1.8l2.5-0.7c0.1,0.3,0.2,0.6,0.2,1
			c0.1,0.3,0.1,0.7,0.2,1.1c0.1,0.4,0.1,0.7,0.1,1.1c0,0.4,0.1,0.7,0.1,1.1c0,0.3,0.1,0.7,0.1,1c0.1,0.4,0.2,0.7,0.3,1
			c0.2,0.3,0.4,0.6,0.7,0.8c0.3,0.2,0.6,0.3,1.1,0.3c0.4,0,0.7,0.1,1,0.4c0.3,0.2,0.4,0.6,0.4,0.9c0,0.2,0,0.4-0.1,0.5
			s-0.2,0.3-0.3,0.4c-0.1,0.1-0.3,0.2-0.4,0.3c-0.2,0.1-0.3,0.1-0.5,0.1c-0.9,0-1.6-0.2-2.2-0.5c-0.6-0.3-1.1-0.7-1.4-1.2
			c-0.3,0.3-0.7,0.6-1.2,0.8c-0.5,0.2-1.1,0.4-1.7,0.5c-0.6,0.1-1.3,0.2-1.9,0.3c-0.7,0.1-1.3,0.1-2,0.1h-1c-0.4,0-0.7-0.1-0.9-0.4
			C55,209.1,54.8,208.8,54.8,208.4z M58.2,211.6l2.2,2.2l-2.2,2.2l-2.2-2.2L58.2,211.6z M61.2,215.8l2,2l-2,2l-2-2L61.2,215.8z
			 M64.1,211.6l2.2,2.2L64,216l-2.2-2.2L64.1,211.6z"/>
		<path d="M66.4,208.4c0-0.4,0.1-0.7,0.4-0.9c0.3-0.2,0.6-0.4,0.9-0.4h0c0.8,0,1.4-0.1,1.9-0.4c0.5-0.2,1-0.6,1.4-1
			c0.4-0.4,0.7-0.9,1-1.4c0.3-0.5,0.6-1.1,0.8-1.6c0.2-0.5,0.5-0.9,0.7-1.4c0.2-0.4,0.5-0.8,0.8-1.2c0.8-1,1.8-1.5,2.9-1.5
			c1.3,0,2.5,0.5,3.4,1.6c0.7,0.9,1.1,1.9,1.3,3.2c0.1,0.6,0.1,1.2,0,1.8c-0.1,0.6-0.2,1.1-0.4,1.7c-0.3,0.6-0.6,1.2-1,1.6
			c-0.4,0.4-0.9,0.7-1.5,0.9c-1,0.3-2.1,0.1-3.4-0.4c-0.9-0.3-1.8-0.9-2.7-1.6c-0.1,0.1-0.1,0.1-0.1,0.1c-1.3,1.4-3,2.1-5.1,2.1h0
			c-0.4,0-0.7-0.1-0.9-0.4C66.6,209.1,66.4,208.8,66.4,208.4z M74.5,205.4c0.8,0.6,1.6,1,2.2,1.3c0.7,0.3,1.2,0.3,1.7,0.2
			c0.2,0,0.3-0.1,0.4-0.3c0.1-0.2,0.3-0.4,0.4-0.7c0.1-0.3,0.2-0.6,0.2-0.9c0-0.3,0-0.7,0-1.1c0-0.1,0-0.2-0.1-0.3
			c0-0.2-0.1-0.3-0.2-0.5c-0.1-0.2-0.2-0.4-0.3-0.6c-0.1-0.2-0.2-0.4-0.4-0.6c-0.1-0.2-0.3-0.3-0.5-0.4c-0.2-0.1-0.4-0.2-0.7-0.2
			c-0.2,0-0.3,0-0.5,0.2c-0.2,0.1-0.3,0.3-0.5,0.5s-0.3,0.5-0.5,0.8c-0.2,0.3-0.4,0.7-0.6,1.1L74.5,205.4z"/>
		<path d="M91.7,209.7c-1,0-1.8-0.1-2.5-0.3c-0.7-0.2-1.3-0.6-1.8-1.1c-0.3-0.3-0.5-0.6-0.7-1c-0.2-0.3-0.3-0.7-0.3-1
			c-0.1-0.3-0.1-0.6-0.1-0.9c0-0.3,0-0.6,0-0.8v-0.3c0,0,0-0.2,0-0.5c0-0.3,0-0.7,0-1.3c0-0.5,0-1.2,0-1.9c0-0.7,0-1.4,0-2.2
			c0-0.8,0-1.6,0-2.4c0-0.8,0-1.6-0.1-2.4s-0.1-1.5-0.1-2.2c-0.1-0.7-0.1-1.2-0.2-1.6l2.6-0.5c0.1,0.5,0.2,1,0.2,1.7
			c0.1,0.7,0.1,1.4,0.2,2.2c0,0.8,0.1,1.6,0.1,2.4c0,0.8,0,1.7,0,2.5c0,0.8,0,1.5,0,2.3c0,0.7,0,1.4,0,1.9c0,0.6,0,1,0,1.4
			c0,0.4,0,0.6,0,0.7v0.2c0,0.4,0,0.7,0,1c0,0.3,0.2,0.5,0.4,0.7c0.4,0.4,1.2,0.6,2.3,0.6h0.1c0.2,0,0.3,0,0.5,0.1
			c0.2,0.1,0.3,0.2,0.4,0.3c0.1,0.1,0.2,0.3,0.3,0.4c0.1,0.2,0.1,0.3,0.1,0.5c0,0.4-0.1,0.7-0.4,0.9
			C92.4,209.6,92.1,209.7,91.7,209.7z"/>
		<path d="M90.3,208.4c0-0.4,0.1-0.7,0.4-0.9c0.3-0.3,0.6-0.4,1-0.4h1.4c0.5,0,1.1,0,1.7,0c0.6,0,1.1-0.1,1.7-0.2
			c0.5-0.1,1-0.2,1.4-0.4c0.4-0.2,0.8-0.5,1-0.9c0.3-0.4,0.5-0.9,0.5-1.5c0-0.5,0-1.1-0.2-1.7c-0.1-0.4-0.3-0.8-0.7-1.4
			c-0.4-0.6-0.9-1.2-1.4-1.8c-0.6-0.6-1.2-1.3-1.9-2c-0.7-0.7-1.4-1.3-2.2-1.9l0.3-2.7l11-4.7l1,2.4l-9.6,4c0.4,0.4,0.9,0.8,1.4,1.3
			c0.5,0.5,1,1,1.5,1.5c0.7,0.8,1.2,1.5,1.7,2.2c0.4,0.7,0.8,1.3,1,1.9c0.2,0.6,0.4,1.2,0.5,1.7c0.1,0.5,0.1,1.1,0.1,1.5
			c0,0.5-0.1,0.9-0.3,1.3c-0.1,0.4-0.3,0.8-0.5,1.1c-0.8,1.4-2.1,2.3-4,2.6c-0.3,0.1-0.7,0.1-1.2,0.1h-4.3c-0.4,0-0.8-0.1-1-0.4
			C90.4,209.1,90.3,208.8,90.3,208.4z"/>
		<path d="M124.2,218.5c-0.8,0-1.6,0-2.4-0.1c-0.8-0.1-1.6-0.2-2.4-0.5c-0.8-0.2-1.5-0.6-2.1-1c-0.6-0.4-1.2-1-1.6-1.7
			c-1-1.4-1.4-3.2-1.3-5.5c0.1-1.2,0.3-2.6,0.7-4s0.9-3,1.6-4.7l2.4,1c-1.1,2.8-1.8,5.2-2,7.2c-0.2,2,0,3.5,0.8,4.6
			c0.4,0.5,0.8,0.9,1.4,1.2c0.5,0.3,1.1,0.5,1.7,0.6c0.6,0.1,1.2,0.2,1.7,0.2c0.6,0,1.1,0,1.5,0c0.3,0,0.6,0,1.1-0.1
			c0.5,0,1-0.1,1.5-0.2c0.6-0.1,1.1-0.2,1.7-0.4c0.6-0.2,1.1-0.4,1.6-0.6c0.5-0.2,0.9-0.5,1.1-0.9c0.3-0.3,0.4-0.7,0.4-1.2
			c0-0.1,0-0.2-0.1-0.4c-0.1-0.1-0.3-0.3-0.5-0.5c-0.2-0.2-0.5-0.3-0.9-0.5c-0.3-0.2-0.8-0.4-1.3-0.6c-0.3-0.1-0.6-0.2-0.9-0.3
			c-0.3-0.1-0.6-0.2-0.9-0.2c-0.3-0.1-0.5-0.1-0.7-0.2c-0.2-0.1-0.4-0.1-0.6-0.1l-0.3-0.1l0.2-2.6l10.3,0c0.4,0,0.7,0.1,0.9,0.4
			c0.3,0.2,0.4,0.6,0.4,0.9s-0.1,0.7-0.4,0.9c-0.3,0.2-0.6,0.4-0.9,0.4h-3.2c0.3,0.2,0.6,0.5,0.7,0.8c0.2,0.3,0.3,0.5,0.4,0.7
			c0.1,0.2,0.2,0.5,0.2,0.7c0,0.2,0.1,0.4,0.1,0.6c0,0.8-0.2,1.4-0.5,2c-0.3,0.6-0.8,1.1-1.3,1.5c-0.6,0.4-1.2,0.8-1.9,1.1
			c-0.7,0.3-1.4,0.5-2.2,0.7c-0.7,0.2-1.5,0.3-2.2,0.4S124.8,218.5,124.2,218.5z"/>
		<path d="M134.4,208.4c0-0.2,0-0.3,0.1-0.5s0.1-0.3,0.3-0.4c0.1-0.1,0.2-0.2,0.4-0.3c0.2-0.1,0.3-0.1,0.5-0.1c0.5,0,1-0.1,1.4-0.3
			c0.4-0.2,0.8-0.5,1.1-0.8c0.3-0.3,0.6-0.7,0.9-1.2c0.2-0.4,0.5-0.9,0.6-1.4c0.2-0.5,0.3-1,0.4-1.5c0.1-0.5,0.2-1,0.3-1.4l2.7,0.6
			c-0.1,0.2-0.2,0.5-0.3,0.8c-0.1,0.3-0.2,0.7-0.3,1.1c-0.1,0.4-0.2,0.8-0.3,1.2s-0.1,0.8-0.1,1.1c0,0.2,0,0.5,0.1,0.7
			c0,0.2,0.1,0.4,0.2,0.6c0.1,0.2,0.3,0.3,0.4,0.4c0.2,0.1,0.4,0.2,0.7,0.2c0.5,0,0.9-0.1,1.2-0.4c0.4-0.2,0.7-0.6,1-1
			c0.3-0.4,0.5-0.9,0.7-1.4c0.2-0.5,0.4-1,0.5-1.6c0.1-0.5,0.3-1,0.4-1.5c0.1-0.5,0.2-0.9,0.2-1.3l2.6,0.5c-0.1,0.6-0.2,1.1-0.2,1.5
			c-0.1,0.4-0.1,0.9-0.2,1.3c-0.1,0.5-0.1,0.9-0.1,1.3c0,0.3,0,0.6,0.1,0.9s0.1,0.6,0.2,0.8s0.3,0.4,0.4,0.6
			c0.2,0.1,0.4,0.2,0.7,0.3c0.4,0.1,0.8,0,1,0c0.3-0.1,0.5-0.1,0.6-0.2c0.2-0.1,0.3-0.2,0.4-0.3c0.1-0.1,0.1-0.2,0.2-0.3h0
			c0.1-0.2,0.2-0.4,0.3-0.7c0-0.2,0.1-0.5,0.1-0.8c0-0.5-0.1-1.1-0.2-1.6c-0.1-0.6-0.3-1.2-0.5-1.7c-0.2-0.6-0.4-1.1-0.6-1.6
			c-0.2-0.5-0.4-0.9-0.5-1.2l2.3-1.2c0,0.1,0.1,0.3,0.3,0.5c0.1,0.3,0.3,0.6,0.4,0.9c0.2,0.4,0.3,0.8,0.5,1.3c0.2,0.5,0.3,1,0.5,1.5
			c0.1,0.5,0.3,1,0.4,1.6c0.1,0.5,0.1,1.1,0.1,1.6c0,0.8-0.1,1.5-0.3,2.1c-0.2,0.6-0.5,1.2-1,1.6c-0.4,0.4-1,0.8-1.6,1
			c-0.6,0.2-1.4,0.3-2.3,0.3c-0.3,0-0.7-0.1-1-0.2c-0.3-0.1-0.7-0.3-1-0.4c-0.3-0.2-0.6-0.4-0.9-0.6c-0.3-0.2-0.5-0.5-0.7-0.8
			c-0.5,0.6-1.1,1.1-1.8,1.5c-0.7,0.4-1.4,0.6-2.2,0.6c-0.3,0-0.7,0-1-0.1c-0.4-0.1-0.7-0.2-1-0.4c-0.3-0.2-0.6-0.4-0.9-0.6
			c-0.3-0.2-0.5-0.5-0.6-0.9c-0.5,0.6-1.1,1-1.8,1.3c-0.7,0.3-1.5,0.5-2.4,0.5h-0.2c-0.2,0-0.3,0-0.5-0.1c-0.1-0.1-0.3-0.2-0.4-0.3
			c-0.1-0.1-0.2-0.3-0.3-0.4S134.4,208.6,134.4,208.4z"/>
		<path d="M165,209.7c-1,0-2-0.2-2.9-0.7c-0.9-0.4-1.7-1-2.5-1.8l1.5-2.1c0.5,0.5,1.1,0.9,1.6,1.2c0.5,0.3,1.1,0.5,1.6,0.6
			c0.5,0.1,1.1,0.1,1.6,0.1c0.5,0,1-0.2,1.5-0.4c0.5-0.2,0.8-0.4,1.1-0.6c0.3-0.2,0.5-0.4,0.7-0.5l-4.2-10.2l2.4-1
			c0.3,0.7,0.6,1.5,1,2.5c0.3,0.8,0.8,1.9,1.3,3.1c0.5,1.2,1.1,2.7,1.8,4.3c0.2,0.4,0.3,0.8,0.5,1.2c0.1,0.4,0.3,0.7,0.5,0.9
			c0.2,0.2,0.5,0.4,0.9,0.6c0.4,0.1,0.8,0.2,1.4,0.2c0.4,0,0.7,0.1,0.9,0.4c0.3,0.2,0.4,0.6,0.4,0.9s-0.1,0.7-0.4,0.9
			c-0.3,0.2-0.6,0.4-0.9,0.4c-0.6,0-1.1,0-1.5-0.1s-0.8-0.2-1.2-0.4c-0.3-0.2-0.6-0.3-0.9-0.6c-0.3-0.2-0.5-0.4-0.7-0.7
			c-0.3,0.2-0.6,0.4-0.9,0.6c-0.3,0.2-0.7,0.4-1.2,0.6c-0.5,0.2-1,0.3-1.6,0.4S165.6,209.7,165,209.7z"/>
		<path d="M173.5,208.4c0-0.4,0.1-0.7,0.4-0.9c0.3-0.3,0.6-0.4,0.9-0.4h0.2c1.5,0,2.6-0.3,3.3-0.8c0.7-0.5,1-1.3,1-2.4
			c0-0.2,0-0.5,0-0.8c0-0.3,0-0.5-0.1-0.8c0-0.3-0.1-0.6-0.2-0.9c-0.1-0.3-0.1-0.6-0.2-1l2.5-0.7c0.1,0.3,0.2,0.6,0.2,0.9
			c0.1,0.3,0.1,0.6,0.2,0.9c0,0.3,0.1,0.7,0.1,1c0,0.4,0.1,0.8,0.1,1.3c0,0.3,0.1,0.7,0.1,1c0.1,0.4,0.2,0.7,0.3,1
			c0.2,0.3,0.4,0.6,0.7,0.8c0.3,0.2,0.6,0.3,1.1,0.3c0.2,0,0.3,0,0.5,0.1c0.2,0.1,0.3,0.2,0.4,0.3c0.1,0.1,0.2,0.3,0.3,0.4
			c0.1,0.2,0.1,0.3,0.1,0.5c0,0.2,0,0.4-0.1,0.5s-0.2,0.3-0.3,0.4c-0.1,0.1-0.3,0.2-0.4,0.3c-0.2,0.1-0.3,0.1-0.5,0.1
			c-0.4,0-0.9,0-1.2-0.1c-0.4-0.1-0.7-0.2-1-0.3c-0.3-0.1-0.6-0.3-0.8-0.5s-0.4-0.4-0.6-0.7c-0.6,0.6-1.3,1-2.2,1.2
			c-0.9,0.3-2,0.4-3.3,0.4h-0.2c-0.4,0-0.7-0.1-0.9-0.4C173.6,209.1,173.5,208.8,173.5,208.4z M182.1,194.3l-2.2,2.2l-2.2-2.2
			l2.2-2.2L182.1,194.3z"/>
		<path d="M182.9,208.4c0-0.4,0.1-0.7,0.4-0.9c0.2-0.3,0.6-0.4,0.9-0.4h1.5c0-0.5,0-1.1,0.1-1.8c0.1-0.7,0.2-1.4,0.4-2.1
			c0.2-0.7,0.4-1.4,0.7-2.1c0.3-0.7,0.7-1.3,1.1-1.8c0.4-0.5,0.9-1,1.4-1.3c0.5-0.3,1.1-0.5,1.7-0.6c0.5,0,1,0.1,1.4,0.4
			s0.8,0.7,1.1,1.1c0.3,0.5,0.5,1,0.7,1.6c0.2,0.6,0.3,1.2,0.4,1.8c0.1,0.6,0.1,1.2,0,1.7c-0.1,0.5-0.2,1-0.4,1.4
			c-0.2,0.6-0.5,1.1-0.9,1.6c-0.4,0.5-0.8,0.8-1.3,1.2c-0.5,0.3-1,0.6-1.5,0.8c-0.6,0.2-1.1,0.4-1.7,0.5c0.1,0.3,0.2,0.6,0.4,1
			c0.2,0.4,0.4,0.7,0.6,1.1c0.2,0.4,0.5,0.7,0.7,1.1c0.3,0.3,0.5,0.6,0.8,0.7c0-0.6,0-1.1,0.1-1.6s0.4-1,0.6-1.5
			c0.3-0.5,0.6-0.9,1-1.3c0.4-0.4,0.8-0.7,1.3-1c0.5-0.3,1-0.5,1.5-0.6c0.5-0.2,1-0.2,1.5-0.2c0.4,0,0.7,0.1,0.9,0.4
			c0.3,0.3,0.4,0.6,0.4,0.9c0,0.4-0.1,0.7-0.4,0.9c-0.3,0.2-0.6,0.4-0.9,0.4h-0.1c-0.5,0-1,0.1-1.4,0.4c-0.4,0.2-0.8,0.5-1.2,0.9
			c-0.3,0.4-0.6,0.8-0.8,1.2c-0.2,0.5-0.3,0.9-0.4,1.4c0,0.5,0,1,0.2,1.5c0.2,0.5,0.5,0.9,0.9,1.3l-1.7,2c-0.9-0.6-1.8-1.2-2.5-1.9
			s-1.4-1.4-2-2.1c-0.6-0.7-1-1.5-1.4-2.2c-0.4-0.8-0.7-1.5-1-2.3l-0.1-0.3h-2c-0.4,0-0.7-0.1-0.9-0.4
			C183,209.1,182.9,208.8,182.9,208.4z M191.1,200.3c-0.2,0-0.5,0.2-0.7,0.4c-0.3,0.2-0.5,0.5-0.7,0.9c-0.2,0.4-0.4,0.8-0.6,1.3
			c-0.2,0.5-0.3,0.9-0.4,1.4c-0.1,0.5-0.2,1-0.2,1.4c0,0.5,0,0.9,0,1.3c0.6,0.1,1.1,0,1.6-0.2s0.9-0.5,1.2-0.9
			c0.3-0.4,0.6-0.9,0.8-1.4c0.2-0.5,0.3-1,0.3-1.5c0-0.5-0.1-1-0.3-1.5C191.7,201,191.5,200.6,191.1,200.3z"/>
		<path d="M196.4,208.4c0-0.4,0.1-0.7,0.4-0.9c0.3-0.2,0.6-0.4,0.9-0.4h0c0.8,0,1.4-0.1,1.9-0.4c0.5-0.2,1-0.6,1.4-1
			c0.4-0.4,0.7-0.9,1-1.4c0.3-0.5,0.6-1.1,0.8-1.6c0.2-0.5,0.5-0.9,0.7-1.4c0.2-0.4,0.5-0.8,0.8-1.2c0.8-1,1.8-1.5,2.9-1.5
			c1.3,0,2.5,0.5,3.4,1.6c0.7,0.9,1.1,1.9,1.3,3.2c0.1,0.6,0.1,1.2,0,1.8c-0.1,0.6-0.2,1.1-0.4,1.7c-0.3,0.6-0.6,1.2-1,1.6
			c-0.4,0.4-0.9,0.7-1.5,0.9c-1,0.3-2.1,0.1-3.4-0.4c-0.9-0.3-1.8-0.9-2.7-1.6c-0.1,0.1-0.1,0.1-0.1,0.1c-1.3,1.4-3,2.1-5.1,2.1h0
			c-0.4,0-0.7-0.1-0.9-0.4C196.5,209.1,196.4,208.8,196.4,208.4z M204.4,205.4c0.8,0.6,1.6,1,2.2,1.3c0.7,0.3,1.2,0.3,1.7,0.2
			c0.2,0,0.3-0.1,0.4-0.3c0.1-0.2,0.3-0.4,0.4-0.7c0.1-0.3,0.2-0.6,0.2-0.9c0-0.3,0-0.7,0-1.1c0-0.1,0-0.2-0.1-0.3
			c0-0.2-0.1-0.3-0.2-0.5c-0.1-0.2-0.2-0.4-0.3-0.6c-0.1-0.2-0.2-0.4-0.4-0.6c-0.1-0.2-0.3-0.3-0.5-0.4c-0.2-0.1-0.4-0.2-0.7-0.2
			c-0.2,0-0.3,0-0.5,0.2c-0.2,0.1-0.3,0.3-0.5,0.5s-0.3,0.5-0.5,0.8c-0.2,0.3-0.4,0.7-0.6,1.1L204.4,205.4z"/>
		<path d="M230.1,209.7c0,0-0.2,0-0.3,0s-0.4,0-0.6-0.1c-0.3,0-0.6-0.1-0.9-0.2s-0.7-0.2-1-0.4c-0.8-0.4-1.5-0.9-1.9-1.6
			s-0.7-1.5-0.7-2.4c0-1.6,0.7-3.3,2.2-5c0.3-0.3,0.6-0.7,0.9-0.9c0.3-0.3,0.5-0.5,0.7-0.7c-0.3-0.2-0.5-0.4-0.6-0.6
			c-0.2-0.1-0.2-0.2-0.2-0.2l1.7-2.1c0,0,0.1,0.1,0.3,0.3c0.2,0.2,0.4,0.4,0.7,0.6c0.3,0.3,0.6,0.6,1,0.9c0.4,0.4,0.7,0.8,1.1,1.2
			c1.1,1.2,1.9,2.4,2.4,3.5c0.5,1.1,0.8,2.1,0.8,3s-0.2,1.7-0.6,2.4s-1,1.2-1.8,1.6c-0.3,0.1-0.6,0.3-0.9,0.3
			c-0.3,0.1-0.6,0.2-0.8,0.2c-0.3,0-0.5,0.1-0.8,0.1C230.4,209.7,230.2,209.7,230.1,209.7z M230.2,200.3c-0.3,0.2-0.6,0.5-0.9,0.9
			c-0.3,0.4-0.7,0.8-1,1.2c-0.3,0.4-0.6,0.9-0.8,1.3c-0.2,0.5-0.3,0.9-0.3,1.4c0,0.1,0,0.3,0,0.4s0.1,0.3,0.1,0.4
			c0.1,0.1,0.2,0.3,0.3,0.4c0.1,0.1,0.3,0.3,0.6,0.4c0.2,0.1,0.3,0.1,0.5,0.2c0.2,0,0.3,0.1,0.5,0.1c0.1,0,0.3,0,0.4,0.1
			c0.1,0,0.2,0,0.3,0c0.1,0,0.2,0,0.3,0c0.1,0,0.3,0,0.5,0c0.2,0,0.4-0.1,0.5-0.1c0.2,0,0.4-0.1,0.5-0.2c0.3-0.2,0.6-0.4,0.7-0.6
			c0.1-0.3,0.2-0.6,0.2-1c0-0.6-0.2-1.3-0.7-2.1C231.8,202.2,231.1,201.3,230.2,200.3C230.3,200.3,230.3,200.3,230.2,200.3
			C230.3,200.3,230.3,200.3,230.2,200.3z"/>
		<path d="M244,209.7c-1,0-2-0.2-2.9-0.7c-0.9-0.4-1.7-1-2.5-1.8l1.5-2.1c0.5,0.5,1.1,0.9,1.6,1.2c0.5,0.3,1.1,0.5,1.6,0.6
			c0.5,0.1,1.1,0.1,1.6,0.1c0.5,0,1-0.2,1.5-0.4c0.5-0.2,0.8-0.4,1.1-0.6c0.3-0.2,0.5-0.4,0.7-0.5l-4.2-10.2l2.4-1
			c0.3,0.7,0.6,1.5,1,2.5c0.3,0.8,0.8,1.9,1.3,3.1s1.1,2.7,1.8,4.3c0.2,0.4,0.3,0.8,0.5,1.2c0.1,0.4,0.3,0.7,0.5,0.9
			c0.2,0.2,0.5,0.4,0.9,0.6c0.4,0.1,0.8,0.2,1.4,0.2c0.4,0,0.7,0.1,0.9,0.4c0.3,0.2,0.4,0.6,0.4,0.9s-0.1,0.7-0.4,0.9
			c-0.3,0.2-0.6,0.4-0.9,0.4c-0.6,0-1.1,0-1.5-0.1s-0.8-0.2-1.2-0.4c-0.3-0.2-0.6-0.3-0.9-0.6c-0.3-0.2-0.5-0.4-0.7-0.7
			c-0.3,0.2-0.6,0.4-0.9,0.6c-0.3,0.2-0.7,0.4-1.2,0.6c-0.5,0.2-1,0.3-1.6,0.4S244.6,209.7,244,209.7z"/>
		<path d="M252.4,208.4c0-0.2,0-0.3,0.1-0.5c0.1-0.2,0.2-0.3,0.3-0.4c0.1-0.1,0.3-0.2,0.4-0.3c0.2-0.1,0.3-0.1,0.5-0.1h0.1h4.4
			c0.4,0,0.7-0.1,1.1-0.2c0.4-0.1,0.7-0.3,1-0.6c0.3-0.2,0.5-0.5,0.7-0.8c0.2-0.3,0.3-0.6,0.3-0.9c0-0.5,0-1-0.2-1.6
			c-0.2-0.6-0.4-1.1-0.7-1.7c-0.3-0.6-0.7-1.1-1.1-1.7c-0.4-0.6-0.9-1.1-1.3-1.6c-0.5-0.5-0.9-1-1.4-1.4c-0.5-0.4-0.9-0.8-1.3-1.1
			l0.3-3l11.8-5.1l1,2.4l-10.6,4.5c0.7,0.5,1.3,1.1,1.8,1.6c0.5,0.5,1,1.1,1.4,1.7c0.4,0.6,0.8,1.1,1.1,1.7c0.3,0.6,0.6,1.1,0.9,1.7
			c0.3,0.6,0.6,1.1,0.9,1.7c0.3,0.6,0.6,1.1,1,1.7c0.3,0.4,0.5,0.8,0.8,1.2c0.3,0.3,0.6,0.6,1,0.9c0.3,0.2,0.7,0.4,1.1,0.6
			c0.4,0.1,0.9,0.2,1.4,0.2h0.6c0.4,0,0.7,0.1,0.9,0.4c0.2,0.3,0.4,0.6,0.4,0.9c0,0.4-0.1,0.7-0.4,0.9c-0.2,0.2-0.6,0.4-0.9,0.4
			h-0.1c-0.6,0-1.2,0-1.7-0.1c-0.5-0.1-1-0.2-1.4-0.3c-0.6-0.2-1.2-0.6-1.8-1c-0.5-0.4-1-0.9-1.4-1.4c-0.3,0.6-0.7,1.1-1.2,1.5
			c-0.3,0.3-0.6,0.5-0.9,0.7c-0.3,0.2-0.7,0.3-1,0.4c-0.4,0.1-0.7,0.2-1.1,0.2c-0.4,0.1-0.7,0.1-1.1,0.1h-4.4
			c-0.4,0-0.7-0.1-0.9-0.4C252.6,209.1,252.4,208.8,252.4,208.4z"/>
		<path d="M268.6,208.4c0-0.2,0-0.3,0.1-0.5c0.1-0.2,0.2-0.3,0.3-0.4c0.1-0.1,0.3-0.2,0.4-0.3c0.2-0.1,0.3-0.1,0.5-0.1h0.1
			c0.4,0,0.7-0.1,1.1-0.3c0.3-0.2,0.7-0.5,1-0.8c0.3-0.3,0.6-0.7,0.8-1c0.2-0.4,0.5-0.8,0.7-1.1c0.2-0.4,0.4-0.7,0.5-1.1
			c0.1-0.4,0.3-0.7,0.4-1s0.2-0.6,0.3-0.8c0.1-0.2,0.1-0.4,0.2-0.6c0-0.2,0.1-0.3,0.1-0.3l2.6,0.7c0,0,0,0,0,0.1
			c0,0.1,0,0.1-0.1,0.2c-0.1,0.2-0.1,0.5-0.2,0.9c-0.1,0.4-0.2,0.8-0.2,1.3c-0.1,0.8-0.1,1.5-0.1,2c0.1,0.6,0.2,1,0.4,1.3
			c0.1,0.2,0.3,0.4,0.6,0.4c0.1,0,0.2,0,0.3,0c0.3,0,0.7-0.1,1-0.3c0.4-0.3,0.8-0.8,1.2-1.4c0.4-0.7,0.7-1.5,1-2.4
			c0.2-0.4,0.3-0.9,0.4-1.2c0.1-0.4,0.2-0.7,0.2-1c0-0.2,0.1-0.4,0.1-0.5c0-0.1,0-0.2,0-0.2l2.6,0.5c0,0,0,0.1-0.1,0.2
			c0,0.1,0,0.3-0.1,0.5c0,0.2-0.1,0.5-0.1,0.8c0,0.3-0.1,0.7-0.1,1.1c0,0.8,0,1.5,0.1,2.1c0.1,0.6,0.3,1.1,0.5,1.4
			c0.1,0.1,0.2,0.2,0.4,0.3c0.2,0.1,0.4,0.1,0.7,0.1c0.5,0,0.8-0.2,1.1-0.5c0.3-0.3,0.5-0.8,0.7-1.5c0.2-0.6,0.3-1.4,0.4-2.3
			c0-0.4,0-0.8,0-1.1c0-0.3,0-0.6,0-0.9c0-0.2,0-0.4,0-0.5c0-0.1,0-0.2,0-0.2l2.6-0.2c0,0,0,0.3,0.1,0.7c0,0.2,0.1,0.4,0.1,0.6
			c0,0.2,0.1,0.5,0.1,0.8c0.1,0.3,0.1,0.6,0.2,0.9s0.2,0.6,0.3,0.9c0.7,2.2,1.7,3.3,3,3.3h0.2h0.1c0.4,0,0.7,0.1,0.9,0.4
			c0.2,0.2,0.4,0.6,0.4,0.9c0,0.4-0.1,0.7-0.4,0.9c-0.2,0.3-0.6,0.4-0.9,0.4h-0.1h-0.2c-0.7,0-1.4-0.1-2-0.4
			c-0.6-0.3-1.2-0.7-1.7-1.3c-0.2-0.3-0.5-0.6-0.7-1c-0.2,0.6-0.5,1-0.9,1.4c-0.4,0.5-0.9,0.8-1.4,1s-1.1,0.4-1.7,0.4
			c-0.7,0-1.3-0.1-1.8-0.4c-0.5-0.3-1-0.6-1.4-1.1c-0.1-0.2-0.2-0.3-0.3-0.5c-0.1-0.2-0.2-0.4-0.3-0.6c-0.5,0.7-1,1.3-1.6,1.8
			c-0.8,0.6-1.6,0.8-2.5,0.8c-0.1,0-0.2,0-0.4,0c-0.1,0-0.2,0-0.4,0c-1.1-0.2-1.9-0.7-2.4-1.6c-0.1-0.2-0.2-0.3-0.2-0.5
			s-0.1-0.3-0.2-0.5c-0.3,0.4-0.6,0.7-0.9,1c-1.1,1.1-2.3,1.6-3.7,1.6h-0.1c-0.2,0-0.3,0-0.5-0.1c-0.2-0.1-0.3-0.2-0.4-0.3
			c-0.1-0.1-0.2-0.3-0.3-0.4C268.6,208.8,268.6,208.6,268.6,208.4z M278.3,194.2l2.2-2.2l2.2,2.2l-2.2,2.2L278.3,194.2z
			 M281.6,190.2l2-2l2,2l-2,2L281.6,190.2z M284.2,194.2l2.2-2.2l2.2,2.2l-2.2,2.2L284.2,194.2z"/>
		<path d="M293.7,208.4c0-0.4,0.1-0.7,0.4-0.9c0.3-0.2,0.6-0.4,0.9-0.4h1.4c0.5,0,0.9,0,1.4,0c0.4,0,0.8-0.1,1.2-0.2
			c0.4-0.1,0.7-0.3,1-0.5c0.3-0.2,0.5-0.5,0.7-0.9c0.2-0.4,0.2-0.9,0.2-1.6c-0.1-0.7-0.3-1.5-0.5-2.5c-0.1-0.3-0.2-0.6-0.3-0.9
			c-0.1-0.3-0.3-0.6-0.4-0.9c-0.1-0.3-0.3-0.7-0.4-1l2.4-1.2c0,0,0,0.1,0.1,0.3c0.1,0.2,0.2,0.4,0.3,0.7c0.1,0.3,0.3,0.6,0.4,1
			c0.2,0.4,0.3,0.8,0.4,1.2c0.8,2.6,0.9,4.6,0.3,6c-0.6,1.4-1.8,2.4-3.4,2.8c-0.5,0.1-1,0.2-1.4,0.3c-0.5,0-0.9,0-1.3,0h-1.8H295
			c-0.4,0-0.7-0.1-0.9-0.4C293.8,209.1,293.7,208.8,293.7,208.4z M301.7,193l-2.2,2.2l-2.2-2.2l2.2-2.2L301.7,193z"/>
		<path d="M307.2,209.7c0.1-2,0.2-3.9,0.2-5.8c0-1.8,0-3.5,0-5c0-1.5-0.1-2.9-0.2-4.1c-0.1-1.2-0.2-2.3-0.2-3.1
			c-0.1-0.9-0.1-1.5-0.2-2c-0.1-0.5-0.1-0.7-0.1-0.7l2.6-0.4c0,0.1,0.1,0.6,0.2,1.6c0.1,0.5,0.1,1.1,0.2,1.7c0,0.6,0.1,1.2,0.1,1.9
			c0,0.7,0.1,1.3,0.1,1.9s0,1.2,0.1,1.8c0.1,1.6,0.1,3.5,0.1,5.6c0,2.1-0.1,4.4-0.3,6.8L307.2,209.7z"/>
		<path d="M319,209.7c-0.4,0-0.9-0.1-1.5-0.2c-0.6-0.1-1.2-0.2-1.7-0.4c-0.6-0.2-1.1-0.3-1.6-0.6c-0.5-0.2-0.8-0.4-1.1-0.6l1.1-2.5
			c0.3,0.2,0.7,0.4,1.2,0.6c0.5,0.2,1,0.4,1.5,0.5c0.5,0.1,1.1,0.3,1.6,0.3c0.6,0.1,1.1,0.1,1.6,0c0.5,0,1-0.2,1.4-0.3
			c0.4-0.2,0.8-0.4,1.1-0.8c0.2-0.3,0.3-0.8,0.1-1.6c-0.1-0.4-0.3-0.9-0.5-1.4c-0.2-0.5-0.5-1-0.8-1.4c-0.3-0.5-0.7-0.9-1-1.4
			c-0.4-0.5-0.8-0.9-1.2-1.3c-0.4-0.4-0.8-0.7-1.2-1c-0.4-0.3-0.8-0.5-1.2-0.7l1.1-2.4c0.5,0.2,1.1,0.6,1.6,0.9
			c0.5,0.4,1.1,0.8,1.6,1.3c0.5,0.5,1,1,1.4,1.6c0.5,0.6,0.9,1.1,1.3,1.7c0.4,0.6,0.7,1.2,1,1.8c0.3,0.6,0.5,1.2,0.6,1.8
			c0.1,0.5,0.2,1,0.2,1.4c0,0.4,0,0.8-0.1,1.1c-0.1,0.3-0.2,0.6-0.3,0.8c-0.1,0.2-0.3,0.4-0.4,0.6c-0.8,1-2,1.6-3.4,2
			c-0.3,0.1-0.7,0.2-1.1,0.2C319.8,209.7,319.4,209.7,319,209.7z"/>
		<path d="M348.2,218.5c-0.8,0-1.6,0-2.4-0.1c-0.8-0.1-1.6-0.2-2.4-0.5c-0.8-0.2-1.5-0.6-2.1-1c-0.6-0.4-1.2-1-1.6-1.7
			c-1-1.4-1.4-3.2-1.3-5.5c0.1-1.2,0.3-2.6,0.7-4c0.4-1.4,0.9-3,1.6-4.7l2.4,1c-1.1,2.8-1.8,5.2-2,7.2c-0.2,2,0,3.5,0.8,4.6
			c0.4,0.5,0.8,0.9,1.4,1.2c0.5,0.3,1.1,0.5,1.7,0.6c0.6,0.1,1.2,0.2,1.7,0.2c0.6,0,1.1,0,1.5,0c0.3,0,0.6,0,1.1-0.1
			c0.5,0,1-0.1,1.5-0.2c0.6-0.1,1.1-0.2,1.7-0.4c0.6-0.2,1.1-0.4,1.6-0.6c0.5-0.2,0.9-0.5,1.1-0.9c0.3-0.3,0.4-0.7,0.4-1.2
			c0-0.1,0-0.2-0.1-0.4c-0.1-0.1-0.3-0.3-0.5-0.5c-0.2-0.2-0.5-0.3-0.9-0.5c-0.3-0.2-0.8-0.4-1.3-0.6c-0.3-0.1-0.6-0.2-0.9-0.3
			c-0.3-0.1-0.6-0.2-0.9-0.2c-0.3-0.1-0.5-0.1-0.7-0.2c-0.2-0.1-0.4-0.1-0.6-0.1l-0.3-0.1l0.2-2.6l10.3,0c0.4,0,0.7,0.1,0.9,0.4
			s0.4,0.6,0.4,0.9s-0.1,0.7-0.4,0.9c-0.3,0.2-0.6,0.4-0.9,0.4h-3.2c0.3,0.2,0.6,0.5,0.7,0.8c0.2,0.3,0.3,0.5,0.4,0.7
			c0.1,0.2,0.2,0.5,0.2,0.7c0,0.2,0.1,0.4,0.1,0.6c0,0.8-0.2,1.4-0.5,2c-0.3,0.6-0.8,1.1-1.3,1.5c-0.6,0.4-1.2,0.8-1.9,1.1
			c-0.7,0.3-1.4,0.5-2.2,0.7c-0.7,0.2-1.5,0.3-2.2,0.4C349.5,218.4,348.8,218.5,348.2,218.5z"/>
		<path d="M358.4,208.4c0-0.2,0-0.4,0.1-0.5c0.1-0.2,0.2-0.3,0.3-0.4c0.1-0.1,0.3-0.2,0.4-0.3c0.2-0.1,0.3-0.1,0.5-0.1h0
			c0.6,0,1.1-0.1,1.6-0.4c0.5-0.2,0.9-0.6,1.2-0.9c0.4-0.4,0.7-0.8,1-1.3c0.3-0.5,0.6-1,0.8-1.5c0.3-0.5,0.5-1,0.8-1.5
			c0.2-0.5,0.5-0.9,0.8-1.3c0.4-0.5,0.8-0.8,1.3-1.1c0.5-0.3,1-0.4,1.6-0.4c0.7,0,1.3,0.1,1.8,0.4c0.5,0.3,1,0.7,1.5,1.2
			c0.3,0.4,0.6,0.8,0.8,1.2c0.2,0.4,0.4,0.9,0.6,1.4c0.2,0.5,0.4,0.9,0.5,1.4c0.2,0.4,0.4,0.9,0.6,1.2c0.2,0.4,0.5,0.7,0.7,0.9
			c0.3,0.3,0.6,0.4,1,0.5c0.2,0,0.3,0.1,0.4,0.1c0.1,0,0.3,0,0.4,0c0.4,0,0.7,0.1,1,0.4c0.3,0.3,0.4,0.6,0.4,1
			c0,0.4-0.1,0.7-0.4,0.9c-0.3,0.2-0.6,0.4-1,0.4c-0.6,0-1.1-0.1-1.5-0.2c-0.5-0.2-0.9-0.3-1.2-0.6s-0.7-0.5-1-0.8
			c-0.3-0.3-0.5-0.6-0.7-0.8c-0.2,0.5-0.5,0.9-0.8,1.3c-0.3,0.4-0.8,0.7-1.4,0.9c-0.4,0.2-1,0.2-1.6,0.1c-0.6-0.1-1.3-0.2-1.9-0.5
			c-0.4-0.2-0.9-0.4-1.3-0.7c-0.4-0.3-0.9-0.6-1.4-0.9l-0.1,0.1l-0.1,0.1c-0.3,0.3-0.7,0.6-1,0.9c-0.3,0.2-0.7,0.5-1,0.6
			s-0.7,0.3-1.1,0.4s-0.8,0.1-1.3,0.1h-0.2c-0.4,0-0.7-0.1-0.9-0.4C358.5,209.1,358.4,208.8,358.4,208.4z M366,205.4
			c0.4,0.3,0.7,0.5,1,0.7c0.3,0.2,0.7,0.4,1,0.5c0.3,0.1,0.6,0.2,0.9,0.3s0.5,0.1,0.7,0c0.2-0.1,0.5-0.2,0.7-0.4
			c0.2-0.2,0.4-0.4,0.5-0.7c0.1-0.3,0.2-0.6,0.3-0.9c0.1-0.3,0.1-0.7,0-1.1c0-0.1,0-0.2-0.1-0.3c0-0.2-0.1-0.3-0.2-0.5
			c-0.1-0.2-0.2-0.4-0.3-0.6c-0.1-0.2-0.3-0.4-0.4-0.6c-0.2-0.2-0.4-0.3-0.6-0.4c-0.2-0.1-0.5-0.2-0.7-0.2c-0.3,0-0.5,0.1-0.7,0.3
			c-0.2,0.2-0.4,0.5-0.6,0.9c-0.2,0.4-0.4,0.8-0.7,1.4c-0.1,0.2-0.2,0.5-0.3,0.7C366.2,204.9,366.1,205.1,366,205.4z"/>
		<path d="M375.8,208.4c0-0.4,0.1-0.7,0.4-0.9c0.3-0.3,0.6-0.4,0.9-0.4h0.1h1.2c0.3,0,0.5,0,0.7,0c0.2,0,0.3,0,0.5-0.1
			c0.1,0,0.2-0.1,0.3-0.1c0.1,0,0.2-0.1,0.2-0.1c0.1-0.1,0.2-0.2,0.3-0.4c0.1-0.2,0.2-0.3,0.2-0.6c0.1-0.2,0.1-0.4,0.1-0.7
			s0-0.5,0.1-0.7c0,0,0-0.2,0-0.5c0-0.3,0-0.8,0-1.4c0-0.6,0-1.2,0-2c0-0.8,0-1.5,0-2.4c0-0.8,0-1.7,0-2.5c0-0.9,0-1.7,0-2.5
			c0-0.8,0-1.5-0.1-2.2c0-0.7-0.1-1.2-0.1-1.6l2.6-0.3c0.1,0.5,0.1,1,0.1,1.7c0,0.7,0.1,1.4,0.1,2.2c0,0.8,0,1.6,0,2.4
			c0,0.9,0,1.7,0,2.5c0,0.8,0,1.6,0,2.4c0,0.8,0,1.4,0,2c0,0.6,0,1.1,0,1.5c0,0.4,0,0.6,0,0.7c0,0.2,0,0.5,0.1,0.8
			c0,0.3,0.2,0.6,0.3,0.9c0.2,0.3,0.4,0.5,0.7,0.7c0.3,0.2,0.8,0.3,1.4,0.3c0.2,0,0.4,0,0.5,0.1c0.2,0.1,0.3,0.2,0.4,0.3
			c0.1,0.1,0.2,0.3,0.3,0.4c0.1,0.2,0.1,0.3,0.1,0.5c0,0.4-0.1,0.7-0.4,0.9c-0.3,0.2-0.6,0.4-1,0.4c-0.4,0-0.9,0-1.2-0.1
			c-0.4-0.1-0.7-0.2-1-0.3c-0.3-0.1-0.6-0.3-0.8-0.4c-0.2-0.2-0.4-0.3-0.6-0.5c-0.1,0.1-0.2,0.2-0.3,0.3c-0.1,0.1-0.2,0.1-0.3,0.2
			c-0.2,0.2-0.5,0.4-0.8,0.5c-0.3,0.1-0.5,0.2-0.8,0.3c-0.3,0.1-0.5,0.1-0.8,0.1c-0.3,0-0.5,0-0.7,0h-1.5h-0.1
			c-0.4,0-0.7-0.1-0.9-0.4C375.9,209.1,375.8,208.8,375.8,208.4z"/>
		<path d="M397.7,201.6c-0.3-0.3-0.7-0.6-1.1-0.9c-0.3-0.2-0.8-0.4-1.2-0.6c-0.5-0.2-1-0.3-1.6-0.3c-0.5,0-1,0.1-1.4,0.3
			c-0.4,0.2-0.7,0.4-1,0.7c-0.3,0.3-0.5,0.6-0.6,1c-0.1,0.4-0.2,0.8-0.2,1.2c0,0.6,0.1,1.1,0.4,1.5c0.2,0.5,0.6,0.8,1,1.2
			c0.4,0.3,0.9,0.6,1.4,0.7c0.5,0.2,1.1,0.2,1.7,0.2c0.5,0,1-0.1,1.5-0.1c0.5-0.1,0.9-0.1,1.3-0.2c0.4-0.1,0.9-0.2,1.2-0.2l0.3,2.5
			c-0.5,0.1-1.1,0.3-1.7,0.4s-1.4,0.3-2.2,0.4c-0.9,0.1-1.8,0.2-2.9,0.3c-1.1,0.1-2.4,0.1-3.8,0.1l-2.9,0c-0.4,0-0.7-0.1-1-0.4
			c-0.3-0.3-0.4-0.6-0.4-0.9s0.1-0.7,0.4-0.9c0.3-0.2,0.6-0.4,1-0.4l3.8,0c-0.7-0.6-1.1-1.2-1.4-1.9c-0.3-0.7-0.4-1.4-0.4-2.2
			c0-0.8,0.1-1.5,0.4-2.2s0.7-1.3,1.2-1.8s1.1-0.9,1.8-1.3c0.7-0.3,1.5-0.5,2.3-0.5c0.4,0,0.8,0,1.2,0.1c0.4,0.1,0.7,0.2,1.1,0.3
			c0.3,0.1,0.7,0.2,1,0.4c0.3,0.1,0.6,0.3,0.8,0.4c0.6,0.4,1.1,0.8,1.5,1.2L397.7,201.6z"/>
		<path d="M435,209.7c-1.2,0-2.3-0.3-3.2-0.8c0,0.7,0,1.4-0.1,2.1c-0.1,0.7-0.2,1.4-0.4,2.1c-0.3,0.8-0.6,1.6-1.2,2.3
			c-0.5,0.7-1.1,1.3-1.9,1.7c-0.8,0.6-1.7,1-2.8,1.3c-1,0.3-2.2,0.5-3.5,0.5h-0.5c-1.2,0-2.2-0.2-3.2-0.5c-1-0.3-1.8-0.8-2.6-1.5
			c-0.7-0.6-1.3-1.3-1.7-2.2c-0.4-0.8-0.7-1.8-0.9-2.7c-0.1-0.5-0.1-1.1-0.1-1.6c0-0.5,0-1.1,0.1-1.6c0.1-0.5,0.1-1,0.2-1.4
			c0.1-0.5,0.2-0.9,0.3-1.2c0.3-0.9,0.6-1.7,0.9-2.3c0.3-0.6,0.6-1.1,0.8-1.4l2.1,1.6c-0.1,0.2-0.3,0.4-0.4,0.7
			c-0.2,0.3-0.3,0.7-0.5,1.1c-0.2,0.4-0.3,0.8-0.4,1.3c-0.1,0.5-0.3,1-0.4,1.5c-0.1,0.5-0.2,1.1-0.2,1.6c0,0.5,0,1.1,0.1,1.6
			c0,0.2,0.1,0.5,0.2,0.8c0.1,0.3,0.2,0.7,0.4,1c0.2,0.3,0.4,0.7,0.7,1c0.3,0.3,0.6,0.6,1,0.9c0.4,0.3,0.9,0.5,1.5,0.6
			c0.6,0.2,1.2,0.2,2,0.2h0.2c0,0,0.1,0,0.1,0c0,0,0.1,0,0.1,0c1.9-0.1,3.4-0.5,4.6-1.1c1.2-0.7,1.9-1.6,2.3-2.8
			c0.2-0.8,0.4-1.5,0.4-2.3c0-0.8,0-1.5-0.2-2.2c-0.1-0.7-0.3-1.4-0.5-2s-0.4-1.1-0.6-1.6c-0.1-0.2-0.2-0.4-0.3-0.5
			c-0.1-0.2-0.2-0.4-0.3-0.6c-0.1-0.1-0.1-0.2-0.2-0.3c-0.1-0.1-0.1-0.1-0.1-0.1l2.2-1.4c0,0,0.1,0.2,0.3,0.5
			c0.2,0.3,0.4,0.8,0.6,1.3c0.5,0.9,1,1.7,1.4,2.2c0.4,0.5,0.8,1,1.2,1.2c0.4,0.3,0.8,0.5,1.1,0.5c0.3,0.1,0.7,0.1,1,0.1
			c0.4,0,0.7,0.1,0.9,0.4c0.3,0.2,0.4,0.6,0.4,0.9c0,0.4-0.1,0.7-0.4,0.9C435.6,209.6,435.3,209.7,435,209.7z M424.6,202l-2.2,2.2
			l-2.2-2.2l2.2-2.2L424.6,202z"/>
		<path d="M433.6,208.4c0-0.2,0-0.4,0.1-0.5c0.1-0.2,0.2-0.3,0.3-0.4c0.1-0.1,0.3-0.2,0.4-0.3c0.2-0.1,0.3-0.1,0.5-0.1h0
			c0.6,0,1.1-0.1,1.6-0.4c0.5-0.2,0.9-0.6,1.2-0.9c0.4-0.4,0.7-0.8,1-1.3c0.3-0.5,0.6-1,0.8-1.5s0.5-1,0.8-1.5
			c0.2-0.5,0.5-0.9,0.8-1.3c0.4-0.5,0.8-0.8,1.3-1.1c0.5-0.3,1-0.4,1.6-0.4c0.7,0,1.3,0.1,1.8,0.4s1,0.7,1.5,1.2
			c0.3,0.4,0.6,0.8,0.8,1.2c0.2,0.4,0.4,0.9,0.6,1.4c0.2,0.5,0.4,0.9,0.5,1.4c0.2,0.4,0.4,0.9,0.6,1.2c0.2,0.4,0.5,0.7,0.7,0.9
			c0.3,0.3,0.6,0.4,1,0.5c0.2,0,0.3,0.1,0.4,0.1c0.1,0,0.3,0,0.4,0c0.4,0,0.7,0.1,1,0.4c0.3,0.3,0.4,0.6,0.4,1
			c0,0.4-0.1,0.7-0.4,0.9s-0.6,0.4-1,0.4c-0.6,0-1.1-0.1-1.5-0.2c-0.5-0.2-0.9-0.3-1.2-0.6c-0.4-0.2-0.7-0.5-1-0.8
			c-0.3-0.3-0.5-0.6-0.7-0.8c-0.2,0.5-0.5,0.9-0.8,1.3c-0.3,0.4-0.8,0.7-1.4,0.9c-0.4,0.2-1,0.2-1.6,0.1c-0.6-0.1-1.3-0.2-1.9-0.5
			c-0.4-0.2-0.9-0.4-1.3-0.7c-0.4-0.3-0.9-0.6-1.4-0.9l-0.1,0.1l-0.1,0.1c-0.3,0.3-0.7,0.6-1,0.9c-0.3,0.2-0.7,0.5-1,0.6
			c-0.4,0.2-0.7,0.3-1.1,0.4s-0.8,0.1-1.3,0.1h-0.2c-0.4,0-0.7-0.1-0.9-0.4C433.8,209.1,433.6,208.8,433.6,208.4z M441.2,205.4
			c0.4,0.3,0.7,0.5,1,0.7c0.3,0.2,0.7,0.4,1,0.5c0.3,0.1,0.6,0.2,0.9,0.3s0.5,0.1,0.7,0c0.2-0.1,0.5-0.2,0.7-0.4
			c0.2-0.2,0.4-0.4,0.5-0.7c0.1-0.3,0.2-0.6,0.3-0.9c0.1-0.3,0.1-0.7,0-1.1c0-0.1,0-0.2-0.1-0.3c0-0.2-0.1-0.3-0.2-0.5
			c-0.1-0.2-0.2-0.4-0.3-0.6c-0.1-0.2-0.3-0.4-0.4-0.6c-0.2-0.2-0.4-0.3-0.6-0.4c-0.2-0.1-0.5-0.2-0.7-0.2c-0.3,0-0.5,0.1-0.7,0.3
			c-0.2,0.2-0.4,0.5-0.6,0.9c-0.2,0.4-0.4,0.8-0.7,1.4c-0.1,0.2-0.2,0.5-0.3,0.7C441.5,204.9,441.4,205.1,441.2,205.4z"/>
		<path d="M451.2,208.4c0-0.2,0-0.3,0.1-0.5c0.1-0.2,0.2-0.3,0.3-0.4c0.1-0.1,0.3-0.2,0.4-0.3c0.2-0.1,0.3-0.1,0.5-0.1h2.4
			c1.2,0,2.3-0.1,3.5-0.3c1.1-0.2,2.2-0.5,3.2-0.9c1-0.4,2-0.8,3-1.2c1-0.5,2-0.9,2.9-1.4l0.2-0.1c-0.6-0.2-1.2-0.4-1.8-0.7
			c-0.6-0.3-1.1-0.5-1.7-0.8c-0.4-0.2-0.8-0.4-1.2-0.6c-0.4-0.2-0.8-0.3-1.2-0.5c-0.4-0.1-0.7-0.2-1.1-0.3c-0.3-0.1-0.6-0.1-0.9-0.1
			c-0.4,0-0.7,0.1-1.1,0.2c-0.3,0.2-0.6,0.4-0.9,0.6c-0.3,0.2-0.5,0.5-0.8,0.8c-0.2,0.3-0.4,0.5-0.6,0.8c-0.2,0.2-0.3,0.5-0.5,0.9
			l-2.4-1.1c0,0,0-0.1,0.1-0.2c0.1-0.1,0.2-0.3,0.3-0.5c0.1-0.2,0.3-0.5,0.5-0.7c0.2-0.3,0.4-0.6,0.6-0.8c0.7-0.8,1.4-1.4,2.2-1.9
			c0.8-0.4,1.6-0.6,2.5-0.6c0.4,0,0.9,0,1.3,0.1c0.4,0.1,0.9,0.2,1.4,0.4c0.5,0.2,0.9,0.4,1.4,0.6c0.5,0.2,0.9,0.4,1.4,0.6
			c0.5,0.3,1.1,0.5,1.6,0.8s1.1,0.5,1.6,0.7c0.5,0.2,1.1,0.4,1.6,0.5c0.5,0.1,1.1,0.2,1.6,0.2l0.5,2.5c-0.4,0.2-0.8,0.3-1.2,0.5
			c-0.4,0.2-0.8,0.4-1.2,0.6c0.1,0.3,0.3,0.6,0.5,0.9c0.2,0.2,0.5,0.4,0.8,0.6c0.3,0.2,0.6,0.3,0.9,0.4s0.6,0.2,0.9,0.2
			c0.3,0.1,0.6,0.1,0.8,0.1c0.3,0,0.5,0,0.6,0h0.1h0.1c0.2,0,0.4,0,0.5,0.1c0.2,0.1,0.3,0.2,0.4,0.3c0.1,0.1,0.2,0.3,0.3,0.4
			c0.1,0.2,0.1,0.3,0.1,0.5c0,0.4-0.1,0.7-0.4,0.9c-0.3,0.2-0.6,0.4-0.9,0.4h-0.2c-0.9,0-1.7-0.1-2.5-0.2c-0.7-0.2-1.4-0.4-2-0.7
			c-0.6-0.3-1.1-0.7-1.5-1.1c-0.4-0.4-0.7-1-1-1.5c-0.9,0.5-1.9,0.9-2.8,1.3c-1,0.4-2,0.8-3.1,1.2s-2.1,0.6-3.3,0.8
			c-1.1,0.2-2.3,0.3-3.6,0.3l-2.4,0c-0.4,0-0.7-0.1-0.9-0.4S451.2,208.8,451.2,208.4z M465.3,214.6l-2.2,2.2l-2.2-2.2l2.2-2.2
			L465.3,214.6z"/>
		<path d="M473.4,208.4c0-0.4,0.1-0.7,0.4-0.9c0.3-0.2,0.6-0.4,0.9-0.4h1.4c0.5,0,0.9,0,1.4,0c0.4,0,0.8-0.1,1.2-0.2
			c0.4-0.1,0.7-0.3,1-0.5c0.3-0.2,0.5-0.5,0.7-0.9c0.2-0.4,0.2-0.9,0.2-1.6c-0.1-0.7-0.3-1.5-0.5-2.5c-0.1-0.3-0.2-0.6-0.3-0.9
			c-0.1-0.3-0.3-0.6-0.4-0.9c-0.1-0.3-0.3-0.7-0.4-1l2.4-1.2c0,0,0,0.1,0.1,0.3c0.1,0.2,0.2,0.4,0.3,0.7c0.1,0.3,0.3,0.6,0.4,1
			c0.2,0.4,0.3,0.8,0.4,1.2c0.8,2.6,0.9,4.6,0.3,6c-0.6,1.4-1.8,2.4-3.4,2.8c-0.5,0.1-1,0.2-1.4,0.3c-0.5,0-0.9,0-1.3,0h-1.8h-0.1
			c-0.4,0-0.7-0.1-0.9-0.4C473.5,209.1,473.4,208.8,473.4,208.4z M481.4,193l-2.2,2.2L477,193l2.2-2.2L481.4,193z"/>
		<path d="M487,209.7c0.1-2,0.2-3.9,0.2-5.8c0-1.8,0-3.5,0-5c0-1.5-0.1-2.9-0.2-4.1c-0.1-1.2-0.2-2.3-0.2-3.1
			c-0.1-0.9-0.1-1.5-0.2-2c-0.1-0.5-0.1-0.7-0.1-0.7l2.6-0.4c0,0.1,0.1,0.6,0.2,1.6c0.1,0.5,0.1,1.1,0.2,1.7c0,0.6,0.1,1.2,0.1,1.9
			c0,0.7,0.1,1.3,0.1,1.9s0,1.2,0.1,1.8c0.1,1.6,0.1,3.5,0.1,5.6c0,2.1-0.1,4.4-0.3,6.8L487,209.7z"/>
	</g>
	<g>
		<path d="M19.2,241.5c-0.1,0-0.3,0-0.5,0c-0.3,0-0.6,0-1.1,0c-0.4,0-0.9-0.1-1.4-0.1c-0.5,0-1.1-0.1-1.6-0.2
			c-0.6-0.1-1.1-0.2-1.7-0.3c-0.5-0.1-1-0.3-1.5-0.5c-2-0.8-3.4-1.9-4.2-3.4v0c-0.4-0.8-0.6-1.7-0.6-2.7c0-0.4,0.1-0.9,0.2-1.4
			c0.1-0.5,0.2-1,0.4-1.5c0.2-0.6,0.4-1.1,0.7-1.5c0.2-0.4,0.5-0.9,0.8-1.4l3.1,2.6c-0.1,0.2-0.3,0.4-0.5,0.7
			c-0.2,0.3-0.3,0.6-0.5,0.9c-0.2,0.3-0.3,0.7-0.4,1c-0.1,0.3-0.2,0.6-0.2,0.9c0,0.2,0,0.3,0.1,0.4c0.2,0.4,0.5,0.7,1,1
			c0.5,0.3,1.2,0.5,2,0.7c0.8,0.2,1.7,0.3,2.7,0.4c1,0.1,2.1,0.1,3.3,0.1c0.3,0,0.7,0,1.1,0c0.4,0,0.8,0,1.1,0c0.4,0,0.7,0,0.9,0
			c0.3,0,0.5,0,0.6,0c-0.3-0.4-0.6-0.8-0.9-1.3c-0.3-0.5-0.4-1.1-0.4-1.8c0-0.8,0.1-1.6,0.4-2.4c0.3-0.8,0.7-1.5,1.2-2.1
			c0.6-0.7,1.2-1.2,1.9-1.6c0.7-0.4,1.5-0.6,2.3-0.5c0.8,0,1.5,0.2,2.2,0.6c0.7,0.4,1.2,0.8,1.7,1.4c0.5,0.6,0.9,1.2,1.1,2
			s0.4,1.5,0.4,2.3c0,0.6-0.1,1.2-0.3,1.8c-0.2,0.6-0.5,1.1-0.8,1.7c0.4,0,0.9,0.1,1.3,0.1c0.5,0,0.9,0,1.2,0c0.3,0,0.6,0.1,0.8,0.2
			c0.3,0.1,0.5,0.2,0.7,0.4c0.2,0.2,0.3,0.4,0.4,0.7c0.1,0.3,0.2,0.5,0.2,0.8c0,0.3-0.1,0.6-0.2,0.8c-0.1,0.3-0.3,0.5-0.4,0.7
			c-0.2,0.2-0.4,0.3-0.7,0.4c-0.3,0.1-0.5,0.2-0.8,0.2h-0.1c-0.3,0-0.6,0-0.9,0c-0.3,0-0.7,0-1,0c-0.3,0-0.7,0-1-0.1
			c-0.3,0-0.6-0.1-0.9-0.1c-0.5-0.1-1-0.2-1.5-0.3c-0.5-0.1-1-0.3-1.5-0.6c-0.2,0.1-0.5,0.2-0.9,0.3c-0.4,0.1-0.8,0.2-1.3,0.3
			c-0.5,0.1-1,0.1-1.5,0.2c-0.5,0.1-1.1,0.1-1.6,0.1c-0.5,0-1.1,0.1-1.6,0.1C20.1,241.4,19.6,241.5,19.2,241.5z M27.4,225.9l-3-2.9
			l3-2.9l3,2.9L27.4,225.9z M29.4,233.9c0-0.3-0.1-0.6-0.2-0.8s-0.3-0.5-0.5-0.7c-0.2-0.2-0.4-0.4-0.6-0.5c-0.2-0.1-0.4-0.2-0.6-0.3
			c-0.2,0-0.4,0.1-0.7,0.2c-0.3,0.1-0.5,0.3-0.7,0.5c-0.2,0.2-0.4,0.5-0.6,0.8c-0.2,0.3-0.2,0.6-0.2,1.1c0,0.1,0.1,0.3,0.2,0.6
			c0.1,0.2,0.3,0.5,0.5,0.7c0.2,0.2,0.5,0.5,0.7,0.7c0.3,0.2,0.6,0.4,0.9,0.4c0.2-0.1,0.4-0.3,0.7-0.5c0.2-0.2,0.4-0.4,0.6-0.7
			c0.2-0.2,0.3-0.5,0.4-0.7C29.3,234.4,29.4,234.1,29.4,233.9z"/>
		<path d="M32.2,239.4c0-0.3,0.1-0.6,0.2-0.8c0.1-0.3,0.3-0.5,0.5-0.7c0.2-0.2,0.4-0.3,0.7-0.4c0.3-0.1,0.5-0.2,0.8-0.2h12.1
			c0.3,0,0.6,0.1,0.8,0.2c0.3,0.1,0.5,0.3,0.7,0.4c0.2,0.2,0.3,0.4,0.5,0.7c0.1,0.3,0.2,0.5,0.2,0.8c0,0.3-0.1,0.6-0.2,0.8
			c-0.1,0.3-0.3,0.5-0.5,0.7c-0.2,0.2-0.4,0.3-0.7,0.4c-0.3,0.1-0.5,0.2-0.8,0.2H34.3c-0.3,0-0.6-0.1-0.8-0.2s-0.5-0.3-0.7-0.4
			s-0.4-0.4-0.5-0.7C32.2,239.9,32.2,239.7,32.2,239.4z"/>
		<path d="M44.3,239.4c0-0.3,0.1-0.6,0.2-0.8c0.1-0.3,0.3-0.5,0.5-0.7c0.2-0.2,0.4-0.3,0.7-0.4c0.3-0.1,0.5-0.2,0.8-0.2h12.1
			c0.3,0,0.6,0.1,0.8,0.2c0.3,0.1,0.5,0.3,0.7,0.4c0.2,0.2,0.3,0.4,0.5,0.7c0.1,0.3,0.2,0.5,0.2,0.8c0,0.3-0.1,0.6-0.2,0.8
			c-0.1,0.3-0.3,0.5-0.5,0.7c-0.2,0.2-0.4,0.3-0.7,0.4c-0.3,0.1-0.5,0.2-0.8,0.2H46.4c-0.3,0-0.6-0.1-0.8-0.2
			c-0.3-0.1-0.5-0.3-0.7-0.4s-0.4-0.4-0.5-0.7C44.3,239.9,44.3,239.7,44.3,239.4z"/>
		<path d="M56.4,239.4c0-0.3,0.1-0.6,0.2-0.8c0.1-0.3,0.3-0.5,0.5-0.7c0.2-0.2,0.4-0.3,0.7-0.4c0.3-0.1,0.5-0.2,0.8-0.2h12.1
			c0.3,0,0.6,0.1,0.8,0.2c0.3,0.1,0.5,0.3,0.7,0.4c0.2,0.2,0.3,0.4,0.5,0.7c0.1,0.3,0.2,0.5,0.2,0.8c0,0.3-0.1,0.6-0.2,0.8
			c-0.1,0.3-0.3,0.5-0.5,0.7c-0.2,0.2-0.4,0.3-0.7,0.4c-0.3,0.1-0.5,0.2-0.8,0.2H58.5c-0.3,0-0.6-0.1-0.8-0.2
			c-0.3-0.1-0.5-0.3-0.7-0.4c-0.2-0.2-0.4-0.4-0.5-0.7C56.4,239.9,56.4,239.7,56.4,239.4z"/>
		<path d="M68.4,239.4c0-0.3,0.1-0.6,0.2-0.8c0.1-0.3,0.3-0.5,0.5-0.7c0.2-0.2,0.4-0.3,0.7-0.4c0.3-0.1,0.5-0.2,0.8-0.2h12.1
			c0.3,0,0.6,0.1,0.8,0.2c0.3,0.1,0.5,0.3,0.7,0.4c0.2,0.2,0.3,0.4,0.5,0.7c0.1,0.3,0.2,0.5,0.2,0.8c0,0.3-0.1,0.6-0.2,0.8
			c-0.1,0.3-0.3,0.5-0.5,0.7c-0.2,0.2-0.4,0.3-0.7,0.4c-0.3,0.1-0.5,0.2-0.8,0.2H70.6c-0.3,0-0.6-0.1-0.8-0.2
			c-0.3-0.1-0.5-0.3-0.7-0.4s-0.4-0.4-0.5-0.7C68.5,239.9,68.4,239.7,68.4,239.4z"/>
		<path d="M80,239.4c0-0.3,0.1-0.6,0.2-0.8c0.1-0.3,0.3-0.5,0.4-0.7c0.2-0.2,0.4-0.3,0.7-0.4c0.3-0.1,0.5-0.2,0.8-0.2h1.5h0.6
			c0.4,0,0.8,0,1.3-0.1c0.5,0,0.9-0.1,1.4-0.2c0.4-0.1,0.8-0.2,1.2-0.3c0.4-0.1,0.6-0.3,0.8-0.5c0.1-0.1,0.1-0.4,0.1-0.6
			c0-0.4-0.1-0.8-0.3-1.4c-0.2-0.5-0.4-1.1-0.6-1.6c-0.2-0.5-0.5-1.1-0.8-1.6c-0.3-0.5-0.5-0.9-0.6-1.2l3.8-1.9
			c0.3,0.5,0.5,1,0.8,1.7c0.3,0.6,0.5,1.3,0.7,2c0.2,0.7,0.4,1.4,0.5,2c0.1,0.7,0.2,1.2,0.2,1.7c0,0.9-0.2,1.7-0.5,2.5
			c-0.7,1.7-2,2.7-3.9,3.3c-0.3,0.1-0.6,0.1-1,0.2c-0.4,0-0.8,0.1-1.2,0.1c-0.4,0-0.8,0-1.2,0c-0.4,0-0.6,0-0.9,0h-1.9h-0.1
			c-0.3,0-0.6-0.1-0.8-0.2c-0.3-0.1-0.5-0.3-0.7-0.4c-0.2-0.2-0.3-0.4-0.4-0.7C80,239.9,80,239.7,80,239.4z M87.8,245.8l-2.5,2.5
			l-2.6-2.6l2.6-2.6l2.5,2.5l2.5-2.5l2.6,2.6l-2.6,2.6L87.8,245.8z"/>
		<path d="M105,241.5c-0.2,0-0.5,0-0.8,0c-0.4,0-0.7-0.1-1.1-0.3c-0.2,1.1-0.6,2.1-1.1,3.1c-0.5,1-1.2,1.9-2,2.8
			c-0.8,0.9-1.7,1.7-2.7,2.4c-1,0.7-2.1,1.4-3.2,2l-2.4-3.4c0.6-0.3,1.3-0.7,1.9-1c0.6-0.4,1.3-0.8,1.8-1.2c0.6-0.4,1.1-0.9,1.6-1.3
			s0.9-0.9,1.3-1.4c0.4-0.5,0.7-1,0.9-1.5c0.2-0.5,0.3-1,0.3-1.5c0,0,0-0.1,0-0.1c0-0.1,0-0.1,0-0.2c0-0.1,0-0.1,0-0.1c0,0,0,0,0,0
			v0c-0.1-0.5-0.2-1-0.3-1.5c-0.1-0.5-0.3-0.9-0.4-1.4c-0.2-0.5-0.4-1-0.6-1.5c-0.2-0.5-0.5-1.1-0.8-1.8l3.9-1.7
			c0.4,1.1,0.7,1.9,1,2.7c0.3,0.7,0.6,1.3,0.9,1.7c0.3,0.4,0.6,0.7,0.9,0.9c0.3,0.2,0.6,0.3,1,0.3h0.1c0.3,0,0.6,0.1,0.8,0.2
			c0.3,0.1,0.5,0.3,0.7,0.5c0.2,0.2,0.3,0.4,0.5,0.7c0.1,0.3,0.2,0.5,0.2,0.8c0,0.3-0.1,0.6-0.2,0.8c-0.1,0.3-0.3,0.5-0.5,0.7
			c-0.2,0.2-0.4,0.3-0.7,0.4C105.6,241.4,105.3,241.5,105,241.5z"/>
		<path d="M102.7,239.4c0-0.3,0.1-0.6,0.2-0.8c0.1-0.3,0.3-0.5,0.5-0.7c0.2-0.2,0.4-0.3,0.7-0.4c0.3-0.1,0.5-0.2,0.8-0.2H117
			c0.3,0,0.6,0.1,0.8,0.2c0.3,0.1,0.5,0.3,0.7,0.4c0.2,0.2,0.3,0.4,0.5,0.7c0.1,0.3,0.2,0.5,0.2,0.8c0,0.3-0.1,0.6-0.2,0.8
			c-0.1,0.3-0.3,0.5-0.5,0.7c-0.2,0.2-0.4,0.3-0.7,0.4c-0.3,0.1-0.5,0.2-0.8,0.2h-12.1c-0.3,0-0.6-0.1-0.8-0.2s-0.5-0.3-0.7-0.4
			c-0.2-0.2-0.4-0.4-0.5-0.7C102.8,239.9,102.7,239.7,102.7,239.4z"/>
		<path d="M114.8,239.4c0-0.3,0.1-0.6,0.2-0.8c0.1-0.3,0.3-0.5,0.5-0.7c0.2-0.2,0.4-0.3,0.7-0.4c0.3-0.1,0.5-0.2,0.8-0.2h12.1
			c0.3,0,0.6,0.1,0.8,0.2c0.3,0.1,0.5,0.3,0.7,0.4c0.2,0.2,0.3,0.4,0.5,0.7c0.1,0.3,0.2,0.5,0.2,0.8c0,0.3-0.1,0.6-0.2,0.8
			c-0.1,0.3-0.3,0.5-0.5,0.7c-0.2,0.2-0.4,0.3-0.7,0.4c-0.3,0.1-0.5,0.2-0.8,0.2H117c-0.3,0-0.6-0.1-0.8-0.2s-0.5-0.3-0.7-0.4
			c-0.2-0.2-0.4-0.4-0.5-0.7C114.9,239.9,114.8,239.7,114.8,239.4z"/>
		<path d="M126.9,239.4c0-0.3,0.1-0.6,0.2-0.8c0.1-0.3,0.3-0.5,0.5-0.7c0.2-0.2,0.4-0.3,0.7-0.4c0.3-0.1,0.5-0.2,0.8-0.2h12.1
			c0.3,0,0.6,0.1,0.8,0.2c0.3,0.1,0.5,0.3,0.7,0.4c0.2,0.2,0.3,0.4,0.5,0.7c0.1,0.3,0.2,0.5,0.2,0.8c0,0.3-0.1,0.6-0.2,0.8
			c-0.1,0.3-0.3,0.5-0.5,0.7c-0.2,0.2-0.4,0.3-0.7,0.4c-0.3,0.1-0.5,0.2-0.8,0.2h-12.1c-0.3,0-0.6-0.1-0.8-0.2s-0.5-0.3-0.7-0.4
			c-0.2-0.2-0.4-0.4-0.5-0.7C127,239.9,126.9,239.7,126.9,239.4z"/>
		<path d="M139.1,239.4c0-0.3,0.1-0.5,0.2-0.8c0.1-0.2,0.2-0.5,0.4-0.7c0.2-0.2,0.4-0.3,0.6-0.5c0.2-0.1,0.5-0.2,0.8-0.2
			c0.7,0,1.2-0.2,1.7-0.5c0.5-0.4,0.9-0.8,1.2-1.4c0.3-0.6,0.6-1.2,0.8-2c0.2-0.7,0.4-1.5,0.7-2.3l3.5,0.6c-0.1,0.3-0.2,0.7-0.3,1.1
			c-0.1,0.4-0.2,0.8-0.3,1.3c-0.1,0.4-0.2,0.9-0.2,1.3c-0.1,0.4-0.1,0.8,0,1.1c0,0.3,0.1,0.6,0.2,0.8c0.1,0.2,0.3,0.2,0.6,0.2
			c0.4,0,0.7-0.1,1-0.4c0.3-0.2,0.5-0.5,0.8-0.9c0.2-0.3,0.4-0.7,0.6-1.2c0.2-0.4,0.3-0.9,0.5-1.3c0.1-0.5,0.2-0.9,0.3-1.4
			c0.1-0.5,0.2-0.9,0.2-1.2l3.4,0.6c0,0.3,0,0.6-0.1,1c-0.1,0.4-0.1,0.8-0.1,1.2c0,0.4-0.1,0.9-0.1,1.3c0,0.4,0,0.8,0.1,1.2
			c0.1,0.3,0.3,0.6,0.5,0.8c0.2,0.2,0.5,0.3,1,0.3c0.2,0,0.5,0,0.8-0.1c0.3-0.1,0.5-0.2,0.7-0.4c0.2-0.2,0.4-0.3,0.5-0.5
			c0.1-0.2,0.2-0.5,0.2-0.7c0-0.5-0.1-1-0.2-1.5c-0.2-0.6-0.3-1.1-0.6-1.6c-0.2-0.5-0.4-1.1-0.7-1.5c-0.2-0.5-0.4-0.9-0.6-1.2
			l3.3-1.8c0.1,0.1,0.1,0.3,0.3,0.6c0.1,0.3,0.3,0.6,0.5,1c0.2,0.4,0.3,0.9,0.5,1.4c0.2,0.5,0.3,1,0.5,1.6c0.2,0.5,0.3,1.1,0.4,1.7
			c0.1,0.6,0.1,1.1,0.1,1.7c0,0.9-0.1,1.7-0.4,2.4c-0.2,0.7-0.6,1.3-1.1,1.8c-0.5,0.5-1.1,0.9-1.9,1.2s-1.6,0.4-2.6,0.4
			c-0.5,0-0.9,0-1.3-0.1c-0.4-0.1-0.7-0.2-1.1-0.4c-0.3-0.2-0.6-0.3-0.8-0.6c-0.2-0.2-0.5-0.5-0.6-0.7c-0.2,0.3-0.4,0.5-0.7,0.7
			c-0.2,0.2-0.5,0.4-0.8,0.6c-0.3,0.2-0.7,0.3-1.1,0.4c-0.4,0.1-0.8,0.1-1.3,0.1c-0.4,0-0.8,0-1.2-0.1c-0.4-0.1-0.7-0.2-1-0.4
			c-0.3-0.2-0.6-0.4-0.8-0.6c-0.2-0.2-0.5-0.5-0.7-0.7c-0.2,0.2-0.4,0.4-0.6,0.6c-0.2,0.2-0.5,0.4-0.9,0.5c-0.3,0.1-0.7,0.3-1.1,0.4
			c-0.4,0.1-0.9,0.1-1.5,0.1h-0.2c-0.3,0-0.5-0.1-0.8-0.2c-0.2-0.1-0.5-0.3-0.6-0.5s-0.3-0.4-0.4-0.6
			C139.2,239.9,139.1,239.7,139.1,239.4z M153.7,225.4l-2.5,2.5l-2.6-2.6l2.6-2.6l2.5,2.5l2.5-2.5l2.6,2.6l-2.6,2.6L153.7,225.4z
			 M156,221.5l-2.4,2.4l-2.4-2.4l2.4-2.4L156,221.5z"/>
		<path d="M182.6,250.1c-0.8,0-1.7,0-2.6-0.1c-0.9-0.1-1.7-0.3-2.5-0.5c-0.8-0.3-1.6-0.6-2.3-1.1s-1.3-1.1-1.8-1.8
			c-0.5-0.7-0.8-1.5-1.1-2.4c-0.2-0.9-0.4-1.8-0.4-2.9c0-0.8,0-1.5,0.1-2.2c0.1-0.7,0.2-1.4,0.3-2.1c0.1-0.7,0.3-1.4,0.6-2.1
			c0.2-0.7,0.5-1.5,0.8-2.3l3.4,1.4c-0.3,0.6-0.5,1.2-0.7,1.7c-0.2,0.5-0.3,1-0.5,1.4c-0.1,0.4-0.2,0.8-0.3,1.2
			c-0.1,0.4-0.1,0.7-0.2,1c0,0.3-0.1,0.6-0.1,1c0,0.3,0,0.6,0,1c0,0.7,0.1,1.2,0.3,1.7c0.2,0.5,0.5,0.9,0.9,1.2
			c0.4,0.3,0.8,0.6,1.3,0.8c0.5,0.2,1,0.4,1.5,0.5c0.5,0.1,1,0.2,1.6,0.2c0.5,0,1,0.1,1.5,0.1c0.2,0,0.6,0,1,0c0.5,0,1-0.1,1.5-0.2
			c0.5-0.1,1.1-0.2,1.7-0.3c0.6-0.1,1.1-0.3,1.5-0.5c0.5-0.2,0.8-0.4,1.1-0.6c0.3-0.2,0.4-0.5,0.4-0.9c0,0-0.1-0.1-0.2-0.2
			c-0.1-0.1-0.3-0.2-0.6-0.3s-0.5-0.3-0.9-0.4c-0.3-0.1-0.7-0.3-1.1-0.4h0c-0.4-0.1-0.9-0.2-1.3-0.3c-0.5-0.1-0.9-0.2-1.4-0.2
			c-0.1,0-0.2,0-0.3,0c-0.1,0-0.2,0-0.3-0.1c-0.1,0-0.2,0-0.3-0.1c-0.1,0-0.2,0-0.3-0.1l0.5-4h10.7c0.3,0,0.6,0.1,0.8,0.2
			s0.5,0.3,0.7,0.4c0.2,0.2,0.3,0.4,0.5,0.7c0.1,0.3,0.2,0.5,0.2,0.8c0,0.3-0.1,0.6-0.2,0.8c-0.1,0.3-0.3,0.5-0.5,0.7
			c-0.2,0.2-0.4,0.3-0.7,0.4s-0.5,0.2-0.8,0.2h-1.5c0.2,0.4,0.3,0.7,0.4,1.1s0.1,0.7,0.1,0.9c0,0.8-0.3,1.6-0.6,2.2
			c-0.4,0.7-0.9,1.2-1.5,1.7c-0.6,0.5-1.3,0.9-2,1.3c-0.8,0.3-1.5,0.6-2.3,0.8c-0.8,0.2-1.6,0.4-2.3,0.5
			C183.9,250.1,183.2,250.1,182.6,250.1z"/>
		<path d="M192.4,239.4c0-0.3,0.1-0.6,0.2-0.8c0.1-0.3,0.3-0.5,0.5-0.7c0.2-0.2,0.4-0.3,0.7-0.4c0.3-0.1,0.5-0.2,0.8-0.2h12.1
			c0.3,0,0.6,0.1,0.8,0.2c0.3,0.1,0.5,0.3,0.7,0.4c0.2,0.2,0.3,0.4,0.5,0.7c0.1,0.3,0.2,0.5,0.2,0.8c0,0.3-0.1,0.6-0.2,0.8
			c-0.1,0.3-0.3,0.5-0.5,0.7c-0.2,0.2-0.4,0.3-0.7,0.4c-0.3,0.1-0.5,0.2-0.8,0.2h-12.1c-0.3,0-0.6-0.1-0.8-0.2s-0.5-0.3-0.7-0.4
			s-0.4-0.4-0.5-0.7C192.5,239.9,192.4,239.7,192.4,239.4z"/>
		<path d="M204.5,239.4c0-0.3,0.1-0.6,0.2-0.8c0.1-0.3,0.3-0.5,0.5-0.7c0.2-0.2,0.4-0.3,0.7-0.4c0.3-0.1,0.5-0.2,0.8-0.2h12.1
			c0.3,0,0.6,0.1,0.8,0.2c0.3,0.1,0.5,0.3,0.7,0.4c0.2,0.2,0.3,0.4,0.5,0.7c0.1,0.3,0.2,0.5,0.2,0.8c0,0.3-0.1,0.6-0.2,0.8
			c-0.1,0.3-0.3,0.5-0.5,0.7c-0.2,0.2-0.4,0.3-0.7,0.4c-0.3,0.1-0.5,0.2-0.8,0.2h-12.1c-0.3,0-0.6-0.1-0.8-0.2s-0.5-0.3-0.7-0.4
			c-0.2-0.2-0.4-0.4-0.5-0.7C204.6,239.9,204.5,239.7,204.5,239.4z"/>
		<path d="M216.6,239.4c0-0.3,0.1-0.6,0.2-0.8c0.1-0.3,0.3-0.5,0.4-0.7c0.2-0.2,0.4-0.3,0.7-0.4s0.5-0.2,0.8-0.2h1
			c0.6,0,1.3,0,1.8-0.1c0.6-0.1,1.1-0.2,1.6-0.3c0.5-0.2,0.8-0.4,1.1-0.7c0.3-0.3,0.4-0.7,0.4-1.3c0-0.2,0-0.4,0-0.5
			c0-0.1,0-0.3-0.1-0.5c0-0.2-0.1-0.4-0.2-0.7s-0.2-0.7-0.4-1.3l3.9-1.1c0.2,0.4,0.3,1,0.5,1.7c0.1,0.7,0.2,1.5,0.3,2.3
			c0,0.3,0,0.5,0.1,0.8c0,0.3,0.1,0.5,0.2,0.8c0.1,0.2,0.2,0.4,0.4,0.6s0.4,0.2,0.7,0.2c0.3,0,0.6,0.1,0.8,0.2
			c0.3,0.1,0.5,0.3,0.7,0.4c0.2,0.2,0.3,0.4,0.5,0.7c0.1,0.3,0.2,0.5,0.2,0.8c0,0.3-0.1,0.6-0.2,0.8c-0.1,0.3-0.3,0.5-0.5,0.7
			c-0.2,0.2-0.4,0.3-0.7,0.4s-0.5,0.2-0.8,0.2c-0.9,0-1.6-0.1-2.2-0.4c-0.6-0.3-1.1-0.6-1.6-1c-0.4,0.3-0.9,0.5-1.4,0.7
			c-0.5,0.2-1.1,0.3-1.7,0.4c-0.6,0.1-1.2,0.2-1.8,0.2c-0.6,0-1.2,0.1-1.8,0.1h-1c-0.3,0-0.6-0.1-0.8-0.2s-0.5-0.3-0.7-0.4
			c-0.2-0.2-0.3-0.4-0.4-0.7C216.6,239.9,216.6,239.7,216.6,239.4z M224.8,226.6l-2.5,2.5l-2.6-2.6l2.6-2.6l2.5,2.5l2.5-2.5l2.6,2.6
			l-2.6,2.6L224.8,226.6z"/>
		<path d="M228.2,239.4c0-0.3,0.1-0.6,0.2-0.8c0.1-0.3,0.3-0.5,0.5-0.7c0.2-0.2,0.4-0.3,0.7-0.4c0.3-0.1,0.5-0.2,0.8-0.2h12.1
			c0.3,0,0.6,0.1,0.8,0.2c0.3,0.1,0.5,0.3,0.7,0.4c0.2,0.2,0.3,0.4,0.5,0.7c0.1,0.3,0.2,0.5,0.2,0.8c0,0.3-0.1,0.6-0.2,0.8
			c-0.1,0.3-0.3,0.5-0.5,0.7c-0.2,0.2-0.4,0.3-0.7,0.4c-0.3,0.1-0.5,0.2-0.8,0.2h-12.1c-0.3,0-0.6-0.1-0.8-0.2
			c-0.3-0.1-0.5-0.3-0.7-0.4c-0.2-0.2-0.4-0.4-0.5-0.7C228.3,239.9,228.2,239.7,228.2,239.4z"/>
		<path d="M240.3,239.4c0-0.3,0.1-0.6,0.2-0.8c0.1-0.3,0.3-0.5,0.5-0.7c0.2-0.2,0.4-0.3,0.7-0.4c0.3-0.1,0.5-0.2,0.8-0.2h12.1
			c0.3,0,0.6,0.1,0.8,0.2c0.3,0.1,0.5,0.3,0.7,0.4c0.2,0.2,0.3,0.4,0.5,0.7c0.1,0.3,0.2,0.5,0.2,0.8c0,0.3-0.1,0.6-0.2,0.8
			c-0.1,0.3-0.3,0.5-0.5,0.7c-0.2,0.2-0.4,0.3-0.7,0.4c-0.3,0.1-0.5,0.2-0.8,0.2h-12.1c-0.3,0-0.6-0.1-0.8-0.2s-0.5-0.3-0.7-0.4
			s-0.4-0.4-0.5-0.7C240.4,239.9,240.3,239.7,240.3,239.4z"/>
		<path d="M269.8,237.3c0.3,0,0.6,0.1,0.8,0.2c0.3,0.1,0.5,0.3,0.7,0.5c0.2,0.2,0.3,0.4,0.5,0.7c0.1,0.3,0.2,0.5,0.2,0.8
			c0,0.3-0.1,0.6-0.2,0.8s-0.3,0.5-0.5,0.7c-0.2,0.2-0.4,0.3-0.7,0.4c-0.3,0.1-0.5,0.2-0.8,0.2c-0.7,0-1.4,0-2.1-0.1
			c-0.7,0-1.3-0.1-1.9-0.3c-0.6-0.1-1.2-0.3-1.8-0.5c-0.6-0.2-1.1-0.5-1.5-0.9c-0.5,0.3-1.1,0.6-1.8,0.8c-0.7,0.2-1.3,0.4-2.1,0.5
			c-0.7,0.1-1.4,0.2-2.1,0.3c-0.7,0.1-1.4,0.1-2,0.1c-0.3,0-0.6-0.1-0.8-0.2c-0.3-0.1-0.5-0.3-0.7-0.4c-0.2-0.2-0.3-0.4-0.5-0.7
			c-0.1-0.3-0.2-0.5-0.2-0.8c0-0.3,0.1-0.6,0.2-0.8c0.1-0.3,0.3-0.5,0.5-0.7c0.2-0.2,0.4-0.3,0.7-0.5c0.3-0.1,0.5-0.2,0.8-0.2
			c0.3,0,0.6,0,1,0c0.3,0,0.7,0,1-0.1c0.3,0,0.7-0.1,1-0.1c0.3-0.1,0.7-0.1,1-0.2c-0.1-0.1-0.2-0.2-0.3-0.3
			c-0.1-0.1-0.2-0.2-0.3-0.3h0c-0.5-0.5-1-1-1.5-1.5c-0.5-0.5-1.1-1-1.7-1.6l0.2-3.1c0.5-0.5,1.1-0.9,1.6-1.2
			c0.6-0.3,1.1-0.6,1.7-0.8c0.5-0.2,1.1-0.4,1.6-0.5s1-0.2,1.4-0.2c0.2,0,0.4,0,0.6,0s0.4,0,0.7,0c0.7,0,1.4,0.1,2.1,0.2
			c0.7,0.1,1.4,0.3,2,0.6c0.5,0.2,0.9,0.5,1.3,0.8c0.3,0.3,0.6,0.6,0.8,0.9c0.2,0.3,0.4,0.6,0.4,0.9c0.1,0.3,0.1,0.5,0.2,0.7
			c0,0.4,0,0.8-0.2,1.3c-0.1,0.5-0.3,1-0.6,1.4c-0.3,0.5-0.6,1-0.9,1.4c-0.3,0.5-0.7,0.9-1.1,1.3
			C267.7,237.2,268.8,237.3,269.8,237.3z M262.6,231.5c-0.2,0-0.5,0-0.8,0c-0.3,0-0.7,0.1-1,0.1c-0.3,0.1-0.7,0.1-1,0.2
			c-0.3,0.1-0.6,0.1-0.9,0.2l3.7,3.1c0.3-0.2,0.6-0.4,0.9-0.7s0.7-0.6,1-0.9c0.3-0.3,0.6-0.6,0.9-0.9c0.3-0.3,0.5-0.5,0.6-0.8
			c-0.2-0.1-0.4-0.2-0.7-0.2c-0.3-0.1-0.6-0.1-0.9-0.2c-0.3,0-0.6-0.1-0.9-0.1C263.1,231.5,262.9,231.5,262.6,231.5z"/>
		<path d="M267.6,239.4c0-0.3,0.1-0.6,0.2-0.8c0.1-0.3,0.3-0.5,0.5-0.7c0.2-0.2,0.4-0.3,0.7-0.4c0.3-0.1,0.5-0.2,0.8-0.2h12.1
			c0.3,0,0.6,0.1,0.8,0.2c0.3,0.1,0.5,0.3,0.7,0.4c0.2,0.2,0.3,0.4,0.5,0.7c0.1,0.3,0.2,0.5,0.2,0.8c0,0.3-0.1,0.6-0.2,0.8
			c-0.1,0.3-0.3,0.5-0.5,0.7c-0.2,0.2-0.4,0.3-0.7,0.4c-0.3,0.1-0.5,0.2-0.8,0.2h-12.1c-0.3,0-0.6-0.1-0.8-0.2s-0.5-0.3-0.7-0.4
			c-0.2-0.2-0.4-0.4-0.5-0.7C267.7,239.9,267.6,239.7,267.6,239.4z"/>
		<path d="M279.7,239.4c0-0.3,0.1-0.6,0.2-0.8c0.1-0.3,0.3-0.5,0.5-0.7c0.2-0.2,0.4-0.3,0.7-0.4c0.3-0.1,0.5-0.2,0.8-0.2H294
			c0.3,0,0.6,0.1,0.8,0.2c0.3,0.1,0.5,0.3,0.7,0.4c0.2,0.2,0.3,0.4,0.5,0.7c0.1,0.3,0.2,0.5,0.2,0.8c0,0.3-0.1,0.6-0.2,0.8
			c-0.1,0.3-0.3,0.5-0.5,0.7c-0.2,0.2-0.4,0.3-0.7,0.4c-0.3,0.1-0.5,0.2-0.8,0.2h-12.1c-0.3,0-0.6-0.1-0.8-0.2s-0.5-0.3-0.7-0.4
			c-0.2-0.2-0.4-0.4-0.5-0.7C279.8,239.9,279.7,239.7,279.7,239.4z"/>
		<path d="M291.9,239.4c0-0.3,0.1-0.6,0.2-0.8c0.1-0.3,0.3-0.5,0.4-0.7c0.2-0.2,0.4-0.3,0.7-0.4c0.3-0.1,0.5-0.2,0.8-0.2h0.2
			c2.5,0,3.7-0.8,3.7-2.4c0-0.2,0-0.3,0-0.4c0-0.1,0-0.3,0-0.5c0-0.2-0.1-0.5-0.2-0.8c-0.1-0.3-0.2-0.8-0.4-1.3l3.8-0.9
			c0.2,0.5,0.4,1.1,0.5,1.8c0.1,0.7,0.2,1.4,0.2,2.2c0,0.3,0,0.5,0.1,0.8c0,0.3,0.1,0.5,0.2,0.8c0.1,0.2,0.3,0.4,0.5,0.6
			s0.4,0.2,0.7,0.2c0.3,0,0.6,0.1,0.8,0.2c0.3,0.1,0.5,0.3,0.7,0.4c0.2,0.2,0.3,0.4,0.5,0.7c0.1,0.3,0.2,0.5,0.2,0.8
			c0,0.3-0.1,0.6-0.2,0.8c-0.1,0.3-0.3,0.5-0.5,0.7s-0.4,0.3-0.7,0.4c-0.3,0.1-0.5,0.2-0.8,0.2c-0.9,0-1.6-0.1-2.2-0.4
			c-0.6-0.2-1.1-0.6-1.6-1c-0.6,0.5-1.4,0.8-2.3,1c-0.9,0.2-1.9,0.3-3.1,0.3H294c-0.3,0-0.6-0.1-0.8-0.2c-0.3-0.1-0.5-0.3-0.7-0.4
			s-0.3-0.4-0.4-0.7C291.9,239.9,291.9,239.7,291.9,239.4z M299.2,228.7l-3-2.9l3-2.9l3,2.9L299.2,228.7z"/>
		<path d="M301.2,239.4c0-0.3,0.1-0.6,0.2-0.8c0.1-0.3,0.3-0.5,0.5-0.7c0.2-0.2,0.4-0.3,0.7-0.4s0.5-0.2,0.8-0.2
			c0.4,0,0.8,0,1.1-0.1s0.6-0.1,0.8-0.2c0.2-0.1,0.4-0.2,0.5-0.3c0.1-0.1,0.2-0.2,0.3-0.3l0,0c0.1-0.2,0.2-0.4,0.4-0.6
			s0.3-0.6,0.4-1c0.1-0.4,0.3-0.9,0.5-1.5c0.2-0.6,0.4-1.4,0.6-2.3l3.5,1.1c-0.1,0.3-0.2,0.7-0.3,1c-0.1,0.3-0.1,0.6-0.2,0.9
			c0,0.3,0,0.6,0,0.9c0,0.3,0.1,0.6,0.2,0.9c0.4-0.6,0.8-1.2,1.2-1.8c0.4-0.6,0.9-1.2,1.3-1.7c0.5-0.5,1-1.1,1.5-1.5
			c0.5-0.5,1.2-0.9,1.8-1.2c0.7-0.3,1.4-0.6,2.2-0.8c0.8-0.2,1.6-0.3,2.6-0.3c1.1,0,2,0.2,2.9,0.5c0.8,0.4,1.5,0.8,2.1,1.4
			c0.6,0.6,1,1.3,1.2,2c0.3,0.8,0.4,1.5,0.3,2.3c0,0.9-0.3,1.8-0.7,2.6c-0.4,0.8-1,1.5-1.7,2.1c-0.6,0.5-1.4,0.9-2.2,1.2
			c-0.8,0.3-1.6,0.6-2.5,0.8c-0.8,0.2-1.7,0.3-2.5,0.4c-0.8,0.1-1.6,0.1-2.4,0.1c-0.9,0-1.7,0-2.3-0.1c-0.7-0.1-1.3-0.2-1.9-0.3
			c-0.6-0.2-1.2-0.4-1.7-0.7c-0.5-0.3-1.1-0.6-1.6-1.1c-0.6,0.6-1.4,1.1-2.3,1.4c-0.9,0.3-1.9,0.5-3.1,0.5h-0.1
			c-0.3,0-0.6-0.1-0.8-0.2s-0.5-0.3-0.7-0.4c-0.2-0.2-0.3-0.4-0.5-0.7C301.3,239.9,301.2,239.7,301.2,239.4z M321.7,232.4
			c-0.6,0-1.1,0.1-1.7,0.2c-0.5,0.2-1.1,0.4-1.6,0.6c-0.5,0.3-1,0.6-1.4,0.9c-0.4,0.3-0.8,0.7-1.2,1c-0.4,0.4-0.7,0.7-1,1.1
			c-0.3,0.4-0.5,0.7-0.7,1c0.3,0,0.7,0,1.2,0c0.4,0,0.9,0,1.3,0c0.6,0,1.1,0,1.7,0c0.6,0,1.2-0.1,1.7-0.2s1.1-0.2,1.7-0.4
			c0.5-0.1,1-0.3,1.4-0.6c0.4-0.2,0.8-0.5,1.1-0.8c0.3-0.3,0.5-0.7,0.6-1.2c-0.1-0.6-0.4-1.1-1-1.4
			C323.4,232.6,322.7,232.4,321.7,232.4z"/>
		<path d="M342.8,241.5c0,0-0.2,0-0.4,0s-0.4,0-0.7-0.1c-0.3,0-0.6-0.1-1-0.2c-0.4-0.1-0.7-0.2-1.1-0.4c-1-0.5-1.7-1.1-2.3-1.9
			c-0.5-0.8-0.8-1.7-0.8-2.8c0-1.8,0.8-3.6,2.4-5.5c0.1-0.1,0.2-0.3,0.3-0.4c0.1-0.1,0.2-0.2,0.2-0.3c0.1-0.1,0.1-0.2,0.2-0.2
			c0.1-0.1,0.1-0.1,0.2-0.2c-0.1-0.1-0.2-0.2-0.3-0.3c-0.1-0.1-0.2-0.2-0.3-0.2l-0.2-0.2l2.7-3.2c0.5,0.3,1,0.8,1.6,1.4
			s1.4,1.3,2.2,2.2c2.3,2.6,3.5,4.9,3.5,7c0,1-0.3,2-0.8,2.8c-0.5,0.8-1.2,1.4-2.1,1.9c-0.3,0.1-0.6,0.3-1,0.4
			c-0.3,0.1-0.6,0.2-0.9,0.2c-0.3,0.1-0.6,0.1-0.8,0.1C343.2,241.4,343,241.5,342.8,241.5z M345.4,236.1c0-0.3-0.1-0.6-0.3-0.9
			c-0.2-0.3-0.4-0.7-0.7-1.1c-0.3-0.4-0.6-0.8-1-1.1c-0.4-0.4-0.7-0.8-1.1-1.1c-0.2,0.3-0.5,0.6-0.8,0.9c-0.3,0.3-0.5,0.7-0.7,1.1
			c-0.2,0.4-0.4,0.8-0.5,1.1c-0.1,0.4-0.2,0.8-0.2,1.2c0,0.2,0.1,0.4,0.3,0.6c0.2,0.2,0.4,0.3,0.7,0.4c0.3,0.1,0.6,0.2,0.9,0.2
			c0.3,0,0.6,0.1,0.8,0.1c0.3,0,0.6,0,0.9-0.1c0.3,0,0.6-0.1,0.8-0.2c0.3-0.1,0.5-0.2,0.6-0.4C345.3,236.5,345.4,236.3,345.4,236.1z
			"/>
		<path d="M357.6,241.5c-1.1,0-2-0.1-2.8-0.4c-0.8-0.3-1.5-0.7-2-1.2c-0.4-0.4-0.6-0.7-0.8-1.1c-0.2-0.4-0.3-0.8-0.4-1.1
			c-0.1-0.4-0.1-0.7-0.1-1.1c0-0.3,0-0.6,0-0.9v-0.2c0-0.3,0-0.8,0-1.4c0-0.6,0-1.3,0-2.2s0-1.7,0-2.7c0-1,0-2-0.1-3
			c0-1-0.1-2-0.2-2.9c-0.1-0.9-0.2-1.7-0.3-2.4l4-1.2c0.1,0.6,0.2,1.3,0.3,2.1c0.1,0.8,0.1,1.6,0.2,2.5c0,0.9,0.1,1.7,0.1,2.6
			c0,0.9,0,1.7,0,2.4c0,0.7,0,1.3-0.1,1.9c-0.1,0.6-0.1,1.3-0.1,1.9c0,0.6,0,1.2,0,1.8c0,0.6,0.2,1.1,0.4,1.7
			c0.1,0.2,0.2,0.4,0.3,0.5c0.1,0.1,0.3,0.2,0.4,0.2c0.2,0,0.3,0.1,0.5,0.1c0.2,0,0.4,0,0.6,0h0.1c0.3,0,0.6,0.1,0.8,0.2
			c0.3,0.1,0.5,0.3,0.7,0.5c0.2,0.2,0.3,0.4,0.5,0.7c0.1,0.3,0.2,0.5,0.2,0.8c0,0.3-0.1,0.6-0.2,0.8c-0.1,0.3-0.3,0.5-0.5,0.7
			c-0.2,0.2-0.4,0.3-0.7,0.4C358.2,241.4,357.9,241.5,357.6,241.5z"/>
		<path d="M355.5,239.4c0-0.3,0.1-0.6,0.2-0.8c0.1-0.3,0.3-0.5,0.5-0.7c0.2-0.2,0.4-0.3,0.7-0.4c0.3-0.1,0.5-0.2,0.8-0.2h0.1h4.4
			c0.3,0,0.6-0.1,0.9-0.2c0.3-0.1,0.6-0.2,1-0.4c0.3-0.2,0.6-0.4,0.8-0.6c0.2-0.2,0.3-0.4,0.4-0.7c0-0.4-0.1-0.9-0.2-1.4
			c-0.2-0.5-0.4-1-0.8-1.6c-0.3-0.5-0.7-1.1-1.2-1.6c-0.4-0.5-0.9-1-1.4-1.5c-0.5-0.5-0.9-0.9-1.4-1.4c-0.5-0.4-0.9-0.8-1.3-1.1
			l0.4-3.6l12.3-5.1l1.5,3.6l-10.1,4.1c0.6,0.6,1.2,1.1,1.7,1.7c0.5,0.5,1,1.1,1.4,1.6c0.4,0.5,0.8,1.1,1.1,1.6
			c0.3,0.5,0.7,1.1,1,1.7l0.1,0.2l0,0c0.2,0.4,0.4,0.7,0.6,1.1c0.2,0.4,0.4,0.7,0.6,1.1c0.2,0.3,0.4,0.6,0.7,0.9
			c0.3,0.3,0.5,0.5,0.8,0.8c0.3,0.2,0.6,0.4,1,0.5c0.3,0.1,0.7,0.2,1.1,0.2h0h0.6c0.3,0,0.6,0.1,0.8,0.2c0.3,0.1,0.5,0.3,0.7,0.4
			c0.2,0.2,0.3,0.4,0.4,0.7c0.1,0.3,0.2,0.5,0.2,0.8c0,0.3-0.1,0.6-0.2,0.8c-0.1,0.3-0.3,0.5-0.4,0.7c-0.2,0.2-0.4,0.3-0.7,0.4
			s-0.5,0.2-0.8,0.2h-0.1c-0.7,0-1.3,0-1.8-0.1c-0.5-0.1-1.1-0.2-1.6-0.4c-0.5-0.2-1-0.5-1.5-0.8c-0.5-0.3-0.9-0.7-1.3-1.1
			c-0.1,0.1-0.2,0.3-0.3,0.4c-0.1,0.1-0.2,0.3-0.4,0.4c-0.3,0.3-0.7,0.6-1.1,0.8c-0.4,0.2-0.8,0.4-1.1,0.5c-0.4,0.1-0.8,0.2-1.2,0.3
			c-0.4,0.1-0.8,0.1-1.2,0.1h-4.3c-0.3,0-0.6-0.1-0.8-0.2c-0.3-0.1-0.5-0.3-0.7-0.4c-0.2-0.2-0.3-0.4-0.5-0.7
			C355.6,239.9,355.5,239.7,355.5,239.4z M359.4,219.3l10.2-4.2l0.7,1.6l-11,4.6L359.4,219.3z"/>
		<path d="M371.4,239.4c0-0.3,0.1-0.6,0.2-0.8c0.1-0.3,0.3-0.5,0.5-0.7c0.2-0.2,0.4-0.3,0.7-0.4c0.3-0.1,0.5-0.2,0.8-0.2h12.1
			c0.3,0,0.6,0.1,0.8,0.2c0.3,0.1,0.5,0.3,0.7,0.4c0.2,0.2,0.3,0.4,0.5,0.7c0.1,0.3,0.2,0.5,0.2,0.8c0,0.3-0.1,0.6-0.2,0.8
			c-0.1,0.3-0.3,0.5-0.5,0.7c-0.2,0.2-0.4,0.3-0.7,0.4c-0.3,0.1-0.5,0.2-0.8,0.2h-12.1c-0.3,0-0.6-0.1-0.8-0.2s-0.5-0.3-0.7-0.4
			c-0.2-0.2-0.4-0.4-0.5-0.7C371.5,239.9,371.4,239.7,371.4,239.4z"/>
		<path d="M383.5,239.4c0-0.3,0.1-0.6,0.2-0.8c0.1-0.3,0.3-0.5,0.5-0.7c0.2-0.2,0.4-0.3,0.7-0.4c0.3-0.1,0.5-0.2,0.8-0.2h12.1
			c0.3,0,0.6,0.1,0.8,0.2c0.3,0.1,0.5,0.3,0.7,0.4c0.2,0.2,0.3,0.4,0.5,0.7c0.1,0.3,0.2,0.5,0.2,0.8c0,0.3-0.1,0.6-0.2,0.8
			c-0.1,0.3-0.3,0.5-0.5,0.7c-0.2,0.2-0.4,0.3-0.7,0.4c-0.3,0.1-0.5,0.2-0.8,0.2h-12.1c-0.3,0-0.6-0.1-0.8-0.2s-0.5-0.3-0.7-0.4
			s-0.4-0.4-0.5-0.7C383.6,239.9,383.5,239.7,383.5,239.4z"/>
		<path d="M395.6,239.4c0-0.3,0.1-0.6,0.2-0.8c0.1-0.3,0.3-0.5,0.5-0.7c0.2-0.2,0.4-0.3,0.7-0.4c0.3-0.1,0.5-0.2,0.8-0.2h12.1
			c0.3,0,0.6,0.1,0.8,0.2c0.3,0.1,0.5,0.3,0.7,0.4c0.2,0.2,0.3,0.4,0.5,0.7c0.1,0.3,0.2,0.5,0.2,0.8c0,0.3-0.1,0.6-0.2,0.8
			c-0.1,0.3-0.3,0.5-0.5,0.7c-0.2,0.2-0.4,0.3-0.7,0.4c-0.3,0.1-0.5,0.2-0.8,0.2h-12.1c-0.3,0-0.6-0.1-0.8-0.2s-0.5-0.3-0.7-0.4
			c-0.2-0.2-0.4-0.4-0.5-0.7C395.6,239.9,395.6,239.7,395.6,239.4z"/>
		<path d="M407.7,239.4c0-0.3,0.1-0.6,0.2-0.8c0.1-0.3,0.3-0.5,0.5-0.7c0.2-0.2,0.4-0.3,0.7-0.4c0.3-0.1,0.5-0.2,0.8-0.2H422
			c0.3,0,0.6,0.1,0.8,0.2c0.3,0.1,0.5,0.3,0.7,0.4c0.2,0.2,0.3,0.4,0.5,0.7c0.1,0.3,0.2,0.5,0.2,0.8c0,0.3-0.1,0.6-0.2,0.8
			c-0.1,0.3-0.3,0.5-0.5,0.7c-0.2,0.2-0.4,0.3-0.7,0.4c-0.3,0.1-0.5,0.2-0.8,0.2h-12.1c-0.3,0-0.6-0.1-0.8-0.2s-0.5-0.3-0.7-0.4
			c-0.2-0.2-0.4-0.4-0.5-0.7C407.7,239.9,407.7,239.7,407.7,239.4z"/>
		<path d="M419.8,239.4c0-0.3,0.1-0.6,0.2-0.8c0.1-0.3,0.3-0.5,0.5-0.7c0.2-0.2,0.4-0.3,0.7-0.4c0.3-0.1,0.5-0.2,0.8-0.2H434
			c0.3,0,0.6,0.1,0.8,0.2c0.3,0.1,0.5,0.3,0.7,0.4c0.2,0.2,0.3,0.4,0.5,0.7c0.1,0.3,0.2,0.5,0.2,0.8c0,0.3-0.1,0.6-0.2,0.8
			c-0.1,0.3-0.3,0.5-0.5,0.7c-0.2,0.2-0.4,0.3-0.7,0.4c-0.3,0.1-0.5,0.2-0.8,0.2h-12.1c-0.3,0-0.6-0.1-0.8-0.2s-0.5-0.3-0.7-0.4
			c-0.2-0.2-0.4-0.4-0.5-0.7C419.8,239.9,419.8,239.7,419.8,239.4z"/>
		<path d="M431.9,239.4c0-0.3,0.1-0.5,0.2-0.8c0.1-0.2,0.3-0.5,0.5-0.7c0.2-0.2,0.4-0.3,0.7-0.5c0.3-0.1,0.6-0.2,0.9-0.2
			c0.5,0,0.9-0.1,1.3-0.2s0.8-0.5,1.2-0.9c0.4-0.4,0.7-1.1,1-1.9c0.3-0.8,0.6-1.9,0.9-3.2l3.5,0.5c0-0.1,0,0,0,0.2
			c-0.1,0.2-0.1,0.5-0.2,0.9s-0.1,0.9-0.2,1.4c-0.1,0.5-0.1,1-0.1,1.4c0,0.5,0.1,0.8,0.2,1.2c0.1,0.3,0.3,0.5,0.5,0.6
			c0.3,0.1,0.5,0,0.8-0.2c0.3-0.2,0.5-0.4,0.7-0.8c0.2-0.3,0.4-0.7,0.6-1.2c0.2-0.5,0.4-0.9,0.5-1.4c0.2-0.5,0.3-0.9,0.4-1.4
			c0.1-0.5,0.2-0.9,0.3-1.2l3.5,0.5c0,0.2,0,0.5-0.1,0.9c0,0.4-0.1,0.8-0.1,1.2c0,0.4,0,0.8,0,1.3c0,0.4,0,0.8,0.1,1.1
			c0.1,0.3,0.2,0.6,0.4,0.8c0.2,0.2,0.4,0.3,0.8,0.3c0.3,0,0.5-0.1,0.8-0.3c0.2-0.2,0.4-0.4,0.5-0.8c0.1-0.3,0.3-0.7,0.4-1.1
			c0.1-0.4,0.2-0.8,0.2-1.2c0-0.4,0.1-0.8,0.1-1.2c0-0.4,0-0.7,0-1l3.6-0.5l0.4,3.7c0.1,0.4,0.2,0.8,0.3,1.1
			c0.2,0.3,0.4,0.5,0.6,0.7c0.2,0.2,0.5,0.3,0.8,0.5c0.3,0.1,0.5,0.2,0.8,0.2h0.2c0.3,0,0.6,0.1,0.9,0.2s0.5,0.3,0.7,0.4
			c0.2,0.2,0.3,0.4,0.5,0.7c0.1,0.3,0.2,0.5,0.2,0.8c0,0.3-0.1,0.6-0.2,0.8c-0.1,0.3-0.3,0.5-0.5,0.7c-0.2,0.2-0.4,0.3-0.7,0.4
			c-0.3,0.1-0.6,0.2-1,0.2c-0.9,0-1.7-0.1-2.4-0.4c-0.8-0.3-1.4-0.8-2-1.5c-0.1,0.1-0.1,0.1-0.2,0.2c-0.1,0.1-0.1,0.1-0.1,0.2v0
			c-0.5,0.5-1,0.9-1.7,1.2c-0.6,0.3-1.3,0.4-2,0.4c-0.8,0-1.6-0.2-2.2-0.5c-0.7-0.3-1.2-0.8-1.7-1.4c-0.5,0.6-1.1,1.1-1.8,1.4
			c-0.7,0.4-1.4,0.5-2.2,0.5c-0.8,0-1.5-0.2-2.1-0.5c-0.6-0.3-1.2-0.8-1.6-1.4c-0.5,0.7-1.1,1.1-1.8,1.4c-0.7,0.3-1.6,0.4-2.6,0.4
			c-0.3,0-0.6-0.1-0.9-0.2c-0.3-0.1-0.5-0.3-0.7-0.4c-0.2-0.2-0.3-0.4-0.5-0.7C431.9,239.9,431.9,239.7,431.9,239.4z M447.4,225.7
			l-2.5,2.5l-2.6-2.6l2.6-2.6l2.5,2.5l2.5-2.5l2.6,2.6l-2.6,2.6L447.4,225.7z M449.8,221.9l-2.4,2.4l-2.4-2.4l2.4-2.4L449.8,221.9z"
			/>
		<path d="M456.8,239.4c0-0.3,0.1-0.6,0.2-0.8c0.1-0.3,0.3-0.5,0.4-0.7c0.2-0.2,0.4-0.3,0.7-0.4s0.5-0.2,0.8-0.2h1.4h0.6
			c0.3,0,0.7,0,1,0c0.4,0,0.7-0.1,1-0.2c0.3-0.1,0.6-0.2,0.8-0.3c0.2-0.1,0.4-0.3,0.5-0.6c0.1-0.2,0.1-0.4,0.1-0.7
			c0-0.2-0.1-0.5-0.2-1c-0.1-0.4-0.3-0.9-0.5-1.4c-0.2-0.5-0.4-1.1-0.7-1.6c-0.3-0.6-0.5-1.1-0.8-1.6l3.8-1.9
			c0.2,0.6,0.5,1.2,0.7,1.8c0.2,0.6,0.5,1.3,0.7,1.9c0.2,0.6,0.4,1.3,0.5,1.9c0.1,0.6,0.2,1.3,0.2,1.8c0,0.9-0.2,1.7-0.5,2.5
			c-0.7,1.7-2,2.7-3.9,3.3c-0.5,0.1-1,0.2-1.5,0.3c-0.5,0-0.9,0-1.4,0h-1.8h-0.1c-0.3,0-0.6-0.1-0.8-0.2s-0.5-0.3-0.7-0.4
			s-0.3-0.4-0.4-0.7C456.9,239.9,456.8,239.7,456.8,239.4z M463.5,226.4l-3-2.9l3-2.9l3,2.9L463.5,226.4z"/>
		<path d="M471.1,239.2c0-0.8,0.1-1.5,0.1-2.3c0-0.8,0-1.5,0.1-2.2c0-0.7,0-1.4,0-2c-0.1-1.3-0.1-2.4-0.2-3.3c0-1-0.1-1.8-0.1-2.5
			c0-0.7-0.1-1.4-0.1-1.9c0-0.6-0.1-1.1-0.2-1.5c-0.1-0.5-0.1-0.9-0.2-1.3c-0.1-0.4-0.1-0.8-0.2-1.3l4.1-1.4
			c0.2,1.2,0.4,2.4,0.5,3.6c0.1,1.2,0.2,2.4,0.3,3.5c0.1,1.1,0.1,2.1,0.1,3.1c0,0.9,0,1.8,0,2.4c0,0.6,0,1.3,0,2c0,0.7,0,1.4,0,2.2
			c0,0.8,0,1.5-0.1,2.3c0,0.8-0.1,1.5-0.1,2.3l-4.1,0.6C471,240.8,471,240,471.1,239.2z"/>
		<path d="M479.5,236c0.5,0.2,1,0.5,1.5,0.7c0.5,0.2,1,0.4,1.5,0.5c0.5,0.1,0.9,0.2,1.3,0.2c0.2,0,0.5,0,0.8-0.1
			c0.4,0,0.7-0.1,1.1-0.2c0.3-0.1,0.7-0.2,0.9-0.4c0.3-0.2,0.4-0.4,0.4-0.7c0-0.3-0.1-0.7-0.3-1.2c-0.2-0.4-0.5-0.9-0.9-1.4
			c-0.4-0.5-0.8-1-1.3-1.4c-0.5-0.5-1-0.9-1.5-1.4c-0.5-0.4-1-0.9-1.5-1.2c-0.5-0.4-1-0.7-1.4-1l2.4-3.5c0.9,0.6,1.7,1.3,2.6,2
			c0.9,0.7,1.6,1.5,2.3,2.4c0.7,0.8,1.3,1.7,1.9,2.6c0.5,0.9,0.9,1.8,1.1,2.7c0.1,0.3,0.1,0.5,0.1,0.8c0,0.3,0,0.5,0,0.7
			c0,0.8-0.2,1.6-0.5,2.3c-0.3,0.7-0.8,1.3-1.3,1.8s-1.3,0.9-2.1,1.2c-0.8,0.3-1.7,0.4-2.6,0.4c-0.1,0-0.1,0-0.2,0
			c-0.1,0-0.1,0-0.2,0c-0.6,0-1.2-0.1-1.9-0.2c-0.6-0.1-1.3-0.3-1.9-0.5c-0.6-0.2-1.2-0.5-1.8-0.7c-0.6-0.3-1.1-0.6-1.6-0.9l1.7-4
			C478.6,235.5,479,235.7,479.5,236z"/>
	</g>
	<g>
		<g>
			<g>
				<path d="M22.4,179.2h-15v-4.2h12.8v-2.5H9.3l-1.9-1.9v-7.1l1.9-2h15v4.2H11.5v2.5h10.9l1.9,1.9v7.1L22.4,179.2z"/>
			</g>
			<g>
				<path d="M37.1,165.7v13.4H33v-13.4l-6.6,0v-4.2l17,0v4.2H37.1z"/>
			</g>
			<g>
				<path d="M60.9,179.2H47.6l-1.9-2v-15.7h4.1v13.4h8.8v-13.4h4.1v15.7L60.9,179.2z"/>
			</g>
			<g>
				<path d="M80,179.2H64.9v-17.7H80l1.9,2v13.8L80,179.2z M69,174.9h8.7v-9.2H69V174.9z"/>
			</g>
			<g>
				<path d="M85.9,179.2l-1.9-2v-13.8l1.9-2H101v4.2H88.2v2.5H101v4.2H88.2v2.5H101v4.2H85.9z"/>
			</g>
			<g>
				<path d="M116.1,179.2v-13.5h-8.8v13.4h-4.1v-17.7h15.2l1.9,2v15.8H116.1z"/>
			</g>
			<g>
				<path d="M133.1,165.7v13.4H129v-13.4l-6.6,0v-4.2l17,0v4.2H133.1z"/>
			</g>
			<g>
				<path d="M166.6,164.1h-3.4v-4.7h3.4V164.1z"/>
			</g>
			<g>
				<path d="M157.9,179.2h-15v-4.2h12.8v-2.5h-10.9l-1.9-1.9v-7.1l1.9-2h15v4.2h-12.7v2.5h10.9l1.9,1.9v7.1L157.9,179.2z"/>
			</g>
			<g>
				<path d="M191.9,179.2h-15.8v-4.2h13.5v-2.5h-11.5l-2-1.9v-7.1l2-2h15.8v4.2h-13.4v2.5h11.5l2,1.9v7.1L191.9,179.2z"/>
			</g>
			<g>
				<path d="M198.2,179.2l-2-2v-13.8l2-2l15.9,0v4.3h-13.5v9.2H214v4.2H198.2z"/>
			</g>
			<g>
				<path d="M216.2,179.2v-17.7h3.6v17.7H216.2z"/>
			</g>
			<g>
				<path d="M224,179.2l-2-2v-13.8l2-2h15.9v4.2h-13.5v2.5h13.5v4.2h-13.5v2.5h13.5v4.2H224z"/>
			</g>
			<g>
				<path d="M255.9,179.2v-13.5h-9.3v13.4h-4.3v-17.7h16l2,2v15.8H255.9z"/>
			</g>
			<g>
				<path d="M273.7,165.7v13.4h-4.3v-13.4l-6.9,0v-4.2l17.9,0v4.2H273.7z"/>
			</g>
			<g>
				<path d="M282.6,179.2v-17.7h3.6v17.7H282.6z"/>
			</g>
			<g>
				<path d="M292.8,172.5v6.7h-4.3v-15.7l2-2h15.9v4.2h-13.5v2.5h13.5v4.2H292.8z"/>
			</g>
			<g>
				<path d="M308.4,179.2v-17.7h3.6v17.7H308.4z"/>
			</g>
			<g>
				<path d="M316.3,179.2l-2-2v-13.8l2-2l15.9,0v4.3h-13.5v9.2h13.5v4.2H316.3z"/>
			</g>
			<g>
				<path d="M347,179.2l-2.1-2v-13.8l2.1-2l17,0v4.3h-14.4v9.2H364v4.2H347z"/>
			</g>
			<g>
				<path d="M381,179.2v-6.7h-9.9v6.7h-4.6v-17.7h4.6v6.7h9.9v-6.7h4.6v17.7H381z"/>
			</g>
			<g>
				<path d="M402.6,179.2v-6.7h-9.8v6.7h-4.6v-15.7l2.1-2h14.8l2.1,2v15.7H402.6z M392.8,168.2h9.8v-2.5h-9.8V168.2z"/>
			</g>
			<g>
				<path d="M426.7,172.5h-12.4v6.7h-4.6v-17.7h17l2.1,2v7.1L426.7,172.5z M414.3,168.2h9.8v-2.5h-9.8V168.2z"/>
			</g>
			<g>
				<path d="M443.3,165.7v13.4h-4.6v-13.4l-7.4,0v-4.2l19.2,0v4.2H443.3z"/>
			</g>
			<g>
				<path d="M455.1,179.2l-2.1-2v-13.8l2.1-2h17v4.2h-14.5v2.5h14.5v4.2h-14.5v2.5h14.5v4.2H455.1z"/>
			</g>
			<g>
				<path d="M489.1,179.2v-6.7h-9.8v6.7h-4.6v-17.7h17l2.1,2v5.4l-1.6,1.5l1.6,1.5v7.3H489.1z M479.2,168.2h9.8v-2.5h-9.8V168.2z"/>
			</g>
		</g>
		<g>
			<ellipse cx="24.3" cy="21.6" rx="5.6" ry="5.6"/>
			<ellipse cx="36.7" cy="21.6" rx="5.6" ry="5.6"/>
			<ellipse cx="49.1" cy="21.6" rx="5.6" ry="5.6"/>
			<ellipse cx="61.4" cy="21.6" rx="5.6" ry="5.6"/>
			<ellipse cx="73.8" cy="21.6" rx="5.6" ry="5.6"/>
			<ellipse cx="86.2" cy="21.6" rx="5.6" ry="5.6"/>
			<ellipse cx="98.6" cy="21.6" rx="5.6" ry="5.6"/>
			<ellipse cx="111" cy="21.6" rx="5.6" ry="5.6"/>
			<ellipse cx="123.4" cy="21.6" rx="5.6" ry="5.6"/>
			<ellipse cx="135.8" cy="21.6" rx="5.6" ry="5.6"/>
			<ellipse cx="148.1" cy="21.6" rx="5.6" ry="5.6"/>
			<ellipse cx="24.3" cy="34.1" rx="5.6" ry="5.6"/>
			<ellipse cx="36.7" cy="34.1" rx="5.6" ry="5.6"/>
			<ellipse cx="49.1" cy="34.1" rx="5.6" ry="5.6"/>
			<ellipse cx="61.4" cy="34.1" rx="5.6" ry="5.6"/>
			<ellipse cx="73.8" cy="34.1" rx="5.6" ry="5.6"/>
			<ellipse cx="86.2" cy="34.1" rx="5.6" ry="5.6"/>
			<ellipse cx="98.6" cy="34.1" rx="5.6" ry="5.6"/>
			<ellipse cx="111" cy="34.1" rx="5.6" ry="5.6"/>
			<ellipse cx="123.4" cy="34.1" rx="5.6" ry="5.6"/>
			<ellipse cx="135.8" cy="34.1" rx="5.6" ry="5.6"/>
			<ellipse cx="148.1" cy="34.1" rx="5.6" ry="5.6"/>
			<ellipse cx="24.3" cy="46.6" rx="5.6" ry="5.6"/>
			<ellipse cx="36.7" cy="46.6" rx="5.6" ry="5.6"/>
			<ellipse cx="49.1" cy="46.6" rx="5.6" ry="5.6"/>
			<ellipse cx="61.4" cy="46.6" rx="5.6" ry="5.6"/>
			<ellipse cx="73.8" cy="46.6" rx="5.6" ry="5.6"/>
			<ellipse cx="86.2" cy="46.6" rx="5.6" ry="5.6"/>
			<ellipse cx="98.6" cy="46.6" rx="5.6" ry="5.6"/>
			<ellipse cx="111" cy="46.6" rx="5.6" ry="5.6"/>
			<ellipse cx="123.4" cy="46.6" rx="5.6" ry="5.6"/>
			<ellipse cx="135.8" cy="46.6" rx="5.6" ry="5.6"/>
			<ellipse cx="148.1" cy="46.6" rx="5.6" ry="5.6"/>
			<ellipse cx="24.3" cy="59.2" rx="5.6" ry="5.6"/>
			<ellipse cx="36.7" cy="59.2" rx="5.6" ry="5.6"/>
			<ellipse cx="49.1" cy="59.2" rx="5.6" ry="5.6"/>
			<ellipse cx="24.3" cy="71.7" rx="5.6" ry="5.6"/>
			<ellipse cx="36.7" cy="71.7" rx="5.6" ry="5.6"/>
			<ellipse cx="49.1" cy="71.7" rx="5.6" ry="5.6"/>
			<ellipse cx="61.4" cy="71.7" rx="5.6" ry="5.6"/>
			<ellipse cx="73.8" cy="71.7" rx="5.6" ry="5.6"/>
			<ellipse cx="86.2" cy="71.7" rx="5.6" ry="5.6"/>
			<ellipse cx="98.6" cy="71.7" rx="5.6" ry="5.6"/>
			<ellipse cx="111" cy="71.7" rx="5.6" ry="5.6"/>
			<ellipse cx="123.4" cy="71.7" rx="5.6" ry="5.6"/>
			<ellipse cx="135.8" cy="71.7" rx="5.6" ry="5.6"/>
			<ellipse cx="24.3" cy="84.2" rx="5.6" ry="5.6"/>
			<ellipse cx="36.7" cy="84.2" rx="5.6" ry="5.6"/>
			<ellipse cx="49.1" cy="84.2" rx="5.6" ry="5.6"/>
			<ellipse cx="61.4" cy="84.2" rx="5.6" ry="5.6"/>
			<ellipse cx="73.8" cy="84.2" rx="5.6" ry="5.6"/>
			<ellipse cx="86.2" cy="84.2" rx="5.6" ry="5.6"/>
			<ellipse cx="98.6" cy="84.2" rx="5.6" ry="5.6"/>
			<ellipse cx="111" cy="84.2" rx="5.6" ry="5.6"/>
			<ellipse cx="123.4" cy="84.2" rx="5.6" ry="5.6"/>
			<ellipse cx="135.8" cy="84.2" rx="5.6" ry="5.6"/>
			<ellipse cx="148.1" cy="84.2" rx="5.6" ry="5.6"/>
			<ellipse cx="24.3" cy="96.7" rx="5.6" ry="5.6"/>
			<ellipse cx="36.7" cy="96.7" rx="5.6" ry="5.6"/>
			<ellipse cx="49.1" cy="96.7" rx="5.6" ry="5.6"/>
			<ellipse cx="61.4" cy="96.7" rx="5.6" ry="5.6"/>
			<ellipse cx="73.8" cy="96.7" rx="5.6" ry="5.6"/>
			<ellipse cx="86.2" cy="96.7" rx="5.6" ry="5.6"/>
			<ellipse cx="98.6" cy="96.7" rx="5.6" ry="5.6"/>
			<ellipse cx="111" cy="96.7" rx="5.6" ry="5.6"/>
			<ellipse cx="123.4" cy="96.7" rx="5.6" ry="5.6"/>
			<ellipse cx="135.8" cy="96.7" rx="5.6" ry="5.6"/>
			<ellipse cx="148.1" cy="96.7" rx="5.6" ry="5.6"/>
			<ellipse cx="111" cy="109.2" rx="5.6" ry="5.6"/>
			<ellipse cx="123.4" cy="109.2" rx="5.6" ry="5.6"/>
			<ellipse cx="135.8" cy="109.2" rx="5.6" ry="5.6"/>
			<ellipse cx="148.1" cy="109.2" rx="5.6" ry="5.6"/>
			<ellipse cx="24.3" cy="121.8" rx="5.6" ry="5.6"/>
			<ellipse cx="36.7" cy="121.8" rx="5.6" ry="5.6"/>
			<ellipse cx="49.1" cy="121.8" rx="5.6" ry="5.6"/>
			<ellipse cx="61.4" cy="121.8" rx="5.6" ry="5.6"/>
			<ellipse cx="73.8" cy="121.8" rx="5.6" ry="5.6"/>
			<ellipse cx="86.2" cy="121.8" rx="5.6" ry="5.6"/>
			<ellipse cx="98.6" cy="121.8" rx="5.6" ry="5.6"/>
			<ellipse cx="111" cy="121.8" rx="5.6" ry="5.6"/>
			<ellipse cx="123.4" cy="121.8" rx="5.6" ry="5.6"/>
			<ellipse cx="135.8" cy="121.8" rx="5.6" ry="5.6"/>
			<ellipse cx="148.1" cy="121.8" rx="5.6" ry="5.6"/>
			<ellipse cx="24.3" cy="134.3" rx="5.6" ry="5.6"/>
			<ellipse cx="36.7" cy="134.3" rx="5.6" ry="5.6"/>
			<ellipse cx="49.1" cy="134.3" rx="5.6" ry="5.6"/>
			<ellipse cx="61.4" cy="134.3" rx="5.6" ry="5.6"/>
			<ellipse cx="73.8" cy="134.3" rx="5.6" ry="5.6"/>
			<ellipse cx="86.2" cy="134.3" rx="5.6" ry="5.6"/>
			<ellipse cx="98.6" cy="134.3" rx="5.6" ry="5.6"/>
			<ellipse cx="111" cy="134.3" rx="5.6" ry="5.6"/>
			<ellipse cx="123.4" cy="134.3" rx="5.6" ry="5.6"/>
			<ellipse cx="135.8" cy="134.3" rx="5.6" ry="5.6"/>
			<ellipse cx="148.1" cy="134.3" rx="5.6" ry="5.6"/>
			<ellipse cx="24.3" cy="146.5" rx="5.6" ry="5.6"/>
			<ellipse cx="36.7" cy="146.5" rx="5.6" ry="5.6"/>
			<ellipse cx="11.9" cy="34.1" rx="5.6" ry="5.6"/>
			<ellipse cx="11.9" cy="46.6" rx="5.6" ry="5.6"/>
			<ellipse cx="11.9" cy="59.2" rx="5.6" ry="5.6"/>
			<ellipse cx="11.9" cy="71.7" rx="5.6" ry="5.6"/>
			<ellipse cx="11.9" cy="84.2" rx="5.6" ry="5.6"/>
			<ellipse cx="11.9" cy="121.8" rx="5.6" ry="5.6"/>
			<ellipse cx="11.9" cy="134.3" rx="5.6" ry="5.6"/>
			<ellipse cx="11.9" cy="146.5" rx="5.6" ry="5.6"/>
			<ellipse cx="49.1" cy="146.5" rx="5.6" ry="5.6"/>
			<ellipse cx="61.4" cy="146.5" rx="5.6" ry="5.6"/>
			<ellipse cx="73.8" cy="146.5" rx="5.6" ry="5.6"/>
			<ellipse cx="86.2" cy="146.5" rx="5.6" ry="5.6"/>
			<ellipse cx="98.6" cy="146.5" rx="5.6" ry="5.6"/>
			<ellipse cx="111" cy="146.5" rx="5.6" ry="5.6"/>
			<ellipse cx="123.4" cy="146.5" rx="5.6" ry="5.6"/>
			<ellipse cx="135.8" cy="146.5" rx="5.6" ry="5.6"/>
		</g>
		<g>
			<ellipse cx="194" cy="21.6" rx="5.6" ry="5.6"/>
			<ellipse cx="206.4" cy="21.6" rx="5.6" ry="5.6"/>
			<ellipse cx="218.8" cy="21.6" rx="5.6" ry="5.6"/>
			<ellipse cx="231.2" cy="21.6" rx="5.6" ry="5.6"/>
			<ellipse cx="243.6" cy="21.6" rx="5.6" ry="5.6"/>
			<ellipse cx="256" cy="21.6" rx="5.6" ry="5.6"/>
			<ellipse cx="268.4" cy="21.6" rx="5.6" ry="5.6"/>
			<ellipse cx="280.7" cy="21.6" rx="5.6" ry="5.6"/>
			<ellipse cx="293.1" cy="21.6" rx="5.6" ry="5.6"/>
			<ellipse cx="305.5" cy="21.6" rx="5.6" ry="5.6"/>
			<ellipse cx="317.9" cy="21.6" rx="5.6" ry="5.6"/>
			<ellipse cx="194" cy="34.1" rx="5.6" ry="5.6"/>
			<ellipse cx="206.4" cy="34.1" rx="5.6" ry="5.6"/>
			<ellipse cx="218.8" cy="34.1" rx="5.6" ry="5.6"/>
			<ellipse cx="231.2" cy="34.1" rx="5.6" ry="5.6"/>
			<ellipse cx="243.6" cy="34.1" rx="5.6" ry="5.6"/>
			<ellipse cx="256" cy="34.1" rx="5.6" ry="5.6"/>
			<ellipse cx="268.4" cy="34.1" rx="5.6" ry="5.6"/>
			<ellipse cx="280.7" cy="34.1" rx="5.6" ry="5.6"/>
			<ellipse cx="293.1" cy="34.1" rx="5.6" ry="5.6"/>
			<ellipse cx="305.5" cy="34.1" rx="5.6" ry="5.6"/>
			<ellipse cx="317.9" cy="34.1" rx="5.6" ry="5.6"/>
			<ellipse cx="194" cy="46.6" rx="5.6" ry="5.6"/>
			<ellipse cx="206.4" cy="46.6" rx="5.6" ry="5.6"/>
			<ellipse cx="218.8" cy="46.6" rx="5.6" ry="5.6"/>
			<ellipse cx="231.2" cy="46.6" rx="5.6" ry="5.6"/>
			<ellipse cx="243.6" cy="46.6" rx="5.6" ry="5.6"/>
			<ellipse cx="256" cy="46.6" rx="5.6" ry="5.6"/>
			<ellipse cx="268.4" cy="46.6" rx="5.6" ry="5.6"/>
			<ellipse cx="280.7" cy="46.6" rx="5.6" ry="5.6"/>
			<ellipse cx="293.1" cy="46.6" rx="5.6" ry="5.6"/>
			<ellipse cx="305.5" cy="46.6" rx="5.6" ry="5.6"/>
			<ellipse cx="317.9" cy="46.6" rx="5.6" ry="5.6"/>
			<ellipse cx="194" cy="59.2" rx="5.6" ry="5.6"/>
			<ellipse cx="206.4" cy="59.2" rx="5.6" ry="5.6"/>
			<ellipse cx="218.8" cy="59.2" rx="5.6" ry="5.6"/>
			<ellipse cx="194" cy="71.7" rx="5.6" ry="5.6"/>
			<ellipse cx="206.4" cy="71.7" rx="5.6" ry="5.6"/>
			<ellipse cx="218.8" cy="71.7" rx="5.6" ry="5.6"/>
			<ellipse cx="231.2" cy="71.7" rx="5.6" ry="5.6"/>
			<ellipse cx="243.6" cy="71.7" rx="5.6" ry="5.6"/>
			<ellipse cx="256" cy="71.7" rx="5.6" ry="5.6"/>
			<ellipse cx="268.4" cy="71.7" rx="5.6" ry="5.6"/>
			<ellipse cx="280.7" cy="71.7" rx="5.6" ry="5.6"/>
			<ellipse cx="293.1" cy="71.7" rx="5.6" ry="5.6"/>
			<ellipse cx="305.5" cy="71.7" rx="5.6" ry="5.6"/>
			<ellipse cx="194" cy="84.2" rx="5.6" ry="5.6"/>
			<ellipse cx="206.4" cy="84.2" rx="5.6" ry="5.6"/>
			<ellipse cx="218.8" cy="84.2" rx="5.6" ry="5.6"/>
			<ellipse cx="231.2" cy="84.2" rx="5.6" ry="5.6"/>
			<ellipse cx="243.6" cy="84.2" rx="5.6" ry="5.6"/>
			<ellipse cx="256" cy="84.2" rx="5.6" ry="5.6"/>
			<ellipse cx="268.4" cy="84.2" rx="5.6" ry="5.6"/>
			<ellipse cx="280.7" cy="84.2" rx="5.6" ry="5.6"/>
			<ellipse cx="293.1" cy="84.2" rx="5.6" ry="5.6"/>
			<ellipse cx="305.5" cy="84.2" rx="5.6" ry="5.6"/>
			<ellipse cx="317.9" cy="84.2" rx="5.6" ry="5.6"/>
			<ellipse cx="194" cy="96.7" rx="5.6" ry="5.6"/>
			<ellipse cx="206.4" cy="96.7" rx="5.6" ry="5.6"/>
			<ellipse cx="218.8" cy="96.7" rx="5.6" ry="5.6"/>
			<ellipse cx="231.2" cy="96.7" rx="5.6" ry="5.6"/>
			<ellipse cx="243.6" cy="96.7" rx="5.6" ry="5.6"/>
			<ellipse cx="256" cy="96.7" rx="5.6" ry="5.6"/>
			<ellipse cx="268.4" cy="96.7" rx="5.6" ry="5.6"/>
			<ellipse cx="280.7" cy="96.7" rx="5.6" ry="5.6"/>
			<ellipse cx="293.1" cy="96.7" rx="5.6" ry="5.6"/>
			<ellipse cx="305.5" cy="96.7" rx="5.6" ry="5.6"/>
			<ellipse cx="317.9" cy="96.7" rx="5.6" ry="5.6"/>
			<ellipse cx="280.7" cy="109.2" rx="5.6" ry="5.6"/>
			<ellipse cx="293.1" cy="109.2" rx="5.6" ry="5.6"/>
			<ellipse cx="305.5" cy="109.2" rx="5.6" ry="5.6"/>
			<ellipse cx="317.9" cy="109.2" rx="5.6" ry="5.6"/>
			<ellipse cx="194" cy="121.8" rx="5.6" ry="5.6"/>
			<ellipse cx="206.4" cy="121.8" rx="5.6" ry="5.6"/>
			<ellipse cx="218.8" cy="121.8" rx="5.6" ry="5.6"/>
			<ellipse cx="231.2" cy="121.8" rx="5.6" ry="5.6"/>
			<ellipse cx="243.6" cy="121.8" rx="5.6" ry="5.6"/>
			<ellipse cx="256" cy="121.8" rx="5.6" ry="5.6"/>
			<ellipse cx="268.4" cy="121.8" rx="5.6" ry="5.6"/>
			<ellipse cx="280.7" cy="121.8" rx="5.6" ry="5.6"/>
			<ellipse cx="293.1" cy="121.8" rx="5.6" ry="5.6"/>
			<ellipse cx="305.5" cy="121.8" rx="5.6" ry="5.6"/>
			<ellipse cx="317.9" cy="121.8" rx="5.6" ry="5.6"/>
			<ellipse cx="194" cy="134.3" rx="5.6" ry="5.6"/>
			<ellipse cx="206.4" cy="134.3" rx="5.6" ry="5.6"/>
			<ellipse cx="218.8" cy="134.3" rx="5.6" ry="5.6"/>
			<ellipse cx="231.2" cy="134.3" rx="5.6" ry="5.6"/>
			<ellipse cx="243.6" cy="134.3" rx="5.6" ry="5.6"/>
			<ellipse cx="256" cy="134.3" rx="5.6" ry="5.6"/>
			<ellipse cx="268.4" cy="134.3" rx="5.6" ry="5.6"/>
			<ellipse cx="280.7" cy="134.3" rx="5.6" ry="5.6"/>
			<ellipse cx="293.1" cy="134.3" rx="5.6" ry="5.6"/>
			<ellipse cx="305.5" cy="134.3" rx="5.6" ry="5.6"/>
			<ellipse cx="317.9" cy="134.3" rx="5.6" ry="5.6"/>
			<ellipse cx="194" cy="146.5" rx="5.6" ry="5.6"/>
			<ellipse cx="206.4" cy="146.5" rx="5.6" ry="5.6"/>
			<ellipse cx="181.6" cy="34.1" rx="5.6" ry="5.6"/>
			<ellipse cx="181.6" cy="46.6" rx="5.6" ry="5.6"/>
			<ellipse cx="181.6" cy="59.2" rx="5.6" ry="5.6"/>
			<ellipse cx="181.6" cy="71.7" rx="5.6" ry="5.6"/>
			<ellipse cx="181.6" cy="84.2" rx="5.6" ry="5.6"/>
			<ellipse cx="181.6" cy="121.8" rx="5.6" ry="5.6"/>
			<ellipse cx="181.6" cy="134.3" rx="5.6" ry="5.6"/>
			<ellipse cx="181.6" cy="146.5" rx="5.6" ry="5.6"/>
			<ellipse cx="218.8" cy="146.5" rx="5.6" ry="5.6"/>
			<ellipse cx="231.2" cy="146.5" rx="5.6" ry="5.6"/>
			<ellipse cx="243.6" cy="146.5" rx="5.6" ry="5.6"/>
			<ellipse cx="256" cy="146.5" rx="5.6" ry="5.6"/>
			<ellipse cx="268.4" cy="146.5" rx="5.6" ry="5.6"/>
			<ellipse cx="280.7" cy="146.5" rx="5.6" ry="5.6"/>
			<ellipse cx="293.1" cy="146.5" rx="5.6" ry="5.6"/>
			<ellipse cx="305.5" cy="146.5" rx="5.6" ry="5.6"/>
		</g>
		<g>
			<ellipse cx="364.2" cy="21.6" rx="5.6" ry="5.6"/>
			<ellipse cx="376.6" cy="21.6" rx="5.6" ry="5.6"/>
			<ellipse cx="389" cy="21.6" rx="5.6" ry="5.6"/>
			<ellipse cx="401.4" cy="21.6" rx="5.6" ry="5.6"/>
			<ellipse cx="413.8" cy="21.6" rx="5.6" ry="5.6"/>
			<ellipse cx="426.2" cy="21.6" rx="5.6" ry="5.6"/>
			<ellipse cx="438.6" cy="21.6" rx="5.6" ry="5.6"/>
			<ellipse cx="450.9" cy="21.6" rx="5.6" ry="5.6"/>
			<ellipse cx="463.3" cy="21.6" rx="5.6" ry="5.6"/>
			<ellipse cx="475.7" cy="21.6" rx="5.6" ry="5.6"/>
			<ellipse cx="488.1" cy="21.6" rx="5.6" ry="5.6"/>
			<ellipse cx="364.2" cy="34.1" rx="5.6" ry="5.6"/>
			<ellipse cx="376.6" cy="34.1" rx="5.6" ry="5.6"/>
			<ellipse cx="389" cy="34.1" rx="5.6" ry="5.6"/>
			<ellipse cx="401.4" cy="34.1" rx="5.6" ry="5.6"/>
			<ellipse cx="413.8" cy="34.1" rx="5.6" ry="5.6"/>
			<ellipse cx="426.2" cy="34.1" rx="5.6" ry="5.6"/>
			<ellipse cx="438.6" cy="34.1" rx="5.6" ry="5.6"/>
			<ellipse cx="450.9" cy="34.1" rx="5.6" ry="5.6"/>
			<ellipse cx="463.3" cy="34.1" rx="5.6" ry="5.6"/>
			<ellipse cx="475.7" cy="34.1" rx="5.6" ry="5.6"/>
			<ellipse cx="488.1" cy="34.1" rx="5.6" ry="5.6"/>
			<ellipse cx="364.2" cy="46.6" rx="5.6" ry="5.6"/>
			<ellipse cx="376.6" cy="46.6" rx="5.6" ry="5.6"/>
			<ellipse cx="389" cy="46.6" rx="5.6" ry="5.6"/>
			<ellipse cx="401.4" cy="46.6" rx="5.6" ry="5.6"/>
			<ellipse cx="413.8" cy="46.6" rx="5.6" ry="5.6"/>
			<ellipse cx="426.2" cy="46.6" rx="5.6" ry="5.6"/>
			<ellipse cx="438.6" cy="46.6" rx="5.6" ry="5.6"/>
			<ellipse cx="450.9" cy="46.6" rx="5.6" ry="5.6"/>
			<ellipse cx="463.3" cy="46.6" rx="5.6" ry="5.6"/>
			<ellipse cx="475.7" cy="46.6" rx="5.6" ry="5.6"/>
			<ellipse cx="488.1" cy="46.6" rx="5.6" ry="5.6"/>
			<ellipse cx="364.2" cy="59.2" rx="5.6" ry="5.6"/>
			<ellipse cx="376.6" cy="59.2" rx="5.6" ry="5.6"/>
			<ellipse cx="364.2" cy="71.7" rx="5.6" ry="5.6"/>
			<ellipse cx="376.6" cy="71.7" rx="5.6" ry="5.6"/>
			<ellipse cx="364.2" cy="84.2" rx="5.6" ry="5.6"/>
			<ellipse cx="376.6" cy="84.2" rx="5.6" ry="5.6"/>
			<ellipse cx="364.2" cy="96.7" rx="5.6" ry="5.6"/>
			<ellipse cx="376.6" cy="96.7" rx="5.6" ry="5.6"/>
			<ellipse cx="364.2" cy="109.2" rx="5.6" ry="5.6"/>
			<ellipse cx="376.6" cy="109.2" rx="5.6" ry="5.6"/>
			<ellipse cx="364.2" cy="121.8" rx="5.6" ry="5.6"/>
			<ellipse cx="376.6" cy="121.8" rx="5.6" ry="5.6"/>
			<ellipse cx="389" cy="121.8" rx="5.6" ry="5.6"/>
			<ellipse cx="401.4" cy="121.8" rx="5.6" ry="5.6"/>
			<ellipse cx="413.8" cy="121.8" rx="5.6" ry="5.6"/>
			<ellipse cx="426.2" cy="121.8" rx="5.6" ry="5.6"/>
			<ellipse cx="438.6" cy="121.8" rx="5.6" ry="5.6"/>
			<ellipse cx="450.9" cy="121.8" rx="5.6" ry="5.6"/>
			<ellipse cx="463.3" cy="121.8" rx="5.6" ry="5.6"/>
			<ellipse cx="475.7" cy="121.8" rx="5.6" ry="5.6"/>
			<ellipse cx="488.1" cy="121.8" rx="5.6" ry="5.6"/>
			<ellipse cx="364.2" cy="134.3" rx="5.6" ry="5.6"/>
			<ellipse cx="376.6" cy="134.3" rx="5.6" ry="5.6"/>
			<ellipse cx="389" cy="134.3" rx="5.6" ry="5.6"/>
			<ellipse cx="401.4" cy="134.3" rx="5.6" ry="5.6"/>
			<ellipse cx="413.8" cy="134.3" rx="5.6" ry="5.6"/>
			<ellipse cx="426.2" cy="134.3" rx="5.6" ry="5.6"/>
			<ellipse cx="438.6" cy="134.3" rx="5.6" ry="5.6"/>
			<ellipse cx="450.9" cy="134.3" rx="5.6" ry="5.6"/>
			<ellipse cx="463.3" cy="134.3" rx="5.6" ry="5.6"/>
			<ellipse cx="475.7" cy="134.3" rx="5.6" ry="5.6"/>
			<ellipse cx="488.1" cy="134.3" rx="5.6" ry="5.6"/>
			<ellipse cx="364.2" cy="146.5" rx="5.6" ry="5.6"/>
			<ellipse cx="376.6" cy="146.5" rx="5.6" ry="5.6"/>
			<ellipse cx="351.9" cy="34.1" rx="5.6" ry="5.6"/>
			<ellipse cx="351.9" cy="46.6" rx="5.6" ry="5.6"/>
			<ellipse cx="351.9" cy="59.2" rx="5.6" ry="5.6"/>
			<ellipse cx="351.9" cy="71.7" rx="5.6" ry="5.6"/>
			<ellipse cx="351.9" cy="84.2" rx="5.6" ry="5.6"/>
			<ellipse cx="351.9" cy="96.7" rx="5.6" ry="5.6"/>
			<ellipse cx="351.9" cy="109.2" rx="5.6" ry="5.6"/>
			<ellipse cx="351.9" cy="121.8" rx="5.6" ry="5.6"/>
			<ellipse cx="351.9" cy="134.3" rx="5.6" ry="5.6"/>
			<ellipse cx="389" cy="146.5" rx="5.6" ry="5.6"/>
			<ellipse cx="401.4" cy="146.5" rx="5.6" ry="5.6"/>
			<ellipse cx="413.8" cy="146.5" rx="5.6" ry="5.6"/>
			<ellipse cx="426.2" cy="146.5" rx="5.6" ry="5.6"/>
			<ellipse cx="438.6" cy="146.5" rx="5.6" ry="5.6"/>
			<ellipse cx="450.9" cy="146.5" rx="5.6" ry="5.6"/>
			<ellipse cx="463.3" cy="146.5" rx="5.6" ry="5.6"/>
			<ellipse cx="475.7" cy="146.5" rx="5.6" ry="5.6"/>
			<ellipse cx="488.1" cy="146.5" rx="5.6" ry="5.6"/>
		</g>
	</g>
</g>
</svg>
